Poppins-Black.ufo
<glyph name="quotedbl" format="2">
  <advance width="490"/>
  <unicode hex="0022"/>
  <outline>
    <contour>
      <point x="45" y="803" type="line"/>
      <point x="59" y="568" type="line"/>
      <point x="207" y="568" type="line"/>
      <point x="220" y="803" type="line"/>
    </contour>
    <contour>
      <point x="270" y="803" type="line"/>
      <point x="284" y="568" type="line"/>
      <point x="432" y="568" type="line"/>
      <point x="445" y="803" type="line"/>
    </contour>
  </outline>
</glyph>
<glyph name="numbersign" format="2">
  <advance width="933"/>
  <unicode hex="0023"/>
  <outline>
    <contour>
      <point x="283" y="740" type="line"/>
      <point x="125" y="0" type="line"/>
      <point x="330" y="0" type="line"/>
      <point x="488" y="740" type="line"/>
    </contour>
    <contour>
      <point x="627" y="740" type="line"/>
      <point x="469" y="0" type="line"/>
      <point x="675" y="0" type="line"/>
      <point x="833" y="740" type="line"/>
    </contour>
    <contour>
      <point x="10" y="326" type="line"/>
      <point x="10" y="124" type="line"/>
      <point x="855" y="124" type="line"/>
      <point x="855" y="326" type="line"/>
    </contour>
    <contour>
      <point x="78" y="623" type="line"/>
      <point x="78" y="421" type="line"/>
      <point x="923" y="421" type="line"/>
      <point x="923" y="623" type="line"/>
    </contour>
  </outline>
</glyph>
<glyph name="dollar" format="2">
  <advance width="665"/>
  <unicode hex="0024"/>
  <outline>
    <contour>
      <point x="299" y="800" type="line"/>
      <point x="299" y="-87" type="line"/>
      <point x="361" y="-87" type="line"/>
      <point x="361" y="800" type="line"/>
    </contour>
    <contour>
      <point x="268" y="409"/>
      <point x="268" y="514" type="curve"/>
      <point x="268" y="540"/>
      <point x="286" y="552"/>
      <point x="320" y="552" type="curve" smooth="yes"/>
      <point x="350" y="552"/>
      <point x="381" y="544"/>
      <point x="386" y="491" type="curve"/>
      <point x="625" y="491" type="line"/>
      <point x="615" y="641"/>
      <point x="501" y="720"/>
      <point x="321" y="720" type="curve" smooth="yes"/>
      <point x="166" y="720"/>
      <point x="30" y="646"/>
      <point x="30" y="504" type="curve"/>
      <point x="30" y="243"/>
      <point x="400" y="302"/>
      <point x="400" y="204" type="curve"/>
      <point x="400" y="175"/>
      <point x="376" y="161"/>
      <point x="345" y="161" type="curve"/>
      <point x="305" y="161"/>
      <point x="272" y="175"/>
      <point x="268" y="227" type="curve"/>
      <point x="32" y="227" type="line"/>
      <point x="42" y="68"/>
      <point x="178" y="-7"/>
      <point x="351" y="-7" type="curve" smooth="yes"/>
      <point x="535" y="-7"/>
      <point x="637" y="89"/>
      <point x="637" y="209" type="curve" smooth="yes"/>
      <point x="637" y="459"/>
    </contour>
  </outline>
</glyph>
<glyph name="percent" format="2">
  <advance width="938"/>
  <unicode hex="0025"/>
  <outline>
    <contour>
      <point x="21" y="662"/>
      <point x="21" y="540" type="curve" smooth="yes"/>
      <point x="21" y="419"/>
      <point x="99" y="360"/>
      <point x="202" y="360" type="curve" smooth="yes"/>
      <point x="304" y="360"/>
      <point x="381" y="419"/>
      <point x="381" y="540" type="curve" smooth="yes"/>
      <point x="381" y="662"/>
      <point x="304" y="721"/>
      <point x="202" y="721" type="curve" smooth="yes"/>
      <point x="99" y="721"/>
    </contour>
    <contour>
      <point x="178" y="592"/>
      <point x="200" y="592" type="curve" smooth="yes"/>
      <point x="223" y="592"/>
      <point x="237" y="575"/>
      <point x="237" y="540" type="curve" smooth="yes"/>
      <point x="237" y="506"/>
      <point x="223" y="489"/>
      <point x="200" y="489" type="curve" smooth="yes"/>
      <point x="178" y="489"/>
      <point x="166" y="506"/>
      <point x="166" y="540" type="curve" smooth="yes"/>
      <point x="166" y="575"/>
    </contour>
    <contour>
      <point x="550" y="711" type="line"/>
      <point x="177" y="0" type="line"/>
      <point x="389" y="0" type="line"/>
      <point x="762" y="711" type="line"/>
    </contour>
    <contour>
      <point x="558" y="293"/>
      <point x="558" y="171" type="curve" smooth="yes"/>
      <point x="558" y="49"/>
      <point x="636" y="-10"/>
      <point x="738" y="-10" type="curve" smooth="yes"/>
      <point x="841" y="-10"/>
      <point x="917" y="49"/>
      <point x="917" y="171" type="curve" smooth="yes"/>
      <point x="917" y="293"/>
      <point x="841" y="352"/>
      <point x="738" y="352" type="curve" smooth="yes"/>
      <point x="636" y="352"/>
    </contour>
    <contour>
      <point x="714" y="223"/>
      <point x="737" y="223" type="curve" smooth="yes"/>
      <point x="759" y="223"/>
      <point x="773" y="205"/>
      <point x="773" y="171" type="curve" smooth="yes"/>
      <point x="773" y="136"/>
      <point x="759" y="119"/>
      <point x="737" y="119" type="curve" smooth="yes"/>
      <point x="714" y="119"/>
      <point x="702" y="136"/>
      <point x="702" y="171" type="curve" smooth="yes"/>
      <point x="702" y="205"/>
    </contour>
  </outline>
</glyph>
<glyph name="ampersand" format="2">
  <advance width="831"/>
  <unicode hex="0026"/>
  <outline>
    <contour>
      <point x="396" y="524" type="curve"/>
      <point x="598" y="524" type="line"/>
      <point x="598" y="623"/>
      <point x="521" y="721"/>
      <point x="359" y="721" type="curve" smooth="yes"/>
      <point x="201" y="721"/>
      <point x="116" y="630"/>
      <point x="116" y="524" type="curve" smooth="yes"/>
      <point x="116" y="471"/>
      <point x="137" y="424"/>
      <point x="196" y="367" type="curve" smooth="yes"/>
      <point x="587" y="0" type="line"/>
      <point x="831" y="0" type="line"/>
      <point x="364" y="452" type="line" smooth="yes"/>
      <point x="336" y="479"/>
      <point x="320" y="505"/>
      <point x="320" y="526" type="curve" smooth="yes"/>
      <point x="320" y="550"/>
      <point x="339" y="562"/>
      <point x="359" y="562" type="curve" smooth="yes"/>
      <point x="377" y="562"/>
      <point x="396" y="551"/>
    </contour>
    <contour>
      <point x="398" y="329" type="line"/>
      <point x="317" y="459" type="line"/>
      <point x="228" y="431" type="line" smooth="yes"/>
      <point x="98" y="390"/>
      <point x="36" y="304"/>
      <point x="36" y="207" type="curve" smooth="yes"/>
      <point x="36" y="78"/>
      <point x="143" y="-10"/>
      <point x="317" y="-10" type="curve" smooth="yes"/>
      <point x="536" y="-10"/>
      <point x="672" y="116"/>
      <point x="758" y="340" type="curve" smooth="yes"/>
      <point x="768" y="366" type="line"/>
      <point x="553" y="366" type="line"/>
      <point x="550" y="357" type="line" smooth="yes"/>
      <point x="512" y="242"/>
      <point x="445" y="165"/>
      <point x="333" y="165" type="curve" smooth="yes"/>
      <point x="277" y="165"/>
      <point x="248" y="194"/>
      <point x="248" y="227" type="curve" smooth="yes"/>
      <point x="248" y="259"/>
      <point x="277" y="296"/>
      <point x="335" y="312" type="curve" smooth="yes"/>
    </contour>
  </outline>
</glyph>
<glyph name="quotesingle" format="2">
  <advance width="265"/>
  <unicode hex="0027"/>
  <outline>
    <contour>
      <point x="45" y="803" type="line"/>
      <point x="59" y="568" type="line"/>
      <point x="207" y="568" type="line"/>
      <point x="220" y="803" type="line"/>
    </contour>
  </outline>
</glyph>
<glyph name="parenleft" format="2">
  <advance width="463"/>
  <unicode hex="0028"/>
  <outline>
    <contour>
      <point x="261" y="-229" type="curve"/>
      <point x="475" y="-229" type="line"/>
      <point x="475" y="-209" type="line"/>
      <point x="347" y="-74"/>
      <point x="266" y="127"/>
      <point x="266" y="333" type="curve" smooth="yes"/>
      <point x="266" y="538"/>
      <point x="347" y="739"/>
      <point x="475" y="874" type="curve"/>
      <point x="475" y="895" type="line"/>
      <point x="261" y="895" type="line"/>
      <point x="135" y="775"/>
      <point x="54" y="566"/>
      <point x="54" y="333" type="curve" smooth="yes"/>
      <point x="54" y="100"/>
      <point x="135" y="-109"/>
    </contour>
  </outline>
</glyph>
<glyph name="parenright" format="2">
  <advance width="463"/>
  <unicode hex="0029"/>
  <outline>
    <contour>
      <point x="202" y="-229" type="line"/>
      <point x="328" y="-109"/>
      <point x="409" y="100"/>
      <point x="409" y="333" type="curve" smooth="yes"/>
      <point x="409" y="566"/>
      <point x="328" y="775"/>
      <point x="202" y="895" type="curve"/>
      <point x="-12" y="895" type="line"/>
      <point x="-12" y="874" type="line"/>
      <point x="116" y="739"/>
      <point x="197" y="538"/>
      <point x="197" y="333" type="curve" smooth="yes"/>
      <point x="197" y="127"/>
      <point x="116" y="-74"/>
      <point x="-12" y="-209" type="curve"/>
      <point x="-12" y="-229" type="line"/>
    </contour>
  </outline>
</glyph>
<glyph name="asterisk" format="2">
  <advance width="561"/>
  <unicode hex="002A"/>
  <outline>
    <contour>
      <point x="327" y="625" type="line"/>
      <point x="356" y="744" type="line"/>
      <point x="214" y="744" type="line"/>
      <point x="245" y="625" type="line"/>
      <point x="153" y="708" type="line"/>
      <point x="86" y="587" type="line"/>
      <point x="195" y="555" type="line"/>
      <point x="84" y="519" type="line"/>
      <point x="159" y="390" type="line"/>
      <point x="244" y="477" type="line"/>
      <point x="216" y="360" type="line"/>
      <point x="355" y="360" type="line"/>
      <point x="327" y="477" type="line"/>
      <point x="414" y="391" type="line"/>
      <point x="487" y="518" type="line"/>
      <point x="376" y="552" type="line"/>
      <point x="487" y="588" type="line"/>
      <point x="420" y="709" type="line"/>
    </contour>
  </outline>
</glyph>
<glyph name="plus" format="2">
  <advance width="551"/>
  <unicode hex="002B"/>
  <outline>
    <contour>
      <point x="382" y="595" type="line"/>
      <point x="169" y="595" type="line"/>
      <point x="169" y="85" type="line"/>
      <point x="382" y="85" type="line"/>
    </contour>
    <contour>
      <point x="20" y="441" type="line"/>
      <point x="20" y="238" type="line"/>
      <point x="531" y="238" type="line"/>
      <point x="531" y="441" type="line"/>
    </contour>
  </outline>
</glyph>
<glyph name="comma" format="2">
  <advance width="342"/>
  <unicode hex="002C"/>
  <outline>
    <contour>
      <point x="92" y="177" type="line"/>
      <point x="45" y="-120" type="line"/>
      <point x="185" y="-120" type="line"/>
      <point x="288" y="177" type="line"/>
    </contour>
  </outline>
</glyph>
<glyph name="period" format="2">
  <advance width="319"/>
  <unicode hex="002E"/>
  <outline>
    <contour>
      <point x="160" y="-8" type="curve" smooth="yes"/>
      <point x="238" y="-8"/>
      <point x="287" y="40"/>
      <point x="287" y="101" type="curve" smooth="yes"/>
      <point x="287" y="163"/>
      <point x="238" y="212"/>
      <point x="160" y="212" type="curve" smooth="yes"/>
      <point x="81" y="212"/>
      <point x="32" y="163"/>
      <point x="32" y="101" type="curve" smooth="yes"/>
      <point x="32" y="40"/>
      <point x="81" y="-8"/>
    </contour>
  </outline>
</glyph>
<glyph name="slash" format="2">
  <advance width="399"/>
  <unicode hex="002F"/>
  <unicode hex="2215"/>
  <outline>
    <contour>
      <point x="230" y="955" type="line"/>
      <point x="-36" y="-198" type="line"/>
      <point x="177" y="-198" type="line"/>
      <point x="442" y="955" type="line"/>
    </contour>
  </outline>
</glyph>
<glyph name="zero" format="2">
  <advance width="662"/>
  <unicode hex="0030"/>
  <outline>
    <contour>
      <point x="120" y="747"/>
      <point x="32" y="595"/>
      <point x="32" y="376" type="curve"/>
      <point x="32" y="156"/>
      <point x="120" y="4"/>
      <point x="332" y="4" type="curve" smooth="yes"/>
      <point x="543" y="4"/>
      <point x="632" y="156"/>
      <point x="632" y="376" type="curve"/>
      <point x="632" y="595"/>
      <point x="543" y="747"/>
      <point x="332" y="747" type="curve" smooth="yes"/>
    </contour>
    <contour>
      <point x="404" y="537"/>
      <point x="413" y="467"/>
      <point x="413" y="376" type="curve"/>
      <point x="413" y="284"/>
      <point x="404" y="214"/>
      <point x="332" y="214" type="curve" smooth="yes"/>
      <point x="259" y="214"/>
      <point x="250" y="284"/>
      <point x="250" y="376" type="curve" smooth="yes"/>
      <point x="250" y="467"/>
      <point x="259" y="537"/>
      <point x="332" y="537" type="curve"/>
    </contour>
  </outline>
</glyph>
<glyph name="one" format="2">
  <advance width="399"/>
  <unicode hex="0031"/>
  <outline>
    <contour>
      <point x="116" y="523" type="line"/>
      <point x="116" y="0" type="line"/>
      <point x="349" y="0" type="line"/>
      <point x="349" y="731" type="line"/>
      <point x="10" y="731" type="line"/>
      <point x="10" y="523" type="line"/>
    </contour>
  </outline>
</glyph>
<glyph name="two" format="2">
  <advance width="566"/>
  <unicode hex="0032"/>
  <outline>
    <contour>
      <point x="28" y="177" type="curve"/>
      <point x="28" y="10" type="line"/>
      <point x="545" y="10" type="line"/>
      <point x="545" y="189" type="line"/>
      <point x="316" y="189" type="line"/>
      <point x="432" y="262"/>
      <point x="542" y="383"/>
      <point x="542" y="528" type="curve" smooth="yes"/>
      <point x="542" y="644"/>
      <point x="477" y="747"/>
      <point x="295" y="747" type="curve" smooth="yes"/>
      <point x="158" y="747"/>
      <point x="32" y="672"/>
      <point x="25" y="478" type="curve"/>
      <point x="240" y="478" type="line"/>
      <point x="236" y="537"/>
      <point x="256" y="561"/>
      <point x="280" y="561" type="curve" smooth="yes"/>
      <point x="303" y="561"/>
      <point x="318" y="543"/>
      <point x="318" y="511" type="curve" smooth="yes"/>
      <point x="318" y="406"/>
      <point x="169" y="283"/>
    </contour>
  </outline>
</glyph>
<glyph name="three" format="2">
  <advance width="615"/>
  <unicode hex="0033"/>
  <outline>
    <contour>
      <point x="49" y="661"/>
      <point x="45" y="502" type="curve"/>
      <point x="261" y="502" type="line"/>
      <point x="261" y="531"/>
      <point x="265.744" y="564"/>
      <point x="298" y="564" type="curve"/>
      <point x="317.029" y="564"/>
      <point x="335" y="551"/>
      <point x="335" y="515" type="curve" smooth="yes"/>
      <point x="335" y="459"/>
      <point x="285" y="460"/>
      <point x="267" y="461" type="curve" smooth="yes"/>
      <point x="231" y="461" type="line"/>
      <point x="231" y="282" type="line"/>
      <point x="268" y="282" type="line" smooth="yes"/>
      <point x="329" y="282"/>
      <point x="349" y="261"/>
      <point x="349" y="225" type="curve" smooth="yes"/>
      <point x="349" y="195"/>
      <point x="331" y="176"/>
      <point x="307" y="176" type="curve" smooth="yes"/>
      <point x="265" y="176"/>
      <point x="250" y="202"/>
      <point x="253" y="249" type="curve"/>
      <point x="37" y="249" type="line"/>
      <point x="40" y="65"/>
      <point x="152.652" y="-7"/>
      <point x="317" y="-7" type="curve" smooth="yes"/>
      <point x="470.514" y="-7"/>
      <point x="564" y="80"/>
      <point x="564" y="209" type="curve" smooth="yes"/>
      <point x="564" y="301"/>
      <point x="513" y="350"/>
      <point x="444" y="376" type="curve"/>
      <point x="444" y="380" type="line"/>
      <point x="487" y="394"/>
      <point x="551" y="439"/>
      <point x="551" y="543" type="curve" smooth="yes"/>
      <point x="551" y="657.24"/>
      <point x="464.959" y="747"/>
      <point x="303" y="747" type="curve" smooth="yes"/>
      <point x="139.897" y="747"/>
    </contour>
  </outline>
</glyph>
<glyph name="four" format="2">
  <advance width="704"/>
  <unicode hex="0034"/>
  <outline>
    <contour>
      <point x="365" y="110" type="line"/>
      <point x="365" y="0" type="line"/>
      <point x="589" y="0" type="line"/>
      <point x="589" y="110" type="line"/>
      <point x="661" y="110" type="line"/>
      <point x="661" y="302" type="line"/>
      <point x="589" y="302" type="line"/>
      <point x="589" y="720" type="line"/>
      <point x="350" y="720" type="line"/>
      <point x="52" y="295" type="line"/>
      <point x="52" y="110" type="line"/>
    </contour>
    <contour>
      <point x="383" y="302" type="line"/>
      <point x="275" y="302" type="line"/>
      <point x="383" y="467" type="line"/>
    </contour>
  </outline>
</glyph>
<glyph name="five" format="2">
  <advance width="660"/>
  <unicode hex="0035"/>
  <outline>
    <contour>
      <point x="584" y="731" type="line"/>
      <point x="94" y="731" type="line"/>
      <point x="94" y="283" type="line"/>
      <point x="310" y="283" type="line"/>
      <point x="310" y="299"/>
      <point x="323" y="316"/>
      <point x="353" y="316" type="curve"/>
      <point x="385" y="316"/>
      <point x="405" y="297"/>
      <point x="405" y="257" type="curve" smooth="yes"/>
      <point x="405" y="218"/>
      <point x="391" y="190"/>
      <point x="356" y="190" type="curve" smooth="yes"/>
      <point x="318" y="190"/>
      <point x="309" y="218"/>
      <point x="309" y="234" type="curve"/>
      <point x="93" y="234" type="line"/>
      <point x="90" y="97.999"/>
      <point x="190.561" y="0"/>
      <point x="367" y="0" type="curve" smooth="yes"/>
      <point x="523.802" y="0"/>
      <point x="620" y="92"/>
      <point x="620" y="253" type="curve" smooth="yes"/>
      <point x="620" y="378"/>
      <point x="554" y="489"/>
      <point x="412" y="489" type="curve" smooth="yes"/>
      <point x="361" y="489"/>
      <point x="319.467" y="475.152"/>
      <point x="294" y="452" type="curve"/>
      <point x="294" y="536" type="line"/>
      <point x="584" y="536" type="line"/>
    </contour>
  </outline>
</glyph>
<glyph name="six" format="2">
  <advance width="633"/>
  <unicode hex="0036"/>
  <outline>
    <contour>
      <point x="365" y="509" type="curve"/>
      <point x="572" y="509" type="line"/>
      <point x="565" y="627"/>
      <point x="497" y="744"/>
      <point x="326" y="744" type="curve"/>
      <point x="132" y="744"/>
      <point x="52" y="629"/>
      <point x="52" y="360" type="curve"/>
      <point x="52" y="154"/>
      <point x="105" y="-7"/>
      <point x="331" y="-7" type="curve" smooth="yes"/>
      <point x="490" y="-7"/>
      <point x="589" y="88"/>
      <point x="589" y="239" type="curve" smooth="yes"/>
      <point x="589" y="392"/>
      <point x="502" y="469"/>
      <point x="378" y="469" type="curve" smooth="yes"/>
      <point x="320" y="469"/>
      <point x="273" y="445"/>
      <point x="249" y="409" type="curve"/>
      <point x="249" y="506"/>
      <point x="258" y="567"/>
      <point x="312" y="567" type="curve" smooth="yes"/>
      <point x="345" y="567"/>
      <point x="358" y="547"/>
    </contour>
    <contour>
      <point x="288" y="299"/>
      <point x="323" y="299" type="curve"/>
      <point x="358" y="299"/>
      <point x="382" y="279"/>
      <point x="382" y="242" type="curve"/>
      <point x="382" y="201"/>
      <point x="359" y="183"/>
      <point x="323" y="183" type="curve"/>
      <point x="287" y="183"/>
      <point x="264" y="201"/>
      <point x="264" y="242" type="curve"/>
      <point x="264" y="279"/>
    </contour>
  </outline>
</glyph>
<glyph name="seven" format="2">
  <advance width="512"/>
  <unicode hex="0037"/>
  <outline>
    <contour>
      <point x="502" y="731" type="line"/>
      <point x="18" y="731" type="line"/>
      <point x="18" y="541" type="line"/>
      <point x="276" y="541" type="line"/>
      <point x="46" y="0" type="line"/>
      <point x="274" y="0" type="line"/>
      <point x="502" y="568" type="line"/>
    </contour>
  </outline>
</glyph>
<glyph name="eight" format="2">
  <advance width="657"/>
  <unicode hex="0038"/>
  <outline>
    <contour>
      <point x="98" y="431"/>
      <point x="149" y="402" type="curve"/>
      <point x="82" y="363"/>
      <point x="48" y="305"/>
      <point x="48" y="225" type="curve" smooth="yes"/>
      <point x="48" y="68"/>
      <point x="180" y="-11"/>
      <point x="328" y="-11" type="curve"/>
      <point x="476" y="-11"/>
      <point x="608" y="68"/>
      <point x="608" y="225" type="curve" smooth="yes"/>
      <point x="608" y="305"/>
      <point x="574" y="363"/>
      <point x="507" y="402" type="curve"/>
      <point x="558" y="431"/>
      <point x="592" y="480"/>
      <point x="592" y="552" type="curve" smooth="yes"/>
      <point x="592" y="655"/>
      <point x="510" y="747"/>
      <point x="328" y="747" type="curve" smooth="yes"/>
      <point x="146" y="747"/>
      <point x="64" y="655"/>
      <point x="64" y="552" type="curve" smooth="yes"/>
      <point x="64" y="480"/>
    </contour>
    <contour>
      <point x="374" y="515" type="curve" smooth="yes"/>
      <point x="374" y="474"/>
      <point x="353" y="456"/>
      <point x="328" y="456" type="curve" smooth="yes"/>
      <point x="303" y="456"/>
      <point x="282" y="474"/>
      <point x="282" y="515" type="curve" smooth="yes"/>
      <point x="282" y="553"/>
      <point x="302" y="576"/>
      <point x="328" y="576" type="curve" smooth="yes"/>
      <point x="354" y="576"/>
      <point x="374" y="553"/>
    </contour>
    <contour>
      <point x="288" y="307"/>
      <point x="328" y="307" type="curve"/>
      <point x="368" y="307"/>
      <point x="393" y="278"/>
      <point x="393" y="238" type="curve"/>
      <point x="393" y="200"/>
      <point x="370" y="170"/>
      <point x="328" y="170" type="curve"/>
      <point x="286" y="170"/>
      <point x="263" y="200"/>
      <point x="263" y="238" type="curve"/>
      <point x="263" y="278"/>
    </contour>
  </outline>
</glyph>
<glyph name="nine" format="2">
  <advance width="597"/>
  <unicode hex="0039"/>
  <outline>
    <contour>
      <point x="254" y="228" type="curve"/>
      <point x="47" y="228" type="line"/>
      <point x="54" y="110"/>
      <point x="139" y="-7"/>
      <point x="305" y="-7" type="curve" smooth="yes"/>
      <point x="504" y="-7"/>
      <point x="569" y="138"/>
      <point x="569" y="389" type="curve" smooth="yes"/>
      <point x="569" y="596"/>
      <point x="514" y="747"/>
      <point x="288" y="747" type="curve" smooth="yes"/>
      <point x="131" y="747"/>
      <point x="30" y="652"/>
      <point x="30" y="501" type="curve" smooth="yes"/>
      <point x="30" y="345"/>
      <point x="119" y="268"/>
      <point x="241" y="268" type="curve" smooth="yes"/>
      <point x="299" y="268"/>
      <point x="346" y="292"/>
      <point x="370" y="328" type="curve"/>
      <point x="370" y="231"/>
      <point x="364" y="170"/>
      <point x="310" y="170" type="curve" smooth="yes"/>
      <point x="277" y="170"/>
      <point x="261" y="190"/>
    </contour>
    <contour>
      <point x="331" y="438"/>
      <point x="296" y="438" type="curve"/>
      <point x="261" y="438"/>
      <point x="237" y="458"/>
      <point x="237" y="495" type="curve"/>
      <point x="237" y="536"/>
      <point x="260" y="554"/>
      <point x="296" y="554" type="curve"/>
      <point x="332" y="554"/>
      <point x="355" y="536"/>
      <point x="355" y="495" type="curve"/>
      <point x="355" y="458"/>
    </contour>
  </outline>
</glyph>
<glyph name="less" format="2">
  <advance width="497"/>
  <unicode hex="003C"/>
  <outline>
    <contour>
      <point x="477" y="125" type="line"/>
      <point x="297" y="340" type="line"/>
      <point x="477" y="556" type="line"/>
      <point x="200" y="556" type="line"/>
      <point x="20" y="340" type="line"/>
      <point x="200" y="125" type="line"/>
    </contour>
  </outline>
</glyph>
<glyph name="equal" format="2">
  <advance width="626"/>
  <unicode hex="003D"/>
  <outline>
    <contour>
      <point x="20" y="300" type="line"/>
      <point x="20" y="99" type="line"/>
      <point x="606" y="99" type="line"/>
      <point x="606" y="300" type="line"/>
    </contour>
    <contour>
      <point x="20" y="580" type="line"/>
      <point x="20" y="379" type="line"/>
      <point x="606" y="379" type="line"/>
      <point x="606" y="580" type="line"/>
    </contour>
  </outline>
</glyph>
<glyph name="greater" format="2">
  <advance width="497"/>
  <unicode hex="003E"/>
  <outline>
    <contour>
      <point x="200" y="340" type="line"/>
      <point x="20" y="125" type="line"/>
      <point x="297" y="125" type="line"/>
      <point x="477" y="340" type="line"/>
      <point x="297" y="556" type="line"/>
      <point x="20" y="556" type="line"/>
    </contour>
  </outline>
</glyph>
<glyph name="question" format="2">
  <advance width="538"/>
  <unicode hex="003F"/>
  <outline>
    <contour>
      <point x="272" y="773" type="curve" smooth="yes"/>
      <point x="93" y="773"/>
      <point x="13" y="667"/>
      <point x="18" y="548" type="curve"/>
      <point x="227" y="548" type="line"/>
      <point x="227" y="572"/>
      <point x="237" y="593"/>
      <point x="266" y="593" type="curve" smooth="yes"/>
      <point x="285" y="593"/>
      <point x="300" y="580"/>
      <point x="301" y="556" type="curve" smooth="yes"/>
      <point x="303" y="513"/>
      <point x="256" y="498"/>
      <point x="179" y="498" type="curve" smooth="yes"/>
      <point x="95" y="498" type="line"/>
      <point x="101" y="286" type="line"/>
      <point x="297" y="286" type="line"/>
      <point x="303" y="357" type="line"/>
      <point x="430" y="360"/>
      <point x="518" y="436"/>
      <point x="518" y="555" type="curve" smooth="yes"/>
      <point x="518" y="702"/>
      <point x="414" y="773"/>
    </contour>
    <component base="period" xOffset="42"/>
  </outline>
</glyph>
<glyph name="at" format="2">
  <advance width="1129"/>
  <unicode hex="0040"/>
  <guideline x="882" y="282" angle="80.0442"/>
  <outline>
    <contour>
      <point x="621" y="181" type="line" smooth="yes"/>
      <point x="598" y="68"/>
      <point x="660" y="-4"/>
      <point x="778" y="-4" type="curve" smooth="yes"/>
      <point x="958" y="-4"/>
      <point x="1053" y="138"/>
      <point x="1053" y="315" type="curve" smooth="yes"/>
      <point x="1053" y="535"/>
      <point x="891" y="687"/>
      <point x="645" y="687" type="curve" smooth="yes"/>
      <point x="324" y="687"/>
      <point x="76" y="459"/>
      <point x="76" y="136" type="curve" smooth="yes"/>
      <point x="76" y="-95"/>
      <point x="233" y="-245"/>
      <point x="473" y="-245" type="curve" smooth="yes"/>
      <point x="559" y="-245"/>
      <point x="639" y="-229"/>
      <point x="707" y="-199" type="curve"/>
      <point x="669" y="-60" type="line"/>
      <point x="620" y="-81"/>
      <point x="556" y="-96"/>
      <point x="483" y="-96" type="curve" smooth="yes"/>
      <point x="328" y="-96"/>
      <point x="236" y="2"/>
      <point x="236" y="152" type="curve" smooth="yes"/>
      <point x="236" y="365"/>
      <point x="405" y="541"/>
      <point x="626" y="541" type="curve" smooth="yes"/>
      <point x="788" y="541"/>
      <point x="890" y="447"/>
      <point x="890" y="309" type="curve" smooth="yes"/>
      <point x="890" y="218"/>
      <point x="866" y="138"/>
      <point x="809" y="138" type="curve" smooth="yes"/>
      <point x="779" y="138"/>
      <point x="773" y="163"/>
      <point x="780" y="201" type="curve" smooth="yes"/>
      <point x="819" y="422" type="line"/>
      <point x="647" y="422" type="line"/>
      <point x="629" y="319" type="line"/>
      <point x="642" y="338" type="line"/>
      <point x="638" y="390"/>
      <point x="599" y="427"/>
      <point x="531" y="427" type="curve" smooth="yes"/>
      <point x="402" y="427"/>
      <point x="313" y="295"/>
      <point x="313" y="153" type="curve" smooth="yes"/>
      <point x="313" y="51"/>
      <point x="372" y="-7"/>
      <point x="468" y="-7" type="curve" smooth="yes"/>
      <point x="554" y="-7"/>
      <point x="620" y="34"/>
      <point x="648" y="112" type="curve"/>
      <point x="627" y="211" type="line"/>
    </contour>
    <contour>
      <point x="564" y="274" type="curve" smooth="yes"/>
      <point x="589" y="274"/>
      <point x="607" y="255"/>
      <point x="607" y="224" type="curve" smooth="yes"/>
      <point x="607" y="178"/>
      <point x="573" y="147"/>
      <point x="541" y="147" type="curve" smooth="yes"/>
      <point x="515" y="147"/>
      <point x="498" y="165"/>
      <point x="498" y="195" type="curve" smooth="yes"/>
      <point x="498" y="242"/>
      <point x="530" y="274"/>
    </contour>
  </outline>
</glyph>
<glyph name="A" format="2">
  <advance width="773"/>
  <unicode hex="0041"/>
  <anchor x="773" y="0" name="ogonek"/>
  <anchor x="387" y="711" name="top"/>
  <outline>
    <contour>
      <point x="515" y="708" type="line"/>
      <point x="259" y="708" type="line"/>
      <point x="0" y="0" type="line"/>
      <point x="233" y="0" type="line"/>
      <point x="426" y="593" type="line"/>
      <point x="347" y="593" type="line"/>
      <point x="539" y="0" type="line"/>
      <point x="773" y="0" type="line"/>
    </contour>
    <contour>
      <point x="170" y="274" type="line"/>
      <point x="114" y="107" type="line"/>
      <point x="634" y="107" type="line"/>
      <point x="579" y="274" type="line"/>
    </contour>
  </outline>
</glyph>
<glyph name="B" format="2">
  <advance width="684"/>
  <unicode hex="0042"/>
  <outline>
    <contour>
      <point x="417" y="515.641"/>
      <point x="417" y="481" type="curve" smooth="yes"/>
      <point x="417" y="446.596"/>
      <point x="398" y="432"/>
      <point x="358" y="432" type="curve" smooth="yes"/>
      <point x="272" y="432" type="line"/>
      <point x="272" y="532" type="line"/>
      <point x="358" y="532" type="line" smooth="yes"/>
      <point x="398" y="532"/>
    </contour>
    <contour>
      <point x="659" y="70"/>
      <point x="659" y="194" type="curve" smooth="yes"/>
      <point x="659" y="285"/>
      <point x="595" y="364"/>
      <point x="481" y="369" type="curve"/>
      <point x="464" y="357" type="line"/>
      <point x="563" y="352"/>
      <point x="643" y="416"/>
      <point x="643" y="524" type="curve" smooth="yes"/>
      <point x="643" y="647"/>
      <point x="552" y="708"/>
      <point x="411" y="708" type="curve" smooth="yes"/>
      <point x="50" y="708" type="line"/>
      <point x="50" y="0" type="line"/>
      <point x="421" y="0" type="line" smooth="yes"/>
      <point x="575" y="0"/>
    </contour>
    <contour>
      <point x="432" y="261.347"/>
      <point x="432" y="227" type="curve" smooth="yes"/>
      <point x="432" y="192.412"/>
      <point x="413" y="178"/>
      <point x="373" y="178" type="curve" smooth="yes"/>
      <point x="272" y="178" type="line"/>
      <point x="272" y="278" type="line"/>
      <point x="373" y="278" type="line" smooth="yes"/>
      <point x="413" y="278"/>
    </contour>
  </outline>
</glyph>
<glyph name="C" format="2">
  <advance width="753"/>
  <unicode hex="0043"/>
  <anchor x="377" y="0" name="bottom"/>
  <anchor x="377" y="711" name="top"/>
  <outline>
    <contour>
      <point x="30" y="566"/>
      <point x="30" y="355" type="curve"/>
      <point x="30" y="144"/>
      <point x="163" y="-5"/>
      <point x="380" y="-5" type="curve"/>
      <point x="567" y="-5"/>
      <point x="694" y="107"/>
      <point x="723" y="274" type="curve"/>
      <point x="489" y="274" type="line"/>
      <point x="468" y="227"/>
      <point x="426" y="200"/>
      <point x="376" y="200" type="curve"/>
      <point x="301" y="200"/>
      <point x="255" y="261"/>
      <point x="255" y="355" type="curve"/>
      <point x="255" y="449"/>
      <point x="301" y="510"/>
      <point x="376" y="510" type="curve"/>
      <point x="426" y="510"/>
      <point x="468" y="483"/>
      <point x="489" y="436" type="curve"/>
      <point x="723" y="436" type="line"/>
      <point x="694" y="603"/>
      <point x="567" y="715"/>
      <point x="380" y="715" type="curve"/>
      <point x="163" y="715"/>
    </contour>
  </outline>
</glyph>
<glyph name="D" format="2">
  <advance width="743"/>
  <unicode hex="0044"/>
  <anchor x="359" y="711" name="top"/>
  <outline>
    <contour>
      <point x="571" y="708"/>
      <point x="345" y="708" type="curve" smooth="yes"/>
      <point x="50" y="708" type="line"/>
      <point x="50" y="0" type="line"/>
      <point x="345" y="0" type="line" smooth="yes"/>
      <point x="571" y="0"/>
      <point x="713" y="154"/>
      <point x="713" y="356" type="curve" smooth="yes"/>
      <point x="713" y="560"/>
    </contour>
    <contour>
      <point x="325" y="198" type="curve" smooth="yes"/>
      <point x="272" y="198" type="line"/>
      <point x="272" y="514" type="line"/>
      <point x="325" y="514" type="line" smooth="yes"/>
      <point x="423" y="514"/>
      <point x="488" y="459"/>
      <point x="488" y="356" type="curve" smooth="yes"/>
      <point x="488" y="253"/>
      <point x="423" y="198"/>
    </contour>
  </outline>
</glyph>
<glyph name="E" format="2">
  <advance width="556"/>
  <unicode hex="0045"/>
  <anchor x="282" y="0" name="bottom"/>
  <anchor x="522" y="0" name="ogonek"/>
  <anchor x="282" y="711" name="top"/>
  <outline>
    <contour>
      <point x="522" y="531" type="line"/>
      <point x="522" y="708" type="line"/>
      <point x="50" y="708" type="line"/>
      <point x="50" y="0" type="line"/>
      <point x="522" y="0" type="line"/>
      <point x="522" y="177" type="line"/>
      <point x="272" y="177" type="line"/>
      <point x="272" y="277" type="line"/>
      <point x="492" y="277" type="line"/>
      <point x="492" y="444" type="line"/>
      <point x="272" y="444" type="line"/>
      <point x="272" y="531" type="line"/>
    </contour>
  </outline>
</glyph>
<glyph name="F" format="2">
  <advance width="575"/>
  <unicode hex="0046"/>
  <outline>
    <contour>
      <point x="50" y="708" type="line"/>
      <point x="50" y="0" type="line"/>
      <point x="272" y="0" type="line"/>
      <point x="272" y="267" type="line"/>
      <point x="472" y="267" type="line"/>
      <point x="472" y="434" type="line"/>
      <point x="272" y="434" type="line"/>
      <point x="272" y="532" type="line"/>
      <point x="550" y="532" type="line"/>
      <point x="550" y="708" type="line"/>
    </contour>
  </outline>
</glyph>
<glyph name="G" format="2">
  <advance width="752"/>
  <unicode hex="0047"/>
  <anchor x="377" y="0" name="bottom"/>
  <anchor x="377" y="711" name="top"/>
  <outline>
    <contour>
      <point x="718" y="466" type="line"/>
      <point x="697" y="617"/>
      <point x="576" y="715"/>
      <point x="388" y="715" type="curve"/>
      <point x="166" y="715"/>
      <point x="30" y="566"/>
      <point x="30" y="355" type="curve"/>
      <point x="30" y="144"/>
      <point x="167" y="-5"/>
      <point x="390" y="-5" type="curve"/>
      <point x="573" y="-5"/>
      <point x="673" y="102"/>
      <point x="722" y="187" type="curve"/>
      <point x="722" y="409" type="line"/>
      <point x="361" y="409" type="line"/>
      <point x="361" y="252" type="line"/>
      <point x="538" y="252" type="line"/>
      <point x="505" y="208"/>
      <point x="464" y="190"/>
      <point x="414" y="190" type="curve"/>
      <point x="305" y="190"/>
      <point x="255" y="245"/>
      <point x="255" y="355" type="curve"/>
      <point x="255" y="449"/>
      <point x="303" y="510"/>
      <point x="389" y="510" type="curve"/>
      <point x="435" y="510"/>
      <point x="467" y="493"/>
      <point x="484" y="466" type="curve"/>
    </contour>
  </outline>
</glyph>
<glyph name="H" format="2">
  <advance width="755"/>
  <unicode hex="0048"/>
  <outline>
    <contour>
      <point x="50" y="708" type="line"/>
      <point x="50" y="0" type="line"/>
      <point x="272" y="0" type="line"/>
      <point x="272" y="708" type="line"/>
    </contour>
    <contour>
      <point x="483" y="708" type="line"/>
      <point x="483" y="0" type="line"/>
      <point x="705" y="0" type="line"/>
      <point x="705" y="708" type="line"/>
    </contour>
    <contour>
      <point x="252" y="453" type="line"/>
      <point x="252" y="276" type="line"/>
      <point x="505" y="276" type="line"/>
      <point x="505" y="453" type="line"/>
    </contour>
  </outline>
</glyph>
<glyph name="I" format="2">
  <advance width="322"/>
  <unicode hex="0049"/>
  <anchor x="272" y="0" name="ogonek"/>
  <anchor x="162" y="711" name="top"/>
  <outline>
    <contour>
      <point x="50" y="708" type="line"/>
      <point x="50" y="0" type="line"/>
      <point x="272" y="0" type="line"/>
      <point x="272" y="708" type="line"/>
    </contour>
  </outline>
</glyph>
<glyph name="J" format="2">
  <advance width="590"/>
  <unicode hex="004A"/>
  <outline>
    <contour>
      <point x="323" y="708" type="line"/>
      <point x="323" y="251" type="line" smooth="yes"/>
      <point x="323" y="205"/>
      <point x="305" y="193"/>
      <point x="281" y="193" type="curve" smooth="yes"/>
      <point x="252" y="193"/>
      <point x="229" y="209"/>
      <point x="229" y="271" type="curve"/>
      <point x="10" y="271" type="line"/>
      <point x="10" y="85"/>
      <point x="125" y="-7"/>
      <point x="291" y="-7" type="curve" smooth="yes"/>
      <point x="447" y="-7"/>
      <point x="544" y="78"/>
      <point x="544" y="251" type="curve" smooth="yes"/>
      <point x="544" y="708" type="line"/>
    </contour>
  </outline>
</glyph>
<glyph name="K" format="2">
  <advance width="755"/>
  <unicode hex="004B"/>
  <anchor x="374" y="0" name="bottom"/>
  <anchor x="374" y="711" name="top"/>
  <outline>
    <contour>
      <point x="50" y="708" type="line"/>
      <point x="50" y="0" type="line"/>
      <point x="272" y="0" type="line"/>
      <point x="272" y="708" type="line"/>
    </contour>
    <contour>
      <point x="475" y="708" type="line"/>
      <point x="237" y="359" type="line"/>
      <point x="478" y="0" type="line"/>
      <point x="742" y="0" type="line"/>
      <point x="477" y="375" type="line"/>
      <point x="453" y="329" type="line"/>
      <point x="726" y="708" type="line"/>
    </contour>
  </outline>
</glyph>
<glyph name="L" format="2">
  <advance width="506"/>
  <unicode hex="004C"/>
  <anchor x="265" y="0" name="bottom"/>
  <anchor x="265" y="10" name="commaaccent"/>
  <anchor x="231" y="711" name="top"/>
  <anchor x="466" y="711" name="topright"/>
  <outline>
    <contour>
      <point x="272" y="708" type="line"/>
      <point x="50" y="708" type="line"/>
      <point x="50" y="0" type="line"/>
      <point x="486" y="0" type="line"/>
      <point x="486" y="168" type="line"/>
      <point x="272" y="168" type="line"/>
    </contour>
  </outline>
</glyph>
<glyph name="M" format="2">
  <advance width="951"/>
  <unicode hex="004D"/>
  <outline>
    <contour>
      <point x="50" y="708" type="line"/>
      <point x="50" y="0" type="line"/>
      <point x="272" y="0" type="line"/>
      <point x="272" y="579" type="line"/>
      <point x="207" y="564" type="line"/>
      <point x="381" y="0" type="line"/>
      <point x="571" y="0" type="line"/>
      <point x="745" y="564" type="line"/>
      <point x="680" y="579" type="line"/>
      <point x="680" y="0" type="line"/>
      <point x="901" y="0" type="line"/>
      <point x="901" y="708" type="line"/>
      <point x="630" y="708" type="line"/>
      <point x="427" y="139" type="line"/>
      <point x="524" y="159" type="line"/>
      <point x="322" y="708" type="line"/>
    </contour>
  </outline>
</glyph>
<glyph name="N" format="2">
  <advance width="779"/>
  <unicode hex="004E"/>
  <anchor x="389" y="0" name="bottom"/>
  <anchor x="389" y="711" name="top"/>
  <outline>
    <contour>
      <point x="729" y="708" type="line"/>
      <point x="507" y="708" type="line"/>
      <point x="507" y="346" type="line"/>
      <point x="272" y="708" type="line"/>
      <point x="50" y="708" type="line"/>
      <point x="50" y="0" type="line"/>
      <point x="272" y="0" type="line"/>
      <point x="272" y="356" type="line"/>
      <point x="507" y="0" type="line"/>
      <point x="729" y="0" type="line"/>
    </contour>
  </outline>
</glyph>
<glyph name="O" format="2">
  <advance width="788"/>
  <unicode hex="004F"/>
  <anchor x="395" y="711" name="top"/>
  <outline>
    <contour>
      <point x="395" y="-7" type="curve" smooth="yes"/>
      <point x="595" y="-7"/>
      <point x="758" y="144"/>
      <point x="758" y="357" type="curve" smooth="yes"/>
      <point x="758" y="570"/>
      <point x="597" y="720"/>
      <point x="395" y="720" type="curve" smooth="yes"/>
      <point x="194" y="720"/>
      <point x="30" y="570"/>
      <point x="30" y="357" type="curve" smooth="yes"/>
      <point x="30" y="144"/>
      <point x="194" y="-7"/>
    </contour>
    <contour>
      <point x="395" y="200" type="curve" smooth="yes"/>
      <point x="304" y="200"/>
      <point x="256" y="263"/>
      <point x="256" y="357" type="curve" smooth="yes"/>
      <point x="256" y="453"/>
      <point x="304" y="515"/>
      <point x="395" y="515" type="curve" smooth="yes"/>
      <point x="484" y="515"/>
      <point x="533" y="453"/>
      <point x="533" y="357" type="curve" smooth="yes"/>
      <point x="533" y="263"/>
      <point x="484" y="200"/>
    </contour>
  </outline>
</glyph>
<glyph name="P" format="2">
  <advance width="649"/>
  <unicode hex="0050"/>
  <outline>
    <contour>
      <point x="335" y="400" type="curve"/>
      <point x="272" y="400" type="line"/>
      <point x="272" y="530" type="line"/>
      <point x="335" y="530" type="line" smooth="yes"/>
      <point x="385" y="530"/>
      <point x="404" y="504"/>
      <point x="404" y="465" type="curve"/>
      <point x="404" y="426"/>
      <point x="385" y="400"/>
    </contour>
    <contour>
      <point x="629" y="334"/>
      <point x="629" y="465" type="curve"/>
      <point x="629" y="607.88"/>
      <point x="538" y="708"/>
      <point x="360" y="708" type="curve" smooth="yes"/>
      <point x="50" y="708" type="line"/>
      <point x="50" y="0" type="line"/>
      <point x="272" y="0" type="line"/>
      <point x="272" y="225" type="line"/>
      <point x="360" y="225" type="line" smooth="yes"/>
      <point x="538" y="225"/>
    </contour>
  </outline>
</glyph>
<glyph name="Q" format="2">
  <advance width="788"/>
  <unicode hex="0051"/>
  <outline>
    <contour>
      <point x="598" y="127" type="line"/>
      <point x="387" y="98" type="line"/>
      <point x="516" y="-115" type="line"/>
      <point x="778" y="-115" type="line"/>
    </contour>
    <component base="O"/>
  </outline>
</glyph>
<glyph name="R" format="2">
  <advance width="670"/>
  <unicode hex="0052"/>
  <anchor x="325" y="0" name="bottom"/>
  <anchor x="325" y="711" name="top"/>
  <outline>
    <contour>
      <point x="424" y="498"/>
      <point x="424" y="462" type="curve" smooth="yes"/>
      <point x="424" y="420"/>
      <point x="402" y="402"/>
      <point x="360" y="402" type="curve" smooth="yes"/>
      <point x="272" y="402" type="line"/>
      <point x="272" y="522" type="line"/>
      <point x="360" y="522" type="line" smooth="yes"/>
      <point x="402" y="522"/>
    </contour>
    <contour>
      <point x="380" y="708" type="curve" smooth="yes"/>
      <point x="50" y="708" type="line"/>
      <point x="50" y="0" type="line"/>
      <point x="272" y="0" type="line"/>
      <point x="272" y="254" type="line"/>
      <point x="380" y="254" type="line"/>
      <point x="558" y="254"/>
      <point x="649" y="352"/>
      <point x="649" y="476" type="curve"/>
      <point x="649" y="605.586"/>
      <point x="558" y="708"/>
    </contour>
    <contour>
      <point x="482" y="295" type="line"/>
      <point x="251" y="295" type="line"/>
      <point x="406" y="0" type="line"/>
      <point x="650" y="0" type="line"/>
    </contour>
  </outline>
</glyph>
<glyph name="S" format="2">
  <advance width="625"/>
  <unicode hex="0053"/>
  <anchor x="313" y="0" name="bottom"/>
  <anchor x="313" y="711" name="top"/>
  <outline>
    <contour>
      <point x="327" y="-7" type="curve" smooth="yes"/>
      <point x="498" y="-7"/>
      <point x="597" y="89"/>
      <point x="597" y="219" type="curve" smooth="yes"/>
      <point x="597" y="437"/>
      <point x="268" y="422"/>
      <point x="268" y="511" type="curve" smooth="yes"/>
      <point x="268" y="535"/>
      <point x="282" y="547"/>
      <point x="300" y="547" type="curve" smooth="yes"/>
      <point x="324" y="547"/>
      <point x="347" y="534"/>
      <point x="349" y="491" type="curve"/>
      <point x="588" y="491" type="line"/>
      <point x="582" y="638"/>
      <point x="472" y="720"/>
      <point x="301" y="720" type="curve" smooth="yes"/>
      <point x="150" y="720"/>
      <point x="30" y="646"/>
      <point x="30" y="504" type="curve"/>
      <point x="26" y="262"/>
      <point x="360" y="297"/>
      <point x="361" y="201" type="curve" smooth="yes"/>
      <point x="361" y="176"/>
      <point x="340" y="166"/>
      <point x="318" y="166" type="curve" smooth="yes"/>
      <point x="296" y="166"/>
      <point x="268" y="175"/>
      <point x="264" y="227" type="curve"/>
      <point x="28" y="227" type="line"/>
      <point x="38" y="68"/>
      <point x="165" y="-7"/>
    </contour>
  </outline>
</glyph>
<glyph name="T" format="2">
  <advance width="616"/>
  <unicode hex="0054"/>
  <anchor x="303" y="0" name="bottom"/>
  <anchor x="303" y="711" name="top"/>
  <outline>
    <contour>
      <point x="10" y="708" type="line"/>
      <point x="10" y="532" type="line"/>
      <point x="196" y="532" type="line"/>
      <point x="196" y="0" type="line"/>
      <point x="418" y="0" type="line"/>
      <point x="418" y="532" type="line"/>
      <point x="606" y="532" type="line"/>
      <point x="606" y="708" type="line"/>
    </contour>
  </outline>
</glyph>
<glyph name="U" format="2">
  <advance width="719"/>
  <unicode hex="0055"/>
  <anchor x="449" y="3" name="ogonek"/>
  <anchor x="360" y="711" name="top"/>
  <outline>
    <contour>
      <point x="46" y="708" type="line"/>
      <point x="46" y="309" type="line" smooth="yes"/>
      <point x="46" y="100"/>
      <point x="176" y="-7"/>
      <point x="353" y="-7" type="curve" smooth="yes"/>
      <point x="530" y="-7"/>
      <point x="673" y="100"/>
      <point x="673" y="309" type="curve" smooth="yes"/>
      <point x="673" y="708" type="line"/>
      <point x="452" y="708" type="line"/>
      <point x="452" y="309" type="line" smooth="yes"/>
      <point x="452" y="248"/>
      <point x="425" y="203"/>
      <point x="358" y="203" type="curve" smooth="yes"/>
      <point x="291" y="203"/>
      <point x="267" y="248"/>
      <point x="267" y="309" type="curve" smooth="yes"/>
      <point x="267" y="708" type="line"/>
    </contour>
  </outline>
</glyph>
<glyph name="V" format="2">
  <advance width="763"/>
  <unicode hex="0056"/>
  <outline>
    <contour>
      <point x="527" y="708" type="line"/>
      <point x="382" y="221" type="line"/>
      <point x="236" y="708" type="line"/>
      <point x="0" y="708" type="line"/>
      <point x="238" y="0" type="line"/>
      <point x="525" y="0" type="line"/>
      <point x="763" y="708" type="line"/>
    </contour>
  </outline>
</glyph>
<glyph name="W" format="2">
  <advance width="1100"/>
  <unicode hex="0057"/>
  <outline>
    <contour>
      <point x="30" y="708" type="line"/>
      <point x="192" y="0" type="line"/>
      <point x="468" y="0" type="line"/>
      <point x="560" y="451" type="line"/>
      <point x="540" y="451" type="line"/>
      <point x="632" y="0" type="line"/>
      <point x="908" y="0" type="line"/>
      <point x="1070" y="708" type="line"/>
      <point x="831" y="708" type="line"/>
      <point x="745" y="112" type="line"/>
      <point x="799" y="112" type="line"/>
      <point x="671" y="708" type="line"/>
      <point x="429" y="708" type="line"/>
      <point x="301" y="112" type="line"/>
      <point x="355" y="112" type="line"/>
      <point x="269" y="708" type="line"/>
    </contour>
  </outline>
</glyph>
<glyph name="X" format="2">
  <advance width="764"/>
  <unicode hex="0058"/>
  <outline>
    <contour>
      <point x="0" y="708" type="line"/>
      <point x="501" y="0" type="line"/>
      <point x="764" y="0" type="line"/>
      <point x="263" y="708" type="line"/>
    </contour>
    <contour>
      <point x="406" y="243" type="line"/>
      <point x="275" y="416" type="line"/>
      <point x="10" y="0" type="line"/>
      <point x="263" y="0" type="line"/>
    </contour>
    <contour>
      <point x="350" y="466" type="line"/>
      <point x="480" y="293" type="line"/>
      <point x="745" y="708" type="line"/>
      <point x="492" y="708" type="line"/>
    </contour>
  </outline>
</glyph>
<glyph name="Y" format="2">
  <advance width="730"/>
  <unicode hex="0059"/>
  <anchor x="366" y="711" name="top"/>
  <outline>
    <contour>
      <point x="0" y="708" type="line"/>
      <point x="254" y="215" type="line"/>
      <point x="254" y="0" type="line"/>
      <point x="476" y="0" type="line"/>
      <point x="476" y="215" type="line"/>
      <point x="730" y="708" type="line"/>
      <point x="480" y="708" type="line"/>
      <point x="327" y="368" type="line"/>
      <point x="407" y="368" type="line"/>
      <point x="254" y="708" type="line"/>
    </contour>
  </outline>
</glyph>
<glyph name="Z" format="2">
  <advance width="630"/>
  <unicode hex="005A"/>
  <anchor x="315" y="711" name="top"/>
  <outline>
    <contour>
      <point x="580" y="541" type="line"/>
      <point x="580" y="708" type="line"/>
      <point x="50" y="708" type="line"/>
      <point x="50" y="532" type="line"/>
      <point x="330" y="532" type="line"/>
      <point x="50" y="167" type="line"/>
      <point x="50" y="0" type="line"/>
      <point x="580" y="0" type="line"/>
      <point x="580" y="177" type="line"/>
      <point x="296" y="177" type="line"/>
    </contour>
  </outline>
</glyph>
<glyph name="bracketleft" format="2">
  <advance width="533"/>
  <unicode hex="005B"/>
  <outline>
    <contour>
      <point x="95" y="895" type="line"/>
      <point x="95" y="-229" type="line"/>
      <point x="477" y="-229" type="line"/>
      <point x="477" y="-51" type="line"/>
      <point x="303" y="-51" type="line"/>
      <point x="303" y="717" type="line"/>
      <point x="477" y="717" type="line"/>
      <point x="477" y="895" type="line"/>
    </contour>
  </outline>
</glyph>
<glyph name="backslash" format="2">
  <advance width="878"/>
  <unicode hex="005C"/>
  <outline>
    <contour>
      <point x="652" y="-198" type="line"/>
      <point x="412" y="955" type="line"/>
      <point x="200" y="955" type="line"/>
      <point x="440" y="-198" type="line"/>
    </contour>
  </outline>
</glyph>
<glyph name="bracketright" format="2">
  <advance width="533"/>
  <unicode hex="005D"/>
  <outline>
    <contour>
      <point x="438" y="895" type="line"/>
      <point x="56" y="895" type="line"/>
      <point x="56" y="717" type="line"/>
      <point x="230" y="717" type="line"/>
      <point x="230" y="-51" type="line"/>
      <point x="56" y="-51" type="line"/>
      <point x="56" y="-229" type="line"/>
      <point x="438" y="-229" type="line"/>
    </contour>
  </outline>
</glyph>
<glyph name="asciicircum" format="2">
  <advance width="758"/>
  <unicode hex="005E"/>
  <outline>
    <contour>
      <point x="380" y="460" type="line"/>
      <point x="513" y="162" type="line"/>
      <point x="733" y="162" type="line"/>
      <point x="489" y="711" type="line"/>
      <point x="271" y="711" type="line"/>
      <point x="25" y="162" type="line"/>
      <point x="245" y="162" type="line"/>
    </contour>
  </outline>
</glyph>
<glyph name="grave" format="2">
  <advance width="324"/>
  <unicode hex="0060"/>
  <anchor x="141" y="564" name="_top"/>
  <outline>
    <contour>
      <point x="10" y="860" type="line"/>
      <point x="10" y="696" type="line"/>
      <point x="269" y="602" type="line"/>
      <point x="269" y="750" type="line"/>
    </contour>
  </outline>
</glyph>
<glyph name="a" format="2">
  <advance width="680"/>
  <unicode hex="0061"/>
  <anchor x="630" y="0" name="ogonek"/>
  <anchor x="347" y="564" name="top"/>
  <outline>
    <contour>
      <point x="20" y="464"/>
      <point x="20" y="282" type="curve"/>
      <point x="20" y="100"/>
      <point x="123" y="-7"/>
      <point x="253" y="-7" type="curve"/>
      <point x="328" y="-7"/>
      <point x="382" y="26"/>
      <point x="409" y="77" type="curve"/>
      <point x="409" y="0" type="line"/>
      <point x="630" y="0" type="line"/>
      <point x="630" y="564" type="line"/>
      <point x="409" y="564" type="line"/>
      <point x="409" y="487" type="line"/>
      <point x="382" y="538"/>
      <point x="328" y="571"/>
      <point x="253" y="571" type="curve"/>
      <point x="123" y="571"/>
    </contour>
    <contour>
      <point x="409" y="344"/>
      <point x="409" y="282" type="curve"/>
      <point x="409" y="220"/>
      <point x="373" y="187"/>
      <point x="327" y="187" type="curve"/>
      <point x="281" y="187"/>
      <point x="245" y="220"/>
      <point x="245" y="282" type="curve"/>
      <point x="245" y="344"/>
      <point x="281" y="377"/>
      <point x="327" y="377" type="curve"/>
      <point x="373" y="377"/>
    </contour>
  </outline>
</glyph>
<glyph name="c" format="2">
  <advance width="609"/>
  <unicode hex="0063"/>
  <anchor x="299" y="0" name="bottom"/>
  <anchor x="299" y="564" name="top"/>
  <outline>
    <contour>
      <point x="20" y="462"/>
      <point x="20" y="282" type="curve"/>
      <point x="20" y="102"/>
      <point x="139" y="-7"/>
      <point x="308" y="-7" type="curve" smooth="yes"/>
      <point x="453" y="-7"/>
      <point x="562" y="79"/>
      <point x="589" y="227" type="curve"/>
      <point x="354" y="227" type="line"/>
      <point x="346" y="200"/>
      <point x="331" y="183"/>
      <point x="303" y="183" type="curve" smooth="yes"/>
      <point x="269" y="183"/>
      <point x="245" y="214"/>
      <point x="245" y="282" type="curve"/>
      <point x="245" y="350"/>
      <point x="269" y="381"/>
      <point x="303" y="381" type="curve" smooth="yes"/>
      <point x="331" y="381"/>
      <point x="346" y="364"/>
      <point x="354" y="337" type="curve"/>
      <point x="589" y="337" type="line"/>
      <point x="562" y="485"/>
      <point x="453" y="571"/>
      <point x="308" y="571" type="curve" smooth="yes"/>
      <point x="139" y="571"/>
    </contour>
  </outline>
</glyph>
<glyph name="d" format="2">
  <advance width="680"/>
  <unicode hex="0064"/>
  <anchor x="630" y="740" name="topright"/>
  <outline>
    <contour>
      <point x="20" y="464"/>
      <point x="20" y="282" type="curve"/>
      <point x="20" y="100"/>
      <point x="123" y="-7"/>
      <point x="253" y="-7" type="curve"/>
      <point x="328" y="-7"/>
      <point x="381" y="26"/>
      <point x="408" y="77" type="curve"/>
      <point x="408" y="0" type="line"/>
      <point x="630" y="0" type="line"/>
      <point x="630" y="740" type="line"/>
      <point x="408" y="740" type="line"/>
      <point x="408" y="487" type="line"/>
      <point x="381" y="538"/>
      <point x="328" y="571"/>
      <point x="253" y="571" type="curve"/>
      <point x="123" y="571"/>
    </contour>
    <contour>
      <point x="409" y="344"/>
      <point x="409" y="282" type="curve"/>
      <point x="409" y="220"/>
      <point x="373" y="187"/>
      <point x="327" y="187" type="curve"/>
      <point x="281" y="187"/>
      <point x="245" y="220"/>
      <point x="245" y="282" type="curve"/>
      <point x="245" y="344"/>
      <point x="281" y="377"/>
      <point x="327" y="377" type="curve"/>
      <point x="373" y="377"/>
    </contour>
  </outline>
</glyph>
<glyph name="e" format="2">
  <advance width="616"/>
  <unicode hex="0065"/>
  <guideline x="789" y="-221" angle="0"/>
  <anchor x="308" y="-7" name="bottom"/>
  <anchor x="403" y="8" name="ogonek"/>
  <anchor x="308" y="571" name="top"/>
  <outline>
    <contour>
      <point x="216" y="340" type="line"/>
      <point x="216" y="243" type="line"/>
      <point x="593" y="243" type="line"/>
      <point x="595" y="257"/>
      <point x="596" y="273"/>
      <point x="596" y="287" type="curve"/>
      <point x="596" y="464"/>
      <point x="477" y="571"/>
      <point x="308" y="571" type="curve"/>
      <point x="139" y="571"/>
      <point x="20" y="462"/>
      <point x="20" y="282" type="curve"/>
      <point x="20" y="102"/>
      <point x="139" y="-7"/>
      <point x="308" y="-7" type="curve" smooth="yes"/>
      <point x="450" y="-7"/>
      <point x="560" y="83"/>
      <point x="584" y="203" type="curve"/>
      <point x="349" y="203" type="line"/>
      <point x="341" y="186"/>
      <point x="326" y="170"/>
      <point x="297" y="170" type="curve" smooth="yes"/>
      <point x="264" y="170"/>
      <point x="236" y="189"/>
      <point x="236" y="258" type="curve" smooth="yes"/>
      <point x="236" y="311" type="line" smooth="yes"/>
      <point x="236" y="370"/>
      <point x="263" y="397"/>
      <point x="308" y="397" type="curve"/>
      <point x="341" y="397"/>
      <point x="371" y="379"/>
      <point x="371" y="340" type="curve"/>
    </contour>
  </outline>
</glyph>
<glyph name="f" format="2">
  <advance width="385"/>
  <unicode hex="0066"/>
  <outline>
    <contour>
      <point x="70" y="559" type="curve" smooth="yes"/>
      <point x="70" y="0" type="line"/>
      <point x="292" y="0" type="line"/>
      <point x="292" y="539" type="line" smooth="yes"/>
      <point x="292" y="595"/>
      <point x="314" y="611"/>
      <point x="375" y="604" type="curve"/>
      <point x="375" y="793" type="line"/>
      <point x="182" y="810"/>
      <point x="70" y="722"/>
    </contour>
    <contour>
      <point x="10" y="564" type="line"/>
      <point x="10" y="379" type="line"/>
      <point x="375" y="379" type="line"/>
      <point x="375" y="564" type="line"/>
    </contour>
  </outline>
</glyph>
<glyph name="g" format="2">
  <advance width="680"/>
  <unicode hex="0067"/>
  <anchor x="347" y="564" name="top"/>
  <outline>
    <contour>
      <point x="253" y="571" type="curve"/>
      <point x="123" y="571"/>
      <point x="20" y="464"/>
      <point x="20" y="282" type="curve"/>
      <point x="20" y="100"/>
      <point x="123" y="-7"/>
      <point x="253" y="-7" type="curve"/>
      <point x="328" y="-7"/>
      <point x="382" y="26"/>
      <point x="409" y="77" type="curve"/>
      <point x="409" y="10" type="line"/>
      <point x="409" y="-69"/>
      <point x="371" y="-85"/>
      <point x="326" y="-85" type="curve" smooth="yes"/>
      <point x="285" y="-85"/>
      <point x="260" y="-70"/>
      <point x="254" y="-41" type="curve"/>
      <point x="36" y="-41" type="line"/>
      <point x="51" y="-184"/>
      <point x="158" y="-277"/>
      <point x="342" y="-277" type="curve" smooth="yes"/>
      <point x="553" y="-277"/>
      <point x="630" y="-139"/>
      <point x="630" y="10" type="curve"/>
      <point x="630" y="564" type="line"/>
      <point x="409" y="564" type="line"/>
      <point x="409" y="487" type="line"/>
      <point x="382" y="538"/>
      <point x="328" y="571"/>
    </contour>
    <contour>
      <point x="409" y="344"/>
      <point x="409" y="282" type="curve"/>
      <point x="409" y="220"/>
      <point x="373" y="187"/>
      <point x="327" y="187" type="curve"/>
      <point x="281" y="187"/>
      <point x="245" y="220"/>
      <point x="245" y="282" type="curve"/>
      <point x="245" y="344"/>
      <point x="281" y="377"/>
      <point x="327" y="377" type="curve"/>
      <point x="373" y="377"/>
    </contour>
  </outline>
</glyph>
<glyph name="h" format="2">
  <advance width="697"/>
  <unicode hex="0068"/>
  <outline>
    <contour>
      <point x="50" y="740" type="line"/>
      <point x="50" y="0" type="line"/>
      <point x="272" y="0" type="line"/>
      <point x="272" y="740" type="line"/>
    </contour>
    <contour>
      <point x="430" y="299" type="curve" smooth="yes"/>
      <point x="430" y="0" type="line"/>
      <point x="651" y="0" type="line"/>
      <point x="651" y="327" type="line" smooth="yes"/>
      <point x="651" y="473"/>
      <point x="575" y="568"/>
      <point x="445" y="568" type="curve" smooth="yes"/>
      <point x="345" y="568"/>
      <point x="284" y="511"/>
      <point x="257" y="451" type="curve"/>
      <point x="272" y="299" type="line"/>
      <point x="272" y="353"/>
      <point x="302" y="386"/>
      <point x="351" y="386" type="curve" smooth="yes"/>
      <point x="399" y="386"/>
      <point x="430" y="353"/>
    </contour>
  </outline>
</glyph>
<glyph name="i" format="2">
  <advance width="322"/>
  <unicode hex="0069"/>
  <anchor x="272" y="-1" name="ogonek"/>
  <outline>
    <contour>
      <point x="50" y="564" type="line"/>
      <point x="50" y="0" type="line"/>
      <point x="272" y="0" type="line"/>
      <point x="272" y="564" type="line"/>
    </contour>
    <contour>
      <point x="83" y="609"/>
      <point x="162" y="609" type="curve" smooth="yes"/>
      <point x="240" y="609"/>
      <point x="289" y="657"/>
      <point x="289" y="718" type="curve" smooth="yes"/>
      <point x="289" y="780"/>
      <point x="240" y="829"/>
      <point x="162" y="829" type="curve" smooth="yes"/>
      <point x="83" y="829"/>
      <point x="34" y="780"/>
      <point x="34" y="718" type="curve" smooth="yes"/>
      <point x="34" y="657"/>
    </contour>
  </outline>
</glyph>
<glyph name="j" format="2">
  <advance width="320"/>
  <unicode hex="006A"/>
  <outline>
    <contour>
      <point x="81" y="609"/>
      <point x="160" y="609" type="curve" smooth="yes"/>
      <point x="238" y="609"/>
      <point x="287" y="657"/>
      <point x="287" y="718" type="curve" smooth="yes"/>
      <point x="287" y="780"/>
      <point x="238" y="829"/>
      <point x="160" y="829" type="curve" smooth="yes"/>
      <point x="81" y="829"/>
      <point x="32" y="780"/>
      <point x="32" y="718" type="curve" smooth="yes"/>
      <point x="32" y="657"/>
    </contour>
    <contour>
      <point x="272" y="564" type="line"/>
      <point x="50" y="564" type="line"/>
      <point x="50" y="-43" type="line" smooth="yes"/>
      <point x="50" y="-69"/>
      <point x="38" y="-81"/>
      <point x="9" y="-81" type="curve" smooth="yes"/>
      <point x="-34" y="-81" type="line"/>
      <point x="-34" y="-270" type="line"/>
      <point x="40" y="-270" type="line" smooth="yes"/>
      <point x="172" y="-270"/>
      <point x="272" y="-214"/>
      <point x="272" y="-39" type="curve" smooth="yes"/>
    </contour>
  </outline>
</glyph>
<glyph name="k" format="2">
  <advance width="676"/>
  <unicode hex="006B"/>
  <anchor x="347" y="0" name="bottom"/>
  <outline>
    <contour>
      <point x="50" y="740" type="line"/>
      <point x="50" y="0" type="line"/>
      <point x="272" y="0" type="line"/>
      <point x="272" y="740" type="line"/>
    </contour>
    <contour>
      <point x="413" y="564" type="line"/>
      <point x="231" y="291" type="line"/>
      <point x="411" y="0" type="line"/>
      <point x="676" y="0" type="line"/>
      <point x="446" y="298" type="line"/>
      <point x="453" y="271" type="line"/>
      <point x="671" y="564" type="line"/>
    </contour>
  </outline>
</glyph>
<glyph name="l" format="2">
  <advance width="322"/>
  <unicode hex="006C"/>
  <anchor x="162" y="0" name="bottom"/>
  <anchor x="162" y="10" name="commaaccent"/>
  <anchor x="162" y="740" name="top"/>
  <anchor x="327" y="564" name="topright"/>
  <outline>
    <contour>
      <point x="50" y="740" type="line"/>
      <point x="50" y="0" type="line"/>
      <point x="272" y="0" type="line"/>
      <point x="272" y="740" type="line"/>
    </contour>
  </outline>
</glyph>
<glyph name="m" format="2">
  <advance width="1076"/>
  <unicode hex="006D"/>
  <outline>
    <contour>
      <point x="50" y="564" type="line"/>
      <point x="50" y="0" type="line"/>
      <point x="272" y="0" type="line"/>
      <point x="272" y="564" type="line"/>
    </contour>
    <contour>
      <point x="430" y="299" type="curve" smooth="yes"/>
      <point x="430" y="0" type="line"/>
      <point x="651" y="0" type="line"/>
      <point x="651" y="327" type="line" smooth="yes"/>
      <point x="651" y="473"/>
      <point x="566" y="568"/>
      <point x="435" y="568" type="curve" smooth="yes"/>
      <point x="340" y="568"/>
      <point x="282" y="516"/>
      <point x="257" y="461" type="curve"/>
      <point x="272" y="299" type="line"/>
      <point x="272" y="347"/>
      <point x="302" y="376"/>
      <point x="351" y="376" type="curve" smooth="yes"/>
      <point x="399" y="376"/>
      <point x="430" y="347"/>
    </contour>
    <contour>
      <point x="809" y="299" type="curve" smooth="yes"/>
      <point x="809" y="0" type="line"/>
      <point x="1030" y="0" type="line"/>
      <point x="1030" y="327" type="line" smooth="yes"/>
      <point x="1030" y="473"/>
      <point x="949" y="568"/>
      <point x="803" y="568" type="curve" smooth="yes"/>
      <point x="701" y="568"/>
      <point x="627" y="497"/>
      <point x="595" y="427" type="curve"/>
      <point x="651" y="299" type="line"/>
      <point x="651" y="347"/>
      <point x="681" y="376"/>
      <point x="730" y="376" type="curve" smooth="yes"/>
      <point x="778" y="376"/>
      <point x="809" y="347"/>
    </contour>
  </outline>
</glyph>
<glyph name="n" format="2">
  <advance width="697"/>
  <unicode hex="006E"/>
  <anchor x="348" y="0" name="bottom"/>
  <anchor x="384" y="564" name="top"/>
  <outline>
    <contour>
      <point x="50" y="564" type="line"/>
      <point x="50" y="0" type="line"/>
      <point x="272" y="0" type="line"/>
      <point x="272" y="564" type="line"/>
    </contour>
    <contour>
      <point x="430" y="299" type="curve" smooth="yes"/>
      <point x="430" y="0" type="line"/>
      <point x="651" y="0" type="line"/>
      <point x="651" y="327" type="line" smooth="yes"/>
      <point x="651" y="473"/>
      <point x="575" y="568"/>
      <point x="445" y="568" type="curve" smooth="yes"/>
      <point x="345" y="568"/>
      <point x="284" y="511"/>
      <point x="257" y="451" type="curve"/>
      <point x="272" y="299" type="line"/>
      <point x="272" y="353"/>
      <point x="302" y="386"/>
      <point x="351" y="386" type="curve" smooth="yes"/>
      <point x="399" y="386"/>
      <point x="430" y="353"/>
    </contour>
  </outline>
</glyph>
<glyph name="o" format="2">
  <advance width="636"/>
  <unicode hex="006F"/>
  <anchor x="343" y="564" name="top"/>
  <outline>
    <contour>
      <point x="318" y="-7" type="curve"/>
      <point x="488" y="-7"/>
      <point x="616" y="102"/>
      <point x="616" y="282" type="curve"/>
      <point x="616" y="462"/>
      <point x="488" y="571"/>
      <point x="318" y="571" type="curve"/>
      <point x="148" y="571"/>
      <point x="20" y="462"/>
      <point x="20" y="282" type="curve"/>
      <point x="20" y="102"/>
      <point x="148" y="-7"/>
    </contour>
    <contour>
      <point x="318" y="185" type="curve"/>
      <point x="278" y="185"/>
      <point x="245" y="215"/>
      <point x="245" y="282" type="curve"/>
      <point x="245" y="349"/>
      <point x="279" y="379"/>
      <point x="318" y="379" type="curve"/>
      <point x="357" y="379"/>
      <point x="391" y="349"/>
      <point x="391" y="282" type="curve"/>
      <point x="391" y="215"/>
      <point x="357" y="185"/>
    </contour>
  </outline>
</glyph>
<glyph name="p" format="2">
  <advance width="680"/>
  <unicode hex="0070"/>
  <outline>
    <contour>
      <point x="299" y="538"/>
      <point x="272" y="487" type="curve"/>
      <point x="272" y="564" type="line"/>
      <point x="50" y="564" type="line"/>
      <point x="50" y="-270" type="line"/>
      <point x="272" y="-270" type="line"/>
      <point x="272" y="77" type="line"/>
      <point x="299" y="26"/>
      <point x="352" y="-7"/>
      <point x="427" y="-7" type="curve"/>
      <point x="557" y="-7"/>
      <point x="660" y="100"/>
      <point x="660" y="282" type="curve"/>
      <point x="660" y="464"/>
      <point x="557" y="571"/>
      <point x="427" y="571" type="curve"/>
      <point x="352" y="571"/>
    </contour>
    <contour>
      <point x="435" y="344"/>
      <point x="435" y="282" type="curve"/>
      <point x="435" y="220"/>
      <point x="399" y="187"/>
      <point x="353" y="187" type="curve"/>
      <point x="307" y="187"/>
      <point x="271" y="220"/>
      <point x="271" y="282" type="curve"/>
      <point x="271" y="344"/>
      <point x="307" y="377"/>
      <point x="353" y="377" type="curve"/>
      <point x="399" y="377"/>
    </contour>
  </outline>
</glyph>
<glyph name="q" format="2">
  <advance width="680"/>
  <unicode hex="0071"/>
  <outline>
    <contour>
      <point x="20" y="448"/>
      <point x="20" y="278" type="curve" smooth="yes"/>
      <point x="20" y="108"/>
      <point x="136" y="-6"/>
      <point x="269" y="-6" type="curve" smooth="yes"/>
      <point x="327" y="-6"/>
      <point x="369" y="16"/>
      <point x="409" y="62" type="curve"/>
      <point x="409" y="-270" type="line"/>
      <point x="630" y="-270" type="line"/>
      <point x="630" y="564" type="line"/>
      <point x="409" y="564" type="line"/>
      <point x="409" y="514" type="line"/>
      <point x="372" y="554"/>
      <point x="327" y="568"/>
      <point x="269" y="568" type="curve" smooth="yes"/>
      <point x="136" y="568"/>
    </contour>
    <contour>
      <point x="409" y="354"/>
      <point x="409" y="282" type="curve" smooth="yes"/>
      <point x="409" y="210"/>
      <point x="360" y="187"/>
      <point x="327" y="187" type="curve" smooth="yes"/>
      <point x="294" y="187"/>
      <point x="245" y="206"/>
      <point x="245" y="278" type="curve" smooth="yes"/>
      <point x="245" y="350"/>
      <point x="294" y="376"/>
      <point x="327" y="376" type="curve" smooth="yes"/>
      <point x="360" y="376"/>
    </contour>
  </outline>
</glyph>
<glyph name="r" format="2">
  <advance width="467"/>
  <unicode hex="0072"/>
  <anchor x="155" y="0" name="bottom"/>
  <anchor x="275" y="564" name="top"/>
  <outline>
    <contour>
      <point x="217" y="291" type="curve"/>
      <point x="272" y="231" type="line"/>
      <point x="272" y="308"/>
      <point x="314" y="331"/>
      <point x="394" y="331" type="curve" smooth="yes"/>
      <point x="457" y="331" type="line"/>
      <point x="457" y="568" type="line"/>
      <point x="327" y="568"/>
      <point x="217" y="428"/>
    </contour>
    <contour>
      <point x="50" y="564" type="line"/>
      <point x="50" y="0" type="line"/>
      <point x="272" y="0" type="line"/>
      <point x="272" y="564" type="line"/>
    </contour>
  </outline>
</glyph>
<glyph name="s" format="2">
  <advance width="579"/>
  <unicode hex="0073"/>
  <anchor x="302" y="0" name="bottom"/>
  <anchor x="302" y="564" name="top"/>
  <outline>
    <contour>
      <point x="301" y="-7" type="curve"/>
      <point x="451" y="-7"/>
      <point x="541" y="69"/>
      <point x="541" y="169" type="curve"/>
      <point x="541" y="386"/>
      <point x="246" y="321"/>
      <point x="246" y="391" type="curve"/>
      <point x="246" y="408"/>
      <point x="259" y="417"/>
      <point x="281" y="417" type="curve"/>
      <point x="317" y="417"/>
      <point x="339" y="399"/>
      <point x="345" y="369" type="curve"/>
      <point x="542" y="369" type="line"/>
      <point x="526" y="480"/>
      <point x="447" y="571"/>
      <point x="286" y="571" type="curve"/>
      <point x="127" y="571"/>
      <point x="46" y="487"/>
      <point x="46" y="385" type="curve"/>
      <point x="46" y="178"/>
      <point x="337" y="246"/>
      <point x="337" y="172" type="curve"/>
      <point x="337" y="158"/>
      <point x="323" y="146"/>
      <point x="300" y="146" type="curve" smooth="yes"/>
      <point x="266" y="146"/>
      <point x="239" y="161"/>
      <point x="234" y="195" type="curve"/>
      <point x="21" y="195" type="line"/>
      <point x="31" y="80"/>
      <point x="138" y="-7"/>
    </contour>
  </outline>
</glyph>
<glyph name="t" format="2">
  <advance width="436"/>
  <unicode hex="0074"/>
  <anchor x="227" y="0" name="bottom"/>
  <anchor x="283" y="942" name="topright"/>
  <outline>
    <contour>
      <point x="85" y="700" type="line"/>
      <point x="85" y="231" type="line" smooth="yes"/>
      <point x="85" y="56"/>
      <point x="185" y="0"/>
      <point x="317" y="0" type="curve" smooth="yes"/>
      <point x="401" y="0" type="line"/>
      <point x="401" y="189" type="line"/>
      <point x="348" y="189" type="line" smooth="yes"/>
      <point x="319" y="189"/>
      <point x="307" y="201"/>
      <point x="307" y="227" type="curve" smooth="yes"/>
      <point x="307" y="700" type="line"/>
    </contour>
    <contour>
      <point x="15" y="379" type="line"/>
      <point x="399" y="379" type="line"/>
      <point x="399" y="564" type="line"/>
      <point x="15" y="564" type="line"/>
    </contour>
  </outline>
</glyph>
<glyph name="u" format="2">
  <advance width="697"/>
  <unicode hex="0075"/>
  <anchor x="647" y="-3" name="ogonek"/>
  <anchor x="349" y="564" name="top"/>
  <outline>
    <contour>
      <point x="647" y="0" type="line"/>
      <point x="647" y="564" type="line"/>
      <point x="425" y="564" type="line"/>
      <point x="425" y="0" type="line"/>
    </contour>
    <contour>
      <point x="267" y="265" type="curve" smooth="yes"/>
      <point x="267" y="564" type="line"/>
      <point x="46" y="564" type="line"/>
      <point x="46" y="237" type="line" smooth="yes"/>
      <point x="46" y="91"/>
      <point x="122" y="-4"/>
      <point x="252" y="-4" type="curve" smooth="yes"/>
      <point x="352" y="-4"/>
      <point x="413" y="53"/>
      <point x="440" y="113" type="curve"/>
      <point x="425" y="265" type="line"/>
      <point x="425" y="211"/>
      <point x="395" y="178"/>
      <point x="346" y="178" type="curve" smooth="yes"/>
      <point x="298" y="178"/>
      <point x="267" y="211"/>
    </contour>
  </outline>
</glyph>
<glyph name="v" format="2">
  <advance width="671"/>
  <unicode hex="0076"/>
  <outline>
    <contour>
      <point x="245" y="564" type="line"/>
      <point x="9" y="564" type="line"/>
      <point x="197" y="0" type="line"/>
      <point x="474" y="0" type="line"/>
      <point x="662" y="564" type="line"/>
      <point x="426" y="564" type="line"/>
      <point x="336" y="211" type="line"/>
    </contour>
  </outline>
</glyph>
<glyph name="w" format="2">
  <advance width="903"/>
  <unicode hex="0077"/>
  <outline>
    <contour>
      <point x="-1" y="564" type="line"/>
      <point x="132" y="0" type="line"/>
      <point x="382" y="0" type="line"/>
      <point x="474" y="409" type="line"/>
      <point x="434" y="409" type="line"/>
      <point x="522" y="0" type="line"/>
      <point x="772" y="0" type="line"/>
      <point x="906" y="564" type="line"/>
      <point x="701" y="564" type="line"/>
      <point x="633" y="72" type="line"/>
      <point x="685" y="72" type="line"/>
      <point x="576" y="564" type="line"/>
      <point x="339" y="564" type="line"/>
      <point x="235" y="72" type="line"/>
      <point x="287" y="72" type="line"/>
      <point x="219" y="564" type="line"/>
    </contour>
  </outline>
</glyph>
<glyph name="x" format="2">
  <advance width="668"/>
  <unicode hex="0078"/>
  <outline>
    <contour>
      <point x="0" y="564" type="line"/>
      <point x="420" y="0" type="line"/>
      <point x="668" y="0" type="line"/>
      <point x="248" y="564" type="line"/>
    </contour>
    <contour>
      <point x="373" y="213" type="line"/>
      <point x="249" y="375" type="line"/>
      <point x="10" y="0" type="line"/>
      <point x="254" y="0" type="line"/>
    </contour>
    <contour>
      <point x="306" y="371" type="line"/>
      <point x="420" y="209" type="line"/>
      <point x="659" y="564" type="line"/>
      <point x="415" y="564" type="line"/>
    </contour>
  </outline>
</glyph>
<glyph name="y" format="2">
  <advance width="677"/>
  <unicode hex="0079"/>
  <anchor x="339" y="564" name="top"/>
  <outline>
    <contour>
      <point x="442" y="564" type="line"/>
      <point x="343" y="278" type="line"/>
      <point x="237" y="564" type="line"/>
      <point x="-10" y="564" type="line"/>
      <point x="225" y="28" type="line"/>
      <point x="83" y="-270" type="line"/>
      <point x="326" y="-270" type="line"/>
      <point x="687" y="564" type="line"/>
    </contour>
  </outline>
</glyph>
<glyph name="z" format="2">
  <advance width="518"/>
  <unicode hex="007A"/>
  <anchor x="266" y="564" name="top"/>
  <outline>
    <contour>
      <point x="488" y="390" type="line"/>
      <point x="488" y="564" type="line"/>
      <point x="23" y="564" type="line"/>
      <point x="23" y="380" type="line"/>
      <point x="235" y="380" type="line"/>
      <point x="20" y="174" type="line"/>
      <point x="20" y="0" type="line"/>
      <point x="498" y="0" type="line"/>
      <point x="498" y="184" type="line"/>
      <point x="263" y="184" type="line"/>
    </contour>
  </outline>
</glyph>
<glyph name="braceleft" format="2">
  <advance width="484"/>
  <unicode hex="007B"/>
  <outline>
    <contour>
      <point x="60" y="242" type="line"/>
      <point x="130" y="242"/>
      <point x="152" y="216"/>
      <point x="152" y="178" type="curve" smooth="yes"/>
      <point x="152" y="129"/>
      <point x="127" y="46"/>
      <point x="127" y="-24" type="curve" smooth="yes"/>
      <point x="127" y="-158"/>
      <point x="217" y="-231"/>
      <point x="354" y="-231" type="curve" smooth="yes"/>
      <point x="430" y="-231" type="line"/>
      <point x="430" y="-54" type="line"/>
      <point x="396" y="-54" type="line" smooth="yes"/>
      <point x="352" y="-54"/>
      <point x="337" y="-33"/>
      <point x="337" y="0" type="curve" smooth="yes"/>
      <point x="337" y="41"/>
      <point x="355" y="131"/>
      <point x="355" y="187" type="curve" smooth="yes"/>
      <point x="355" y="263"/>
      <point x="321" y="317"/>
      <point x="247" y="331" type="curve"/>
      <point x="247" y="333" type="line"/>
      <point x="321" y="347"/>
      <point x="355" y="401"/>
      <point x="355" y="477" type="curve" smooth="yes"/>
      <point x="355" y="533"/>
      <point x="337" y="623"/>
      <point x="337" y="664" type="curve" smooth="yes"/>
      <point x="337" y="697"/>
      <point x="352" y="718"/>
      <point x="396" y="718" type="curve" smooth="yes"/>
      <point x="430" y="718" type="line"/>
      <point x="430" y="895" type="line"/>
      <point x="354" y="895" type="line" smooth="yes"/>
      <point x="217" y="895"/>
      <point x="127" y="822"/>
      <point x="127" y="688" type="curve" smooth="yes"/>
      <point x="127" y="618"/>
      <point x="152" y="535"/>
      <point x="152" y="486" type="curve" smooth="yes"/>
      <point x="152" y="444"/>
      <point x="130" y="423"/>
      <point x="60" y="423" type="curve"/>
    </contour>
  </outline>
</glyph>
<glyph name="bar" format="2">
  <advance width="262"/>
  <unicode hex="007C"/>
  <outline>
    <contour>
      <point x="242" y="828" type="line"/>
      <point x="20" y="828" type="line"/>
      <point x="20" y="-144" type="line"/>
      <point x="242" y="-144" type="line"/>
    </contour>
  </outline>
</glyph>
<glyph name="braceright" format="2">
  <advance width="484"/>
  <unicode hex="007D"/>
  <outline>
    <contour>
      <point x="424" y="242" type="curve"/>
      <point x="424" y="423" type="line"/>
      <point x="354" y="423"/>
      <point x="332" y="444"/>
      <point x="332" y="486" type="curve" smooth="yes"/>
      <point x="332" y="535"/>
      <point x="357" y="618"/>
      <point x="357" y="688" type="curve" smooth="yes"/>
      <point x="357" y="822"/>
      <point x="267" y="895"/>
      <point x="130" y="895" type="curve" smooth="yes"/>
      <point x="54" y="895" type="line"/>
      <point x="54" y="718" type="line"/>
      <point x="88" y="718" type="line" smooth="yes"/>
      <point x="132" y="718"/>
      <point x="147" y="697"/>
      <point x="147" y="664" type="curve" smooth="yes"/>
      <point x="147" y="623"/>
      <point x="129" y="533"/>
      <point x="129" y="477" type="curve" smooth="yes"/>
      <point x="129" y="401"/>
      <point x="163" y="347"/>
      <point x="237" y="333" type="curve"/>
      <point x="237" y="331" type="line"/>
      <point x="163" y="317"/>
      <point x="129" y="263"/>
      <point x="129" y="187" type="curve" smooth="yes"/>
      <point x="129" y="131"/>
      <point x="147" y="41"/>
      <point x="147" y="0" type="curve" smooth="yes"/>
      <point x="147" y="-33"/>
      <point x="132" y="-54"/>
      <point x="88" y="-54" type="curve" smooth="yes"/>
      <point x="54" y="-54" type="line"/>
      <point x="54" y="-231" type="line"/>
      <point x="130" y="-231" type="line" smooth="yes"/>
      <point x="267" y="-231"/>
      <point x="357" y="-158"/>
      <point x="357" y="-24" type="curve" smooth="yes"/>
      <point x="357" y="46"/>
      <point x="332" y="129"/>
      <point x="332" y="178" type="curve" smooth="yes"/>
      <point x="332" y="216"/>
      <point x="354" y="242"/>
    </contour>
  </outline>
</glyph>
<glyph name="asciitilde" format="2">
  <advance width="711"/>
  <unicode hex="007E"/>
  <outline>
    <contour>
      <point x="50" y="369"/>
      <point x="20" y="181" type="curve"/>
      <point x="184" y="181" type="line"/>
      <point x="192" y="230"/>
      <point x="208" y="250"/>
      <point x="244" y="250" type="curve" smooth="yes"/>
      <point x="303" y="250"/>
      <point x="359" y="183"/>
      <point x="455" y="183" type="curve" smooth="yes"/>
      <point x="571" y="183"/>
      <point x="662" y="259"/>
      <point x="691" y="447" type="curve"/>
      <point x="525" y="447" type="line"/>
      <point x="518" y="397"/>
      <point x="502" y="378"/>
      <point x="466" y="378" type="curve" smooth="yes"/>
      <point x="408" y="378"/>
      <point x="351" y="445"/>
      <point x="255" y="445" type="curve" smooth="yes"/>
      <point x="139" y="445"/>
    </contour>
  </outline>
</glyph>
<glyph name="cent" format="2">
  <advance width="579.006"/>
  <unicode hex="00A2"/>
  <outline>
    <contour>
      <point x="255" y="337"/>
      <point x="301" y="337" type="curve" smooth="yes"/>
      <point x="321" y="337"/>
      <point x="346" y="329"/>
      <point x="356" y="302" type="curve"/>
      <point x="559" y="302" type="line"/>
      <point x="550" y="443"/>
      <point x="429" y="514"/>
      <point x="300" y="514" type="curve" smooth="yes"/>
      <point x="131" y="514"/>
      <point x="20" y="423"/>
      <point x="20" y="254" type="curve"/>
      <point x="20" y="83"/>
      <point x="131" y="-8"/>
      <point x="300" y="-8" type="curve" smooth="yes"/>
      <point x="429" y="-8"/>
      <point x="550" y="64"/>
      <point x="559" y="205" type="curve"/>
      <point x="356" y="205" type="line"/>
      <point x="350" y="180"/>
      <point x="321" y="170"/>
      <point x="301" y="170" type="curve" smooth="yes"/>
      <point x="255" y="170"/>
      <point x="232" y="201"/>
      <point x="232" y="253" type="curve"/>
      <point x="232" y="305"/>
    </contour>
    <contour>
      <point x="264" y="589" type="line"/>
      <point x="264" y="364" type="line"/>
      <point x="326" y="364" type="line"/>
      <point x="326" y="589" type="line"/>
    </contour>
    <contour>
      <point x="264" y="143" type="line"/>
      <point x="264" y="-83" type="line"/>
      <point x="326" y="-83" type="line"/>
      <point x="326" y="143" type="line"/>
    </contour>
  </outline>
</glyph>
<glyph name="sterling" format="2">
  <advance width="679"/>
  <unicode hex="00A3"/>
  <outline>
    <contour>
      <point x="346" y="771" type="curve" smooth="yes"/>
      <point x="197" y="771"/>
      <point x="91" y="690"/>
      <point x="91" y="548" type="curve"/>
      <point x="91" y="440"/>
      <point x="135" y="344"/>
      <point x="135" y="308" type="curve" smooth="yes"/>
      <point x="135" y="211"/>
      <point x="106" y="151"/>
      <point x="36" y="98" type="curve"/>
      <point x="63" y="-6" type="line"/>
      <point x="615" y="-6" type="line"/>
      <point x="615" y="165" type="line"/>
      <point x="280" y="165" type="line"/>
      <point x="334" y="208"/>
      <point x="345" y="277"/>
      <point x="345" y="307" type="curve"/>
      <point x="345" y="379.676"/>
      <point x="302" y="470"/>
      <point x="302" y="522" type="curve"/>
      <point x="302" y="564"/>
      <point x="316" y="591"/>
      <point x="354" y="591" type="curve" smooth="yes"/>
      <point x="390" y="591"/>
      <point x="405" y="566"/>
      <point x="409" y="531" type="curve"/>
      <point x="613" y="531" type="line"/>
      <point x="604" y="669"/>
      <point x="517" y="771"/>
    </contour>
    <contour>
      <point x="492" y="421" type="line"/>
      <point x="31" y="421" type="line"/>
      <point x="31" y="274" type="line"/>
      <point x="492" y="274" type="line"/>
    </contour>
  </outline>
</glyph>
<glyph name="currency" format="2">
  <advance width="603"/>
  <unicode hex="00A4"/>
  <outline>
    <contour>
      <point x="304" y="561" type="curve"/>
      <point x="169" y="561"/>
      <point x="76" y="494"/>
      <point x="76" y="379" type="curve" smooth="yes"/>
      <point x="76" y="265"/>
      <point x="169" y="193"/>
      <point x="304" y="193" type="curve"/>
      <point x="439" y="193"/>
      <point x="532" y="265"/>
      <point x="532" y="379" type="curve" smooth="yes"/>
      <point x="532" y="494"/>
      <point x="439" y="561"/>
    </contour>
    <contour>
      <point x="304" y="436" type="curve"/>
      <point x="334" y="436"/>
      <point x="362" y="421"/>
      <point x="362" y="377" type="curve" smooth="yes"/>
      <point x="362" y="335.313"/>
      <point x="334" y="320"/>
      <point x="304" y="320" type="curve"/>
      <point x="274" y="320"/>
      <point x="246" y="335.313"/>
      <point x="246" y="377" type="curve" smooth="yes"/>
      <point x="246" y="420.609"/>
      <point x="274" y="436"/>
    </contour>
    <contour>
      <point x="163" y="438" type="line"/>
      <point x="260" y="502" type="line"/>
      <point x="140" y="622" type="line"/>
      <point x="60" y="541" type="line"/>
    </contour>
    <contour>
      <point x="344" y="503" type="line"/>
      <point x="421" y="420" type="line"/>
      <point x="543" y="541" type="line"/>
      <point x="463" y="622" type="line"/>
    </contour>
    <contour>
      <point x="440" y="322" type="line"/>
      <point x="353" y="248" type="line"/>
      <point x="463" y="138" type="line"/>
      <point x="543" y="219" type="line"/>
    </contour>
    <contour>
      <point x="274" y="272" type="line"/>
      <point x="170" y="328" type="line"/>
      <point x="60" y="219" type="line"/>
      <point x="140" y="138" type="line"/>
    </contour>
  </outline>
</glyph>
<glyph name="yen" format="2">
  <advance width="730"/>
  <unicode hex="00A5"/>
  <outline>
    <contour>
      <point x="478" y="452" type="line"/>
      <point x="491" y="308" type="line"/>
      <point x="675" y="308" type="line"/>
      <point x="675" y="452" type="line"/>
    </contour>
    <contour>
      <point x="53" y="272" type="line"/>
      <point x="53" y="128" type="line"/>
      <point x="675" y="128" type="line"/>
      <point x="675" y="272" type="line"/>
    </contour>
    <contour>
      <point x="0" y="708" type="line"/>
      <point x="254" y="215" type="line"/>
      <point x="254" y="0" type="line"/>
      <point x="476" y="0" type="line"/>
      <point x="476" y="215" type="line"/>
      <point x="730" y="708" type="line"/>
      <point x="480" y="708" type="line"/>
      <point x="337" y="348" type="line"/>
      <point x="397" y="348" type="line"/>
      <point x="254" y="708" type="line"/>
    </contour>
    <contour>
      <point x="53" y="452" type="line"/>
      <point x="53" y="308" type="line"/>
      <point x="299" y="308" type="line"/>
      <point x="311" y="452" type="line"/>
    </contour>
  </outline>
</glyph>
<glyph name="brokenbar" format="2">
  <advance width="432"/>
  <unicode hex="00A6"/>
  <outline>
    <contour>
      <point x="327" y="287" type="line"/>
      <point x="105" y="287" type="line"/>
      <point x="105" y="-144" type="line"/>
      <point x="327" y="-144" type="line"/>
    </contour>
    <contour>
      <point x="105" y="398" type="line"/>
      <point x="327" y="398" type="line"/>
      <point x="327" y="828" type="line"/>
      <point x="105" y="828" type="line"/>
    </contour>
  </outline>
</glyph>
<glyph name="section" format="2">
  <advance width="595"/>
  <unicode hex="00A7"/>
  <outline>
    <contour>
      <point x="59" y="644"/>
      <point x="59" y="532" type="curve"/>
      <point x="59" y="456"/>
      <point x="101" y="372"/>
      <point x="209" y="321" type="curve"/>
      <point x="239" y="412" type="line"/>
      <point x="63" y="403"/>
      <point x="21" y="325"/>
      <point x="21" y="244" type="curve" smooth="yes"/>
      <point x="21" y="168"/>
      <point x="76" y="107"/>
      <point x="163" y="62" type="curve" smooth="yes"/>
      <point x="274" y="5"/>
      <point x="312" y="-17"/>
      <point x="312" y="-55" type="curve"/>
      <point x="312" y="-72"/>
      <point x="305" y="-79"/>
      <point x="296" y="-79" type="curve"/>
      <point x="286" y="-79"/>
      <point x="274" y="-70"/>
      <point x="272" y="-25" type="curve"/>
      <point x="53" y="-25" type="line"/>
      <point x="63" y="-145"/>
      <point x="142" y="-235"/>
      <point x="291" y="-235" type="curve"/>
      <point x="449" y="-235"/>
      <point x="536" y="-156"/>
      <point x="536" y="-44" type="curve"/>
      <point x="536" y="32"/>
      <point x="494" y="116"/>
      <point x="386" y="167" type="curve"/>
      <point x="357" y="61" type="line"/>
      <point x="531" y="100"/>
      <point x="575" y="162"/>
      <point x="575" y="244" type="curve" smooth="yes"/>
      <point x="575" y="320"/>
      <point x="518" y="380"/>
      <point x="432" y="427" type="curve" smooth="yes"/>
      <point x="320" y="483"/>
      <point x="283" y="505"/>
      <point x="283" y="543" type="curve"/>
      <point x="283" y="560"/>
      <point x="290" y="567"/>
      <point x="299" y="567" type="curve"/>
      <point x="309" y="567"/>
      <point x="321" y="558"/>
      <point x="323" y="513" type="curve"/>
      <point x="542" y="513" type="line"/>
      <point x="532" y="633"/>
      <point x="453" y="723"/>
      <point x="304" y="723" type="curve"/>
      <point x="146" y="723"/>
    </contour>
    <contour>
      <point x="339" y="274"/>
      <point x="339" y="244" type="curve" smooth="yes"/>
      <point x="339" y="213"/>
      <point x="323" y="189"/>
      <point x="297" y="189" type="curve" smooth="yes"/>
      <point x="272" y="189"/>
      <point x="258" y="213"/>
      <point x="258" y="244" type="curve" smooth="yes"/>
      <point x="258" y="276"/>
      <point x="274" y="299"/>
      <point x="300" y="299" type="curve" smooth="yes"/>
      <point x="327" y="299"/>
    </contour>
  </outline>
</glyph>
<glyph name="copyright" format="2">
  <advance width="771"/>
  <unicode hex="00A9"/>
  <outline>
    <contour>
      <point x="386" y="720" type="curve" smooth="yes"/>
      <point x="175" y="720"/>
      <point x="30" y="571"/>
      <point x="30" y="358" type="curve" smooth="yes"/>
      <point x="30" y="145"/>
      <point x="175" y="-6"/>
      <point x="386" y="-6" type="curve" smooth="yes"/>
      <point x="597" y="-6"/>
      <point x="741" y="145"/>
      <point x="741" y="358" type="curve" smooth="yes"/>
      <point x="741" y="571"/>
      <point x="597" y="720"/>
    </contour>
    <contour>
      <point x="386" y="655" type="curve" smooth="yes"/>
      <point x="562" y="655"/>
      <point x="672" y="539"/>
      <point x="672" y="358" type="curve" smooth="yes"/>
      <point x="672" y="178"/>
      <point x="562" y="59"/>
      <point x="386" y="59" type="curve" smooth="yes"/>
      <point x="209" y="59"/>
      <point x="100" y="178"/>
      <point x="100" y="358" type="curve" smooth="yes"/>
      <point x="100" y="539"/>
      <point x="209" y="655"/>
    </contour>
    <contour>
      <point x="390" y="578" type="curve" smooth="yes"/>
      <point x="497" y="578"/>
      <point x="586" y="509"/>
      <point x="602" y="398" type="curve"/>
      <point x="418" y="398" type="line"/>
      <point x="413" y="415"/>
      <point x="403" y="433"/>
      <point x="380" y="433" type="curve" smooth="yes"/>
      <point x="352" y="433"/>
      <point x="335" y="409"/>
      <point x="335" y="357" type="curve"/>
      <point x="335" y="305"/>
      <point x="352" y="281"/>
      <point x="380" y="281" type="curve" smooth="yes"/>
      <point x="403" y="281"/>
      <point x="413" y="299"/>
      <point x="418" y="316" type="curve"/>
      <point x="602" y="316" type="line"/>
      <point x="586" y="205"/>
      <point x="497" y="136"/>
      <point x="390" y="136" type="curve" smooth="yes"/>
      <point x="255" y="136"/>
      <point x="164" y="221"/>
      <point x="164" y="357" type="curve"/>
      <point x="164" y="493"/>
      <point x="255" y="578"/>
    </contour>
  </outline>
</glyph>
<glyph name="ordfeminine" format="2">
  <advance width="481"/>
  <unicode hex="00AA"/>
  <outline>
    <contour>
      <point x="20" y="530" type="curve" smooth="yes"/>
      <point x="20" y="412"/>
      <point x="93" y="350"/>
      <point x="186" y="350" type="curve" smooth="yes"/>
      <point x="241" y="350"/>
      <point x="272" y="365"/>
      <point x="297" y="394" type="curve"/>
      <point x="297" y="355" type="line"/>
      <point x="461" y="355" type="line"/>
      <point x="461" y="708" type="line"/>
      <point x="297" y="708" type="line"/>
      <point x="297" y="669" type="line"/>
      <point x="272" y="698"/>
      <point x="239" y="712"/>
      <point x="184" y="712" type="curve" smooth="yes"/>
      <point x="92" y="712"/>
      <point x="20" y="648"/>
    </contour>
    <contour>
      <point x="189" y="529" type="curve" smooth="yes"/>
      <point x="189" y="563"/>
      <point x="214" y="582"/>
      <point x="243" y="582" type="curve" smooth="yes"/>
      <point x="272" y="582"/>
      <point x="297" y="565"/>
      <point x="297" y="532" type="curve" smooth="yes"/>
      <point x="297" y="498"/>
      <point x="272" y="481"/>
      <point x="243" y="481" type="curve" smooth="yes"/>
      <point x="214" y="481"/>
      <point x="189" y="495"/>
    </contour>
  </outline>
</glyph>
<glyph name="guillemotleft" format="2">
  <advance width="618"/>
  <unicode hex="00AB"/>
  <outline>
    <contour>
      <point x="323" y="120" type="line"/>
      <point x="244" y="295" type="line"/>
      <point x="323" y="470" type="line"/>
      <point x="122" y="470" type="line"/>
      <point x="45" y="295" type="line"/>
      <point x="122" y="120" type="line"/>
    </contour>
    <contour>
      <point x="578" y="120" type="line"/>
      <point x="499" y="295" type="line"/>
      <point x="578" y="470" type="line"/>
      <point x="377" y="470" type="line"/>
      <point x="300" y="295" type="line"/>
      <point x="377" y="120" type="line"/>
    </contour>
  </outline>
</glyph>
<glyph name="logicalnot" format="2">
  <advance width="778"/>
  <unicode hex="00AC"/>
  <outline>
    <contour>
      <point x="55" y="448" type="line"/>
      <point x="55" y="282" type="line"/>
      <point x="491" y="282" type="line"/>
      <point x="491" y="155" type="line"/>
      <point x="713" y="155" type="line"/>
      <point x="713" y="448" type="line"/>
    </contour>
  </outline>
</glyph>
<glyph name="registered" format="2">
  <advance width="511"/>
  <unicode hex="00AE"/>
  <outline>
    <contour>
      <point x="30" y="498" type="curve" smooth="yes"/>
      <point x="30" y="368"/>
      <point x="124" y="275"/>
      <point x="256" y="275" type="curve" smooth="yes"/>
      <point x="388" y="275"/>
      <point x="481" y="368"/>
      <point x="481" y="498" type="curve" smooth="yes"/>
      <point x="481" y="629"/>
      <point x="388" y="721"/>
      <point x="256" y="721" type="curve" smooth="yes"/>
      <point x="124" y="721"/>
      <point x="30" y="629"/>
    </contour>
    <contour>
      <point x="99" y="498" type="curve" smooth="yes"/>
      <point x="99" y="593"/>
      <point x="160" y="656"/>
      <point x="256" y="656" type="curve" smooth="yes"/>
      <point x="351" y="656"/>
      <point x="412" y="593"/>
      <point x="412" y="498" type="curve" smooth="yes"/>
      <point x="412" y="405"/>
      <point x="351" y="340"/>
      <point x="256" y="340" type="curve" smooth="yes"/>
      <point x="160" y="340"/>
      <point x="99" y="405"/>
    </contour>
    <contour>
      <point x="280" y="606" type="line" smooth="yes"/>
      <point x="326" y="606"/>
      <point x="357" y="580"/>
      <point x="357" y="538" type="curve" smooth="yes"/>
      <point x="357" y="497"/>
      <point x="326" y="469"/>
      <point x="280" y="469" type="curve" smooth="yes"/>
      <point x="240" y="469" type="line"/>
      <point x="240" y="396" type="line"/>
      <point x="160" y="396" type="line"/>
      <point x="160" y="606" type="line"/>
    </contour>
    <contour>
      <point x="282" y="396" type="line"/>
      <point x="236" y="487" type="line"/>
      <point x="316" y="487" type="line"/>
      <point x="368" y="396" type="line"/>
    </contour>
    <contour>
      <point x="261" y="543" type="curve" smooth="yes"/>
      <point x="237" y="543" type="line"/>
      <point x="237" y="517" type="line"/>
      <point x="261" y="517" type="line" smooth="yes"/>
      <point x="269" y="517"/>
      <point x="274" y="521"/>
      <point x="274" y="530" type="curve" smooth="yes"/>
      <point x="274" y="539"/>
      <point x="269" y="543"/>
    </contour>
  </outline>
</glyph>
<glyph name="degree" format="2">
  <advance width="496"/>
  <unicode hex="00B0"/>
  <outline>
    <contour>
      <point x="23" y="648"/>
      <point x="23" y="533" type="curve" smooth="yes"/>
      <point x="23" y="419"/>
      <point x="118" y="347"/>
      <point x="253" y="347" type="curve" smooth="yes"/>
      <point x="388" y="347"/>
      <point x="473" y="419"/>
      <point x="473" y="533" type="curve" smooth="yes"/>
      <point x="473" y="648"/>
      <point x="384" y="715"/>
      <point x="249" y="715" type="curve" smooth="yes"/>
      <point x="113" y="715"/>
    </contour>
    <contour>
      <point x="304" y="582"/>
      <point x="304" y="531" type="curve" smooth="yes"/>
      <point x="304" y="482"/>
      <point x="277" y="464"/>
      <point x="253" y="464" type="curve" smooth="yes"/>
      <point x="227" y="464"/>
      <point x="192" y="482"/>
      <point x="192" y="531" type="curve" smooth="yes"/>
      <point x="192" y="582"/>
      <point x="224" y="600"/>
      <point x="250" y="600" type="curve" smooth="yes"/>
      <point x="274" y="600"/>
    </contour>
  </outline>
</glyph>
<glyph name="plusminus" format="2">
  <advance width="551"/>
  <unicode hex="00B1"/>
  <outline>
    <contour>
      <point x="382" y="630" type="line"/>
      <point x="169" y="630" type="line"/>
      <point x="169" y="146" type="line"/>
      <point x="382" y="146" type="line"/>
    </contour>
    <contour>
      <point x="20" y="545" type="line"/>
      <point x="20" y="344" type="line"/>
      <point x="531" y="344" type="line"/>
      <point x="531" y="545" type="line"/>
    </contour>
    <contour>
      <point x="20" y="297" type="line"/>
      <point x="20" y="96" type="line"/>
      <point x="531" y="96" type="line"/>
      <point x="531" y="297" type="line"/>
    </contour>
  </outline>
</glyph>
<glyph name="twosuperior" format="2">
  <advance width="422"/>
  <unicode hex="00B2"/>
  <outline>
    <contour>
      <point x="46.48" y="655.402"/>
      <point x="40" y="569" type="curve"/>
      <point x="203" y="569" type="line"/>
      <point x="204" y="591.998"/>
      <point x="209.632" y="603"/>
      <point x="221" y="603" type="curve" smooth="yes"/>
      <point x="226.625" y="603"/>
      <point x="230" y="599.667"/>
      <point x="230" y="595" type="curve" smooth="yes"/>
      <point x="230" y="578.971"/>
      <point x="216.69" y="561.469"/>
      <point x="183" y="544" type="curve" smooth="yes"/>
      <point x="48" y="474" type="line"/>
      <point x="48" y="352" type="line"/>
      <point x="393" y="352" type="line"/>
      <point x="393" y="477" type="line"/>
      <point x="183" y="477" type="line"/>
      <point x="143" y="447" type="line"/>
      <point x="263" y="492" type="line" smooth="yes"/>
      <point x="361.759" y="529.035"/>
      <point x="403" y="560.513"/>
      <point x="403" y="609" type="curve" smooth="yes"/>
      <point x="403" y="658.263"/>
      <point x="362" y="717"/>
      <point x="243" y="717" type="curve" smooth="yes"/>
      <point x="120.376" y="717"/>
    </contour>
  </outline>
</glyph>
<glyph name="threesuperior" format="2">
  <advance width="403"/>
  <unicode hex="00B3"/>
  <outline>
    <contour>
      <point x="20" y="645"/>
      <point x="20" y="577" type="curve"/>
      <point x="176" y="577" type="line"/>
      <point x="176" y="597"/>
      <point x="180" y="605"/>
      <point x="190" y="605" type="curve" smooth="yes"/>
      <point x="199" y="605"/>
      <point x="202" y="598"/>
      <point x="202" y="588" type="curve" smooth="yes"/>
      <point x="202" y="569"/>
      <point x="195" y="562"/>
      <point x="176" y="562" type="curve"/>
      <point x="155" y="562" type="line"/>
      <point x="155" y="508" type="line"/>
      <point x="185" y="508" type="line"/>
      <point x="203" y="508"/>
      <point x="212" y="502"/>
      <point x="212" y="483" type="curve"/>
      <point x="212" y="466"/>
      <point x="206" y="462"/>
      <point x="199" y="462" type="curve"/>
      <point x="190" y="462"/>
      <point x="185" y="466"/>
      <point x="185" y="482" type="curve"/>
      <point x="13" y="482" type="line"/>
      <point x="20" y="403"/>
      <point x="64" y="349"/>
      <point x="213" y="349" type="curve"/>
      <point x="318" y="349"/>
      <point x="385" y="384"/>
      <point x="385" y="452" type="curve" smooth="yes"/>
      <point x="385" y="493"/>
      <point x="363" y="519"/>
      <point x="301" y="533" type="curve"/>
      <point x="301" y="537" type="line"/>
      <point x="351" y="545"/>
      <point x="376" y="569"/>
      <point x="376" y="611" type="curve" smooth="yes"/>
      <point x="376" y="674"/>
      <point x="316" y="717"/>
      <point x="209" y="717" type="curve" smooth="yes"/>
      <point x="64" y="717"/>
    </contour>
  </outline>
</glyph>
<glyph name="acute" format="2">
  <advance width="279"/>
  <unicode hex="00B4"/>
  <anchor x="141" y="564" name="_top"/>
  <outline>
    <contour>
      <point x="269" y="860" type="line"/>
      <point x="10" y="750" type="line"/>
      <point x="10" y="602" type="line"/>
      <point x="269" y="696" type="line"/>
    </contour>
  </outline>
</glyph>
<glyph name="micro" format="2">
  <advance width="751"/>
  <unicode hex="00B5"/>
  <outline>
    <contour>
      <point x="676" y="0" type="line"/>
      <point x="676" y="564" type="line"/>
      <point x="454" y="564" type="line"/>
      <point x="454" y="0" type="line"/>
    </contour>
    <contour>
      <point x="469" y="103" type="curve"/>
      <point x="454" y="266" type="line"/>
      <point x="454" y="218"/>
      <point x="424" y="188"/>
      <point x="375" y="188" type="curve" smooth="yes"/>
      <point x="327" y="188"/>
      <point x="296" y="218"/>
      <point x="296" y="266" type="curve"/>
      <point x="296" y="564" type="line"/>
      <point x="75" y="564" type="line"/>
      <point x="75" y="-270" type="line"/>
      <point x="296" y="-270" type="line"/>
      <point x="296" y="20" type="line"/>
      <point x="256" y="3" type="line"/>
      <point x="264" y="0"/>
      <point x="278" y="-4"/>
      <point x="291" y="-4" type="curve"/>
      <point x="386" y="-4"/>
      <point x="444" y="49"/>
    </contour>
  </outline>
</glyph>
<glyph name="paragraph" format="2">
  <advance width="778"/>
  <unicode hex="00B6"/>
  <outline>
    <contour>
      <point x="703" y="708" type="line"/>
      <point x="261" y="708" type="line" smooth="yes"/>
      <point x="88" y="708"/>
      <point x="22" y="595"/>
      <point x="22" y="486" type="curve" smooth="yes"/>
      <point x="22" y="377"/>
      <point x="89" y="265"/>
      <point x="261" y="265" type="curve" smooth="yes"/>
      <point x="292" y="265" type="line"/>
      <point x="292" y="0" type="line"/>
      <point x="468" y="0" type="line"/>
      <point x="468" y="542" type="line"/>
      <point x="526" y="542" type="line"/>
      <point x="526" y="0" type="line"/>
      <point x="703" y="0" type="line"/>
    </contour>
  </outline>
</glyph>
<glyph name="onesuperior" format="2">
  <advance width="285"/>
  <unicode hex="00B9"/>
  <outline>
    <contour>
      <point x="86" y="577" type="line"/>
      <point x="86" y="352" type="line"/>
      <point x="250" y="352" type="line"/>
      <point x="250" y="704" type="line"/>
      <point x="20" y="704" type="line"/>
      <point x="20" y="577" type="line"/>
    </contour>
  </outline>
</glyph>
<glyph name="ordmasculine" format="2">
  <advance width="470"/>
  <unicode hex="00BA"/>
  <outline>
    <contour>
      <point x="20" y="632"/>
      <point x="20" y="529" type="curve" smooth="yes"/>
      <point x="20" y="427"/>
      <point x="101.222" y="347"/>
      <point x="235" y="347" type="curve"/>
      <point x="369" y="347"/>
      <point x="450" y="427"/>
      <point x="450" y="529" type="curve" smooth="yes"/>
      <point x="450" y="632"/>
      <point x="369" y="709"/>
      <point x="235" y="709" type="curve"/>
      <point x="101.222" y="709"/>
    </contour>
    <contour>
      <point x="283" y="567.077"/>
      <point x="283" y="529" type="curve" smooth="yes"/>
      <point x="283" y="490.818"/>
      <point x="262" y="473"/>
      <point x="235" y="473" type="curve"/>
      <point x="208" y="473"/>
      <point x="187" y="490.818"/>
      <point x="187" y="529" type="curve" smooth="yes"/>
      <point x="187" y="567.077"/>
      <point x="208" y="584"/>
      <point x="235" y="584" type="curve"/>
      <point x="262" y="584"/>
    </contour>
  </outline>
</glyph>
<glyph name="guillemotright" format="2">
  <advance width="618"/>
  <unicode hex="00BB"/>
  <outline>
    <contour>
      <point x="305" y="120" type="line"/>
      <point x="507" y="120" type="line"/>
      <point x="583" y="295" type="line"/>
      <point x="507" y="470" type="line"/>
      <point x="305" y="470" type="line"/>
      <point x="385" y="295" type="line"/>
    </contour>
    <contour>
      <point x="50" y="120" type="line"/>
      <point x="252" y="120" type="line"/>
      <point x="328" y="295" type="line"/>
      <point x="252" y="470" type="line"/>
      <point x="50" y="470" type="line"/>
      <point x="130" y="295" type="line"/>
    </contour>
  </outline>
</glyph>
<glyph name="onehalf" format="2">
  <advance width="928"/>
  <unicode hex="00BD"/>
  <outline>
    <contour>
      <point x="508" y="711" type="line"/>
      <point x="110" y="0" type="line"/>
      <point x="327" y="0" type="line"/>
      <point x="724" y="711" type="line"/>
    </contour>
    <component base="onesuperior" xOffset="25"/>
    <component base="twosuperior" xOffset="454" yOffset="-353"/>
  </outline>
</glyph>
<glyph name="threequarters" format="2">
  <advance width="1024"/>
  <unicode hex="00BE"/>
  <outline>
    <contour>
      <point x="630" y="711" type="line"/>
      <point x="261" y="0" type="line"/>
      <point x="477" y="0" type="line"/>
      <point x="847" y="711" type="line"/>
    </contour>
    <contour>
      <point x="1009" y="146" type="line"/>
      <point x="974" y="146" type="line"/>
      <point x="974" y="351" type="line"/>
      <point x="727" y="351" type="line"/>
      <point x="606" y="142" type="line"/>
      <point x="606" y="58" type="line"/>
      <point x="810" y="58" type="line"/>
      <point x="810" y="0" type="line"/>
      <point x="974" y="0" type="line"/>
      <point x="974" y="58" type="line"/>
      <point x="1009" y="58" type="line"/>
    </contour>
    <contour>
      <point x="819" y="146" type="line"/>
      <point x="760" y="146" type="line"/>
      <point x="819" y="270" type="line"/>
    </contour>
    <component base="threesuperior" xOffset="53"/>
  </outline>
</glyph>
<glyph name="AE" format="2">
  <advance width="986"/>
  <unicode hex="00C6"/>
  <outline>
    <contour>
      <point x="248" y="264" type="line"/>
      <point x="155" y="97" type="line"/>
      <point x="598" y="97" type="line"/>
      <point x="598" y="264" type="line"/>
    </contour>
    <contour>
      <point x="712" y="532" type="line"/>
      <point x="952" y="532" type="line"/>
      <point x="952" y="708" type="line"/>
      <point x="339" y="708" type="line"/>
      <point x="0" y="0" type="line"/>
      <point x="241" y="0" type="line"/>
      <point x="490" y="537" type="line"/>
      <point x="490" y="0" type="line"/>
      <point x="952" y="0" type="line"/>
      <point x="952" y="177" type="line"/>
      <point x="712" y="177" type="line"/>
      <point x="712" y="280" type="line"/>
      <point x="922" y="280" type="line"/>
      <point x="922" y="447" type="line"/>
      <point x="712" y="447" type="line"/>
    </contour>
  </outline>
</glyph>
<glyph name="Eth" format="2">
  <advance width="743"/>
  <unicode hex="00D0"/>
  <outline>
    <contour>
      <point x="0" y="444" type="line"/>
      <point x="0" y="268" type="line"/>
      <point x="402" y="268" type="line"/>
      <point x="402" y="444" type="line"/>
    </contour>
    <contour>
      <point x="571" y="708"/>
      <point x="345" y="708" type="curve" smooth="yes"/>
      <point x="50" y="708" type="line"/>
      <point x="50" y="0" type="line"/>
      <point x="345" y="0" type="line" smooth="yes"/>
      <point x="571" y="0"/>
      <point x="713" y="154"/>
      <point x="713" y="356" type="curve" smooth="yes"/>
      <point x="713" y="560"/>
    </contour>
    <contour>
      <point x="325" y="198" type="curve" smooth="yes"/>
      <point x="272" y="198" type="line"/>
      <point x="272" y="514" type="line"/>
      <point x="325" y="514" type="line" smooth="yes"/>
      <point x="423" y="514"/>
      <point x="488" y="459"/>
      <point x="488" y="356" type="curve" smooth="yes"/>
      <point x="488" y="253"/>
      <point x="423" y="198"/>
    </contour>
  </outline>
</glyph>
<glyph name="multiply" format="2">
  <advance width="581"/>
  <unicode hex="00D7"/>
  <outline>
    <contour>
      <point x="171" y="612" type="line"/>
      <point x="24" y="467" type="line"/>
      <point x="414" y="78" type="line"/>
      <point x="561" y="223" type="line"/>
    </contour>
    <contour>
      <point x="20" y="221" type="line"/>
      <point x="163" y="79" type="line"/>
      <point x="550" y="470" type="line"/>
      <point x="406" y="612" type="line"/>
    </contour>
  </outline>
</glyph>
<glyph name="Oslash" format="2">
  <advance width="788"/>
  <unicode hex="00D8"/>
  <outline>
    <contour>
      <point x="654" y="712" type="line"/>
      <point x="18" y="1" type="line"/>
      <point x="134" y="1" type="line"/>
      <point x="769" y="712" type="line"/>
    </contour>
    <component base="O" xOffset="-1"/>
  </outline>
</glyph>
<glyph name="Thorn" format="2">
  <advance width="649"/>
  <unicode hex="00DE"/>
  <outline>
    <contour>
      <point x="335" y="290" type="curve"/>
      <point x="272" y="290" type="line"/>
      <point x="272" y="420" type="line"/>
      <point x="335" y="420" type="line" smooth="yes"/>
      <point x="385" y="420"/>
      <point x="404" y="394"/>
      <point x="404" y="355" type="curve"/>
      <point x="404" y="316"/>
      <point x="385" y="290"/>
    </contour>
    <contour>
      <point x="629" y="229"/>
      <point x="629" y="355" type="curve"/>
      <point x="629" y="492"/>
      <point x="538" y="588"/>
      <point x="360" y="588" type="curve" smooth="yes"/>
      <point x="270" y="588" type="line"/>
      <point x="270" y="708" type="line"/>
      <point x="50" y="708" type="line"/>
      <point x="50" y="0" type="line"/>
      <point x="272" y="0" type="line"/>
      <point x="272" y="125" type="line"/>
      <point x="360" y="125" type="line" smooth="yes"/>
      <point x="538" y="125"/>
    </contour>
  </outline>
</glyph>
<glyph name="germandbls" format="2">
  <advance width="815"/>
  <unicode hex="00DF"/>
  <guideline x="462" y="303" angle="322.0013"/>
  <guideline x="584" y="481" angle="240.9454"/>
  <outline>
    <contour>
      <point x="44" y="509" type="curve" smooth="yes"/>
      <point x="44" y="0" type="line"/>
      <point x="264" y="0" type="line"/>
      <point x="264" y="499" type="line" smooth="yes"/>
      <point x="264" y="548"/>
      <point x="297" y="580"/>
      <point x="346" y="580" type="curve" smooth="yes"/>
      <point x="387" y="580"/>
      <point x="415" y="560"/>
      <point x="415" y="531" type="curve" smooth="yes"/>
      <point x="415" y="483"/>
      <point x="326" y="431"/>
      <point x="326" y="358" type="curve" smooth="yes"/>
      <point x="326" y="301"/>
      <point x="370" y="268"/>
      <point x="488" y="223" type="curve" smooth="yes"/>
      <point x="554" y="198"/>
      <point x="564" y="186"/>
      <point x="564" y="169" type="curve" smooth="yes"/>
      <point x="564" y="153"/>
      <point x="552" y="143"/>
      <point x="534" y="143" type="curve" smooth="yes"/>
      <point x="510" y="143"/>
      <point x="488" y="161"/>
      <point x="480" y="188" type="curve"/>
      <point x="286" y="188" type="line"/>
      <point x="310" y="60"/>
      <point x="396" y="-10"/>
      <point x="540" y="-10" type="curve" smooth="yes"/>
      <point x="676" y="-10"/>
      <point x="771" y="65"/>
      <point x="771" y="179" type="curve" smooth="yes"/>
      <point x="771" y="260"/>
      <point x="730" y="304"/>
      <point x="626" y="346" type="curve" smooth="yes"/>
      <point x="553" y="376"/>
      <point x="546" y="384"/>
      <point x="546" y="398" type="curve" smooth="yes"/>
      <point x="546" y="429"/>
      <point x="634" y="477"/>
      <point x="634" y="572" type="curve" smooth="yes"/>
      <point x="634" y="681"/>
      <point x="516" y="763"/>
      <point x="360" y="763" type="curve" smooth="yes"/>
      <point x="182" y="763"/>
      <point x="44" y="670"/>
    </contour>
  </outline>
</glyph>
<glyph name="ae" format="2">
  <advance width="1054"/>
  <unicode hex="00E6"/>
  <outline>
    <contour>
      <point x="608" y="334" type="line"/>
      <point x="604" y="243" type="line"/>
      <point x="1029" y="243" type="line"/>
      <point x="1032" y="257"/>
      <point x="1034" y="273"/>
      <point x="1034" y="287" type="curve"/>
      <point x="1034" y="464"/>
      <point x="935" y="571"/>
      <point x="796" y="571" type="curve"/>
      <point x="715" y="571"/>
      <point x="657" y="540"/>
      <point x="630" y="487" type="curve"/>
      <point x="630" y="564" type="line"/>
      <point x="409" y="564" type="line"/>
      <point x="409" y="487" type="line"/>
      <point x="382" y="538"/>
      <point x="328" y="571"/>
      <point x="253" y="571" type="curve"/>
      <point x="123" y="571"/>
      <point x="20" y="464"/>
      <point x="20" y="282" type="curve"/>
      <point x="20" y="100"/>
      <point x="123" y="-7"/>
      <point x="253" y="-7" type="curve"/>
      <point x="328" y="-7"/>
      <point x="382" y="26"/>
      <point x="409" y="77" type="curve"/>
      <point x="409" y="0" type="line"/>
      <point x="630" y="0" type="line"/>
      <point x="630" y="77" type="line"/>
      <point x="658" y="25"/>
      <point x="715" y="-7"/>
      <point x="796" y="-7" type="curve"/>
      <point x="913" y="-7"/>
      <point x="998" y="83"/>
      <point x="1022" y="203" type="curve"/>
      <point x="787" y="203" type="line"/>
      <point x="777" y="181"/>
      <point x="756" y="167"/>
      <point x="717" y="167" type="curve"/>
      <point x="670" y="167"/>
      <point x="636" y="190"/>
      <point x="636" y="273" type="curve"/>
      <point x="636" y="304" type="line"/>
      <point x="636" y="378"/>
      <point x="678" y="397"/>
      <point x="724" y="397" type="curve"/>
      <point x="769" y="397"/>
      <point x="809" y="378"/>
      <point x="809" y="334" type="curve"/>
    </contour>
    <contour>
      <point x="245" y="220"/>
      <point x="245" y="282" type="curve"/>
      <point x="245" y="344"/>
      <point x="281" y="377"/>
      <point x="327" y="377" type="curve"/>
      <point x="373" y="377"/>
      <point x="409" y="344"/>
      <point x="409" y="282" type="curve"/>
      <point x="409" y="220"/>
      <point x="373" y="187"/>
      <point x="327" y="187" type="curve"/>
      <point x="281" y="187"/>
    </contour>
  </outline>
</glyph>
<glyph name="eth" format="2">
  <advance width="643"/>
  <unicode hex="00F0"/>
  <outline>
    <contour>
      <point x="529" y="735" type="line"/>
      <point x="264" y="660" type="line"/>
      <point x="264" y="588" type="line"/>
      <point x="529" y="663" type="line"/>
    </contour>
    <contour>
      <point x="301" y="568" type="curve" smooth="yes"/>
      <point x="144" y="568"/>
      <point x="20" y="462"/>
      <point x="20" y="284" type="curve" smooth="yes"/>
      <point x="20" y="105"/>
      <point x="164" y="-6"/>
      <point x="328" y="-6" type="curve" smooth="yes"/>
      <point x="488" y="-6"/>
      <point x="623" y="107"/>
      <point x="623" y="317" type="curve" smooth="yes"/>
      <point x="623" y="476"/>
      <point x="541" y="636"/>
      <point x="440" y="740" type="curve"/>
      <point x="247" y="740" type="line"/>
      <point x="290" y="702"/>
      <point x="347" y="627"/>
      <point x="380" y="560" type="curve"/>
      <point x="351" y="565"/>
      <point x="324" y="568"/>
    </contour>
    <contour>
      <point x="328" y="186" type="curve" smooth="yes"/>
      <point x="295" y="186"/>
      <point x="246" y="210"/>
      <point x="246" y="282" type="curve" smooth="yes"/>
      <point x="246" y="354"/>
      <point x="289" y="377"/>
      <point x="324" y="377" type="curve" smooth="yes"/>
      <point x="355" y="377"/>
      <point x="397" y="354"/>
      <point x="397" y="282" type="curve" smooth="yes"/>
      <point x="397" y="210"/>
      <point x="362" y="186"/>
    </contour>
  </outline>
</glyph>
<glyph name="divide" format="2">
  <advance width="551"/>
  <unicode hex="00F7"/>
  <outline>
    <contour>
      <point x="20" y="441" type="line"/>
      <point x="20" y="240" type="line"/>
      <point x="531" y="240" type="line"/>
      <point x="531" y="441" type="line"/>
    </contour>
    <component base="period" xOffset="120"/>
    <component base="period" xOffset="120" yOffset="475"/>
  </outline>
</glyph>
<glyph name="oslash" format="2">
  <advance width="621"/>
  <unicode hex="00F8"/>
  <outline>
    <contour>
      <point x="518" y="564" type="line"/>
      <point x="0" y="0" type="line"/>
      <point x="103" y="0" type="line"/>
      <point x="621" y="564" type="line"/>
    </contour>
    <component base="o" xOffset="-8"/>
  </outline>
</glyph>
<glyph name="thorn" format="2">
  <advance width="680"/>
  <unicode hex="00FE"/>
  <outline>
    <contour>
      <point x="309" y="554"/>
      <point x="272" y="514" type="curve"/>
      <point x="272" y="740" type="line"/>
      <point x="50" y="740" type="line"/>
      <point x="50" y="-270" type="line"/>
      <point x="272" y="-270" type="line"/>
      <point x="272" y="62" type="line"/>
      <point x="310" y="16"/>
      <point x="352" y="-6"/>
      <point x="411" y="-6" type="curve" smooth="yes"/>
      <point x="545" y="-6"/>
      <point x="660" y="108"/>
      <point x="660" y="278" type="curve" smooth="yes"/>
      <point x="660" y="448"/>
      <point x="545" y="568"/>
      <point x="411" y="568" type="curve" smooth="yes"/>
      <point x="352" y="568"/>
    </contour>
    <contour>
      <point x="435" y="350"/>
      <point x="435" y="278" type="curve" smooth="yes"/>
      <point x="435" y="206"/>
      <point x="387" y="187"/>
      <point x="354" y="187" type="curve" smooth="yes"/>
      <point x="320" y="187"/>
      <point x="272" y="210"/>
      <point x="272" y="282" type="curve" smooth="yes"/>
      <point x="272" y="354"/>
      <point x="320" y="376"/>
      <point x="354" y="376" type="curve" smooth="yes"/>
      <point x="387" y="376"/>
    </contour>
  </outline>
</glyph>
<glyph name="Aogonek" format="2">
  <advance width="773"/>
  <unicode hex="0104"/>
  <outline>
    <contour>
      <point x="731" y="105" type="line"/>
      <point x="694" y="90" type="line" smooth="yes"/>
      <point x="538" y="27"/>
      <point x="499" y="-26"/>
      <point x="499" y="-97" type="curve" smooth="yes"/>
      <point x="499" y="-177"/>
      <point x="559" y="-223"/>
      <point x="659" y="-223" type="curve" smooth="yes"/>
      <point x="702" y="-223"/>
      <point x="740" y="-217"/>
      <point x="773" y="-207" type="curve"/>
      <point x="773" y="-91" type="line"/>
      <point x="740" y="-102"/>
      <point x="713" y="-107"/>
      <point x="691" y="-107" type="curve" smooth="yes"/>
      <point x="667" y="-107"/>
      <point x="654" y="-98"/>
      <point x="654" y="-82" type="curve" smooth="yes"/>
      <point x="654" y="-66"/>
      <point x="666" y="-46"/>
      <point x="729" y="-19" type="curve" smooth="yes"/>
      <point x="773" y="0" type="line"/>
    </contour>
    <component base="A"/>
  </outline>
</glyph>
<glyph name="dcaron" format="2">
  <advance width="882"/>
  <unicode hex="010F"/>
  <outline>
    <contour>
      <point x="846" y="740" type="curve"/>
      <point x="690" y="740" type="line"/>
      <point x="690" y="594" type="line"/>
      <point x="762" y="594" type="line"/>
      <point x="762" y="582" type="line" smooth="yes"/>
      <point x="762" y="531"/>
      <point x="742" y="508"/>
      <point x="707" y="508" type="curve"/>
      <point x="707" y="429" type="line"/>
      <point x="821" y="429"/>
      <point x="872" y="509"/>
      <point x="872" y="606" type="curve" smooth="yes"/>
      <point x="872" y="648"/>
      <point x="864" y="694"/>
    </contour>
    <component base="d"/>
  </outline>
</glyph>
<glyph name="dcroat" format="2">
  <advance width="704"/>
  <unicode hex="0111"/>
  <outline>
    <contour>
      <point x="349" y="688" type="line"/>
      <point x="349" y="592" type="line"/>
      <point x="694" y="592" type="line"/>
      <point x="694" y="688" type="line"/>
    </contour>
    <component base="d"/>
  </outline>
</glyph>
<glyph name="gcommaaccent" format="2">
  <advance width="680"/>
  <unicode hex="0123"/>
  <outline>
    <contour>
      <point x="282" y="599" type="curve"/>
      <point x="438" y="599" type="line"/>
      <point x="438" y="746" type="line"/>
      <point x="366" y="746" type="line"/>
      <point x="366" y="757" type="line" smooth="yes"/>
      <point x="366" y="809"/>
      <point x="387" y="832"/>
      <point x="421" y="832" type="curve"/>
      <point x="421" y="910" type="line"/>
      <point x="308" y="910"/>
      <point x="257" y="830"/>
      <point x="257" y="734" type="curve" smooth="yes"/>
      <point x="257" y="692"/>
      <point x="264" y="646"/>
    </contour>
    <component base="g"/>
  </outline>
</glyph>
<glyph name="dotlessi" format="2">
  <advance width="372"/>
  <unicode hex="0131"/>
  <anchor x="335" y="10" name="ogonek"/>
  <anchor x="187" y="564" name="top"/>
  <outline>
    <contour>
      <point x="75" y="564" type="line"/>
      <point x="75" y="0" type="line"/>
      <point x="297" y="0" type="line"/>
      <point x="297" y="564" type="line"/>
    </contour>
  </outline>
</glyph>
<glyph name="Kcommaaccent" format="2">
  <advance width="798"/>
  <unicode hex="0136"/>
  <anchor x="399" y="0" name="_bottom"/>
  <outline>
    <contour>
      <point x="475" y="-35" type="curve"/>
      <point x="319" y="-35" type="line"/>
      <point x="319" y="-182" type="line"/>
      <point x="391" y="-182" type="line"/>
      <point x="391" y="-193" type="line" smooth="yes"/>
      <point x="391" y="-245"/>
      <point x="370" y="-268"/>
      <point x="336" y="-268" type="curve"/>
      <point x="336" y="-346" type="line"/>
      <point x="449" y="-346"/>
      <point x="500" y="-266"/>
      <point x="500" y="-170" type="curve" smooth="yes"/>
      <point x="500" y="-128"/>
      <point x="493" y="-82"/>
    </contour>
    <component base="K"/>
  </outline>
</glyph>
<glyph name="kcommaaccent" format="2">
  <advance width="676"/>
  <unicode hex="0137"/>
  <outline>
    <contour>
      <point x="418" y="-35" type="curve"/>
      <point x="262" y="-35" type="line"/>
      <point x="262" y="-182" type="line"/>
      <point x="334" y="-182" type="line"/>
      <point x="334" y="-193" type="line" smooth="yes"/>
      <point x="334" y="-245"/>
      <point x="313" y="-268"/>
      <point x="279" y="-268" type="curve"/>
      <point x="279" y="-346" type="line"/>
      <point x="392" y="-346"/>
      <point x="443" y="-266"/>
      <point x="443" y="-170" type="curve" smooth="yes"/>
      <point x="443" y="-128"/>
      <point x="436" y="-82"/>
    </contour>
    <component base="k"/>
  </outline>
</glyph>
<glyph name="Lcommaaccent" format="2">
  <advance width="511"/>
  <unicode hex="013B"/>
  <outline>
    <contour>
      <point x="366" y="-35" type="curve"/>
      <point x="210" y="-35" type="line"/>
      <point x="210" y="-182" type="line"/>
      <point x="282" y="-182" type="line"/>
      <point x="282" y="-193" type="line" smooth="yes"/>
      <point x="282" y="-245"/>
      <point x="262" y="-268"/>
      <point x="227" y="-268" type="curve"/>
      <point x="227" y="-346" type="line"/>
      <point x="341" y="-346"/>
      <point x="392" y="-266"/>
      <point x="392" y="-170" type="curve" smooth="yes"/>
      <point x="392" y="-128"/>
      <point x="384" y="-82"/>
    </contour>
    <component base="L"/>
  </outline>
</glyph>
<glyph name="lcommaaccent" format="2">
  <advance width="322"/>
  <unicode hex="013C"/>
  <outline>
    <contour>
      <point x="243" y="-35" type="curve"/>
      <point x="87" y="-35" type="line"/>
      <point x="87" y="-182" type="line"/>
      <point x="159" y="-182" type="line"/>
      <point x="159" y="-193" type="line" smooth="yes"/>
      <point x="159" y="-245"/>
      <point x="138" y="-268"/>
      <point x="104" y="-268" type="curve"/>
      <point x="104" y="-346" type="line"/>
      <point x="217" y="-346"/>
      <point x="268" y="-266"/>
      <point x="268" y="-170" type="curve" smooth="yes"/>
      <point x="268" y="-128"/>
      <point x="261" y="-82"/>
    </contour>
    <component base="l"/>
  </outline>
</glyph>
<glyph name="Lcaron" format="2">
  <advance width="577"/>
  <unicode hex="013D"/>
  <outline>
    <contour>
      <point x="525" y="708" type="curve"/>
      <point x="369" y="708" type="line"/>
      <point x="369" y="562" type="line"/>
      <point x="441" y="562" type="line"/>
      <point x="441" y="550" type="line" smooth="yes"/>
      <point x="441" y="499"/>
      <point x="420" y="476"/>
      <point x="386" y="476" type="curve"/>
      <point x="386" y="397" type="line"/>
      <point x="499" y="397"/>
      <point x="550" y="477"/>
      <point x="550" y="574" type="curve" smooth="yes"/>
      <point x="550" y="616"/>
      <point x="543" y="662"/>
    </contour>
    <component base="L"/>
  </outline>
</glyph>
<glyph name="lcaron" format="2">
  <advance width="516"/>
  <unicode hex="013E"/>
  <outline>
    <contour>
      <point x="481" y="740" type="curve"/>
      <point x="325" y="740" type="line"/>
      <point x="325" y="594" type="line"/>
      <point x="397" y="594" type="line"/>
      <point x="397" y="582" type="line" smooth="yes"/>
      <point x="397" y="531"/>
      <point x="376" y="508"/>
      <point x="342" y="508" type="curve"/>
      <point x="342" y="429" type="line"/>
      <point x="455" y="429"/>
      <point x="506" y="509"/>
      <point x="506" y="606" type="curve" smooth="yes"/>
      <point x="506" y="648"/>
      <point x="499" y="694"/>
    </contour>
    <component base="l"/>
  </outline>
</glyph>
<glyph name="Ldot" format="2">
  <advance width="506"/>
  <unicode hex="013F"/>
  <outline>
    <contour>
      <point x="50" y="0" type="line"/>
      <point x="486" y="0" type="line"/>
      <point x="486" y="168" type="line"/>
      <point x="272" y="168" type="line"/>
      <point x="272" y="708" type="line"/>
      <point x="50" y="708" type="line"/>
    </contour>
    <contour>
      <point x="414" y="327" type="curve" smooth="yes"/>
      <point x="464" y="327"/>
      <point x="501" y="364"/>
      <point x="501" y="412" type="curve" smooth="yes"/>
      <point x="501" y="462"/>
      <point x="464" y="499"/>
      <point x="414" y="499" type="curve" smooth="yes"/>
      <point x="366" y="499"/>
      <point x="329" y="462"/>
      <point x="329" y="412" type="curve" smooth="yes"/>
      <point x="329" y="364"/>
      <point x="366" y="327"/>
    </contour>
  </outline>
</glyph>
<glyph name="ldot" format="2">
  <advance width="440"/>
  <unicode hex="0140"/>
  <outline>
    <contour>
      <point x="50" y="0" type="line"/>
      <point x="272" y="0" type="line"/>
      <point x="272" y="740" type="line"/>
      <point x="50" y="740" type="line"/>
    </contour>
    <contour>
      <point x="380" y="277" type="curve" smooth="yes"/>
      <point x="430" y="277"/>
      <point x="467" y="314"/>
      <point x="467" y="362" type="curve" smooth="yes"/>
      <point x="467" y="412"/>
      <point x="430" y="449"/>
      <point x="380" y="449" type="curve" smooth="yes"/>
      <point x="332" y="449"/>
      <point x="295" y="412"/>
      <point x="295" y="362" type="curve" smooth="yes"/>
      <point x="295" y="314"/>
      <point x="332" y="277"/>
    </contour>
  </outline>
</glyph>
<glyph name="Lslash" format="2">
  <advance width="521"/>
  <unicode hex="0141"/>
  <outline>
    <contour>
      <point x="10" y="437" type="line"/>
      <point x="10" y="241" type="line"/>
      <point x="362" y="338" type="line"/>
      <point x="362" y="534" type="line"/>
    </contour>
    <contour>
      <point x="287" y="708" type="line"/>
      <point x="65" y="708" type="line"/>
      <point x="65" y="0" type="line"/>
      <point x="501" y="0" type="line"/>
      <point x="501" y="168" type="line"/>
      <point x="287" y="168" type="line"/>
    </contour>
  </outline>
</glyph>
<glyph name="lslash" format="2">
  <advance width="372"/>
  <unicode hex="0142"/>
  <outline>
    <contour>
      <point x="10" y="437" type="line"/>
      <point x="10" y="241" type="line"/>
      <point x="362" y="338" type="line"/>
      <point x="362" y="534" type="line"/>
    </contour>
    <contour>
      <point x="75" y="740" type="line"/>
      <point x="75" y="0" type="line"/>
      <point x="297" y="0" type="line"/>
      <point x="297" y="740" type="line"/>
    </contour>
  </outline>
</glyph>
<glyph name="Ncommaaccent" format="2">
  <advance width="829"/>
  <unicode hex="0145"/>
  <anchor x="414" y="0" name="_bottom"/>
  <outline>
    <contour>
      <point x="490" y="-35" type="curve"/>
      <point x="334" y="-35" type="line"/>
      <point x="334" y="-182" type="line"/>
      <point x="406" y="-182" type="line"/>
      <point x="406" y="-193" type="line" smooth="yes"/>
      <point x="406" y="-245"/>
      <point x="386" y="-268"/>
      <point x="351" y="-268" type="curve"/>
      <point x="351" y="-346" type="line"/>
      <point x="465" y="-346"/>
      <point x="516" y="-266"/>
      <point x="516" y="-170" type="curve" smooth="yes"/>
      <point x="516" y="-128"/>
      <point x="508" y="-82"/>
    </contour>
    <component base="N"/>
  </outline>
</glyph>
<glyph name="ncommaaccent" format="2">
  <advance width="697"/>
  <unicode hex="0146"/>
  <outline>
    <contour>
      <point x="449" y="-35" type="curve"/>
      <point x="293" y="-35" type="line"/>
      <point x="293" y="-182" type="line"/>
      <point x="365" y="-182" type="line"/>
      <point x="365" y="-193" type="line" smooth="yes"/>
      <point x="365" y="-245"/>
      <point x="344" y="-268"/>
      <point x="310" y="-268" type="curve"/>
      <point x="310" y="-346" type="line"/>
      <point x="423" y="-346"/>
      <point x="474" y="-266"/>
      <point x="474" y="-170" type="curve" smooth="yes"/>
      <point x="474" y="-128"/>
      <point x="467" y="-82"/>
    </contour>
    <component base="n"/>
  </outline>
</glyph>
<glyph name="OE" format="2">
  <advance width="1049"/>
  <unicode hex="0152"/>
  <outline>
    <contour>
      <point x="765" y="532" type="line"/>
      <point x="1015" y="532" type="line"/>
      <point x="1015" y="708" type="line"/>
      <point x="543" y="708" type="line"/>
      <point x="543" y="671" type="line"/>
      <point x="499" y="704"/>
      <point x="437" y="720"/>
      <point x="378" y="720" type="curve" smooth="yes"/>
      <point x="176" y="720"/>
      <point x="30" y="568.76"/>
      <point x="30" y="354" type="curve"/>
      <point x="30" y="139.24"/>
      <point x="176" y="-12"/>
      <point x="378" y="-12" type="curve" smooth="yes"/>
      <point x="437" y="-9"/>
      <point x="499" y="4"/>
      <point x="543" y="37" type="curve"/>
      <point x="543" y="0" type="line"/>
      <point x="1015" y="0" type="line"/>
      <point x="1015" y="177" type="line"/>
      <point x="765" y="177" type="line"/>
      <point x="765" y="277" type="line"/>
      <point x="985" y="277" type="line"/>
      <point x="985" y="444" type="line"/>
      <point x="765" y="444" type="line"/>
    </contour>
    <contour>
      <point x="256" y="354" type="curve"/>
      <point x="256" y="451.823"/>
      <point x="304" y="515"/>
      <point x="395" y="515" type="curve" smooth="yes"/>
      <point x="484" y="515"/>
      <point x="533" y="451.823"/>
      <point x="533" y="354" type="curve"/>
      <point x="533" y="256.177"/>
      <point x="484" y="193"/>
      <point x="395" y="193" type="curve" smooth="yes"/>
      <point x="304" y="193"/>
      <point x="256" y="256.177"/>
    </contour>
  </outline>
</glyph>
<glyph name="oe" format="2">
  <advance width="1022"/>
  <unicode hex="0153"/>
  <outline>
    <contour>
      <point x="391" y="349"/>
      <point x="391" y="282" type="curve"/>
      <point x="391" y="215"/>
      <point x="357" y="185"/>
      <point x="318" y="185" type="curve"/>
      <point x="278" y="185"/>
      <point x="245" y="215"/>
      <point x="245" y="282" type="curve"/>
      <point x="245" y="349"/>
      <point x="279" y="379"/>
      <point x="318" y="379" type="curve"/>
      <point x="357" y="379"/>
    </contour>
    <contour>
      <point x="20" y="462"/>
      <point x="20" y="282" type="curve"/>
      <point x="20" y="102"/>
      <point x="148" y="-7"/>
      <point x="318" y="-7" type="curve"/>
      <point x="390" y="-7"/>
      <point x="455" y="13"/>
      <point x="505" y="49" type="curve"/>
      <point x="554" y="13"/>
      <point x="616" y="-7"/>
      <point x="688" y="-7" type="curve" smooth="yes"/>
      <point x="830" y="-7"/>
      <point x="940" y="83"/>
      <point x="964" y="203" type="curve"/>
      <point x="729" y="203" type="line"/>
      <point x="721" y="186"/>
      <point x="706" y="170"/>
      <point x="677" y="170" type="curve" smooth="yes"/>
      <point x="644" y="170"/>
      <point x="616" y="185"/>
      <point x="616" y="258" type="curve" smooth="yes"/>
      <point x="616" y="311" type="line" smooth="yes"/>
      <point x="616" y="370"/>
      <point x="643" y="397"/>
      <point x="688" y="397" type="curve"/>
      <point x="721" y="397"/>
      <point x="751" y="379"/>
      <point x="751" y="334" type="curve"/>
      <point x="576" y="334" type="line"/>
      <point x="576" y="243" type="line"/>
      <point x="971" y="243" type="line"/>
      <point x="974" y="257"/>
      <point x="976" y="273"/>
      <point x="976" y="287" type="curve"/>
      <point x="976" y="464"/>
      <point x="857" y="571"/>
      <point x="688" y="571" type="curve"/>
      <point x="616" y="571"/>
      <point x="554" y="551"/>
      <point x="505" y="515" type="curve"/>
      <point x="455" y="551"/>
      <point x="390" y="571"/>
      <point x="318" y="571" type="curve"/>
      <point x="148" y="571"/>
    </contour>
  </outline>
</glyph>
<glyph name="Rcommaaccent" format="2">
  <advance width="701"/>
  <unicode hex="0156"/>
  <anchor x="350" y="0" name="_bottom"/>
  <outline>
    <contour>
      <point x="426" y="-35" type="curve"/>
      <point x="270" y="-35" type="line"/>
      <point x="270" y="-182" type="line"/>
      <point x="342" y="-182" type="line"/>
      <point x="342" y="-193" type="line" smooth="yes"/>
      <point x="342" y="-245"/>
      <point x="322" y="-268"/>
      <point x="287" y="-268" type="curve"/>
      <point x="287" y="-346" type="line"/>
      <point x="401" y="-346"/>
      <point x="452" y="-266"/>
      <point x="452" y="-170" type="curve" smooth="yes"/>
      <point x="452" y="-128"/>
      <point x="444" y="-82"/>
    </contour>
    <component base="R"/>
  </outline>
</glyph>
<glyph name="rcommaaccent" format="2">
  <advance width="467"/>
  <unicode hex="0157"/>
  <outline>
    <contour>
      <point x="236" y="-35" type="curve"/>
      <point x="80" y="-35" type="line"/>
      <point x="80" y="-182" type="line"/>
      <point x="152" y="-182" type="line"/>
      <point x="152" y="-193" type="line" smooth="yes"/>
      <point x="152" y="-245"/>
      <point x="131" y="-268"/>
      <point x="97" y="-268" type="curve"/>
      <point x="97" y="-346" type="line"/>
      <point x="210" y="-346"/>
      <point x="261" y="-266"/>
      <point x="261" y="-170" type="curve" smooth="yes"/>
      <point x="261" y="-128"/>
      <point x="254" y="-82"/>
    </contour>
    <component base="r"/>
  </outline>
</glyph>
<glyph name="tcedilla" format="2">
  <advance width="436"/>
  <unicode hex="0163"/>
  <outline>
    <contour>
      <point x="85" y="700" type="line"/>
      <point x="85" y="231" type="line" smooth="yes"/>
      <point x="85" y="56"/>
      <point x="185" y="0"/>
      <point x="317" y="0" type="curve" smooth="yes"/>
      <point x="401" y="0" type="line"/>
      <point x="401" y="189" type="line"/>
      <point x="348" y="189" type="line" smooth="yes"/>
      <point x="319" y="189"/>
      <point x="307" y="201"/>
      <point x="307" y="227" type="curve" smooth="yes"/>
      <point x="307" y="700" type="line"/>
    </contour>
    <contour>
      <point x="15" y="379" type="line"/>
      <point x="399" y="379" type="line"/>
      <point x="399" y="564" type="line"/>
      <point x="15" y="564" type="line"/>
    </contour>
    <contour>
      <point x="312" y="-27" type="curve"/>
      <point x="312" y="107" type="line"/>
      <point x="184" y="107" type="line"/>
      <point x="184" y="-127" type="line"/>
      <point x="269" y="-127" type="line" smooth="yes"/>
      <point x="285" y="-127"/>
      <point x="295" y="-132"/>
      <point x="295" y="-142" type="curve" smooth="yes"/>
      <point x="295" y="-152"/>
      <point x="285" y="-158"/>
      <point x="269" y="-158" type="curve" smooth="yes"/>
      <point x="119" y="-158" type="line"/>
      <point x="119" y="-271" type="line"/>
      <point x="292" y="-271" type="line"/>
      <point x="359" y="-271"/>
      <point x="442" y="-244"/>
      <point x="442" y="-149" type="curve"/>
      <point x="442" y="-54"/>
      <point x="360" y="-27"/>
    </contour>
  </outline>
</glyph>
<glyph name="tcaron" format="2">
  <advance width="436"/>
  <unicode hex="0165"/>
  <outline>
    <contour>
      <point x="494" y="890" type="curve"/>
      <point x="338" y="890" type="line"/>
      <point x="338" y="744" type="line"/>
      <point x="410" y="744" type="line"/>
      <point x="410" y="727" type="line" smooth="yes"/>
      <point x="410" y="701"/>
      <point x="390" y="688"/>
      <point x="355" y="688" type="curve"/>
      <point x="355" y="609" type="line"/>
      <point x="469" y="609"/>
      <point x="520" y="678"/>
      <point x="520" y="766" type="curve" smooth="yes"/>
      <point x="520" y="808"/>
      <point x="512" y="844"/>
    </contour>
    <component base="t"/>
  </outline>
</glyph>
<glyph name="Schwa" format="2">
  <advance width="773"/>
  <unicode hex="018F"/>
  <anchor x="385" y="727" name="top"/>
  <outline>
    <contour>
      <point x="517" y="399" type="curve" smooth="yes"/>
      <point x="517" y="314" type="line" smooth="yes"/>
      <point x="517" y="236"/>
      <point x="449" y="196"/>
      <point x="380" y="196" type="curve" smooth="yes"/>
      <point x="314" y="196"/>
      <point x="260" y="233"/>
      <point x="256" y="287" type="curve"/>
      <point x="542" y="287" type="line"/>
      <point x="542" y="409" type="line"/>
      <point x="34" y="409" type="line"/>
      <point x="32" y="391"/>
      <point x="30" y="370"/>
      <point x="30" y="353" type="curve" smooth="yes"/>
      <point x="30" y="131"/>
      <point x="170" y="-9"/>
      <point x="385" y="-9" type="curve" smooth="yes"/>
      <point x="600" y="-9"/>
      <point x="743" y="134"/>
      <point x="743" y="359" type="curve" smooth="yes"/>
      <point x="743" y="586"/>
      <point x="600" y="727"/>
      <point x="385" y="727" type="curve" smooth="yes"/>
      <point x="204" y="727"/>
      <point x="73" y="611"/>
      <point x="44" y="460" type="curve"/>
      <point x="277" y="460" type="line"/>
      <point x="290" y="503"/>
      <point x="337" y="529"/>
      <point x="389" y="529" type="curve" smooth="yes"/>
      <point x="454" y="529"/>
      <point x="517" y="489"/>
    </contour>
  </outline>
</glyph>
<glyph name="florin" format="2">
  <advance width="340"/>
  <unicode hex="0192"/>
  <outline>
    <contour>
      <point x="37" y="564" type="line"/>
      <point x="18" y="379" type="line"/>
      <point x="343" y="379" type="line"/>
      <point x="362" y="564" type="line"/>
    </contour>
    <contour>
      <point x="95.625" y="725.178"/>
      <point x="79" y="569" type="curve" smooth="yes"/>
      <point x="8" y="-98" type="line" smooth="yes"/>
      <point x="6" y="-110"/>
      <point x="-1" y="-120"/>
      <point x="-14" y="-120" type="curve" smooth="yes"/>
      <point x="-52" y="-120" type="line"/>
      <point x="-70" y="-310" type="line"/>
      <point x="-37" y="-310" type="line" smooth="yes"/>
      <point x="96" y="-310"/>
      <point x="212" y="-268"/>
      <point x="230" y="-98" type="curve" smooth="yes"/>
      <point x="300" y="569" type="line" smooth="yes"/>
      <point x="302.961" y="597.211"/>
      <point x="324.205" y="604"/>
      <point x="359" y="604" type="curve"/>
      <point x="378" y="793" type="line"/>
      <point x="191.527" y="793"/>
    </contour>
  </outline>
</glyph>
<glyph name="Scommaaccent" format="2">
  <advance width="685"/>
  <unicode hex="0218"/>
  <outline>
    <contour>
      <point x="419" y="-35" type="curve"/>
      <point x="263" y="-35" type="line"/>
      <point x="263" y="-182" type="line"/>
      <point x="335" y="-182" type="line"/>
      <point x="335" y="-193" type="line" smooth="yes"/>
      <point x="335" y="-245"/>
      <point x="315" y="-268"/>
      <point x="280" y="-268" type="curve"/>
      <point x="280" y="-346" type="line"/>
      <point x="394" y="-346"/>
      <point x="445" y="-266"/>
      <point x="445" y="-170" type="curve" smooth="yes"/>
      <point x="445" y="-128"/>
      <point x="437" y="-82"/>
    </contour>
    <component base="S"/>
  </outline>
</glyph>
<glyph name="scommaaccent" format="2">
  <advance width="579"/>
  <unicode hex="0219"/>
  <outline>
    <contour>
      <point x="364" y="-35" type="curve"/>
      <point x="208" y="-35" type="line"/>
      <point x="208" y="-182" type="line"/>
      <point x="280" y="-182" type="line"/>
      <point x="280" y="-193" type="line" smooth="yes"/>
      <point x="280" y="-245"/>
      <point x="259" y="-268"/>
      <point x="225" y="-268" type="curve"/>
      <point x="225" y="-346" type="line"/>
      <point x="338" y="-346"/>
      <point x="389" y="-266"/>
      <point x="389" y="-170" type="curve" smooth="yes"/>
      <point x="389" y="-128"/>
      <point x="382" y="-82"/>
    </contour>
    <component base="s"/>
  </outline>
</glyph>
<glyph name="Tcommaaccent" format="2">
  <advance width="616"/>
  <unicode hex="021A"/>
  <outline>
    <contour>
      <point x="385" y="-35" type="curve"/>
      <point x="229" y="-35" type="line"/>
      <point x="229" y="-182" type="line"/>
      <point x="301" y="-182" type="line"/>
      <point x="301" y="-193" type="line" smooth="yes"/>
      <point x="301" y="-245"/>
      <point x="280" y="-268"/>
      <point x="246" y="-268" type="curve"/>
      <point x="246" y="-346" type="line"/>
      <point x="359" y="-346"/>
      <point x="410" y="-266"/>
      <point x="410" y="-170" type="curve" smooth="yes"/>
      <point x="410" y="-128"/>
      <point x="403" y="-82"/>
    </contour>
    <component base="T"/>
  </outline>
</glyph>
<glyph name="tcommaaccent" format="2">
  <advance width="436"/>
  <unicode hex="021B"/>
  <outline>
    <contour>
      <point x="303" y="-35" type="curve"/>
      <point x="147" y="-35" type="line"/>
      <point x="147" y="-182" type="line"/>
      <point x="219" y="-182" type="line"/>
      <point x="219" y="-193" type="line" smooth="yes"/>
      <point x="219" y="-245"/>
      <point x="199" y="-268"/>
      <point x="164" y="-268" type="curve"/>
      <point x="164" y="-346" type="line"/>
      <point x="278" y="-346"/>
      <point x="329" y="-266"/>
      <point x="329" y="-170" type="curve" smooth="yes"/>
      <point x="329" y="-128"/>
      <point x="321" y="-82"/>
    </contour>
    <component base="t"/>
  </outline>
</glyph>
<glyph name="caroncomb" format="2">
  <advance width="351"/>
  <unicode hex="02C7"/>
  <anchor x="176" y="564" name="_top"/>
  <outline>
    <contour>
      <point x="341" y="821" type="line"/>
      <point x="176" y="733" type="line"/>
      <point x="10" y="821" type="line"/>
      <point x="10" y="677" type="line"/>
      <point x="176" y="602" type="line"/>
      <point x="341" y="677" type="line"/>
    </contour>
  </outline>
</glyph>
<glyph name="brevecomb" format="2">
  <advance width="395"/>
  <unicode hex="02D8"/>
  <anchor x="198" y="564" name="_top"/>
  <outline>
    <contour>
      <point x="386" y="665"/>
      <point x="386" y="803" type="curve" smooth="yes"/>
      <point x="386" y="820" type="line"/>
      <point x="283" y="820" type="line"/>
      <point x="283" y="781"/>
      <point x="263" y="758"/>
      <point x="198" y="758" type="curve"/>
      <point x="133" y="758"/>
      <point x="113" y="781"/>
      <point x="113" y="820" type="curve"/>
      <point x="10" y="820" type="line"/>
      <point x="10" y="803" type="line" smooth="yes"/>
      <point x="10" y="665"/>
      <point x="93" y="600"/>
      <point x="198" y="600" type="curve"/>
      <point x="303" y="600"/>
    </contour>
  </outline>
</glyph>
<glyph name="tilde" format="2">
  <advance width="458"/>
  <unicode hex="02DC"/>
  <anchor x="234" y="564" name="_top"/>
  <outline>
    <contour>
      <point x="22" y="730"/>
      <point x="0" y="602" type="curve"/>
      <point x="108" y="602" type="line"/>
      <point x="114" y="635"/>
      <point x="129" y="649"/>
      <point x="153" y="649" type="curve" smooth="yes"/>
      <point x="193" y="649"/>
      <point x="232" y="604"/>
      <point x="297" y="604" type="curve" smooth="yes"/>
      <point x="379" y="604"/>
      <point x="436" y="651"/>
      <point x="458" y="779" type="curve"/>
      <point x="349" y="779" type="line"/>
      <point x="344" y="747"/>
      <point x="329" y="732"/>
      <point x="305" y="732" type="curve" smooth="yes"/>
      <point x="265" y="732"/>
      <point x="226" y="778"/>
      <point x="161" y="778" type="curve" smooth="yes"/>
      <point x="79" y="778"/>
    </contour>
  </outline>
</glyph>
<glyph name="hungarumlautcomb" format="2">
  <advance width="513"/>
  <unicode hex="02DD"/>
  <anchor x="202" y="564" name="_top"/>
  <outline>
    <contour>
      <point x="258" y="845" type="line"/>
      <point x="90" y="845" type="line"/>
      <point x="10" y="601" type="line"/>
      <point x="143" y="601" type="line"/>
    </contour>
    <contour>
      <point x="504" y="845" type="line"/>
      <point x="336" y="845" type="line"/>
      <point x="233" y="601" type="line"/>
      <point x="366" y="601" type="line"/>
    </contour>
  </outline>
</glyph>
<glyph name="gravecomb" format="2">
  <advance width="324"/>
  <unicode hex="0300"/>
  <anchor x="141" y="564" name="_top"/>
  <outline>
    <contour>
      <point x="10" y="860" type="line"/>
      <point x="10" y="696" type="line"/>
      <point x="269" y="602" type="line"/>
      <point x="269" y="750" type="line"/>
    </contour>
  </outline>
</glyph>
<glyph name="acutecomb" format="2">
  <unicode hex="0301"/>
  <anchor x="141" y="564" name="_top"/>
  <outline>
    <contour>
      <point x="269" y="860" type="line"/>
      <point x="10" y="750" type="line"/>
      <point x="10" y="602" type="line"/>
      <point x="269" y="696" type="line"/>
    </contour>
  </outline>
</glyph>
<glyph name="circumflexcomb" format="2">
  <unicode hex="0302"/>
  <anchor x="176" y="564" name="_top"/>
  <outline>
    <contour>
      <point x="341" y="602" type="line"/>
      <point x="341" y="746" type="line"/>
      <point x="176" y="821" type="line"/>
      <point x="10" y="746" type="line"/>
      <point x="10" y="602" type="line"/>
      <point x="176" y="680" type="line"/>
    </contour>
  </outline>
</glyph>
<glyph name="macroncomb" format="2">
  <unicode hex="0304"/>
  <anchor x="225" y="564" name="_top"/>
  <outline>
    <contour>
      <point x="10" y="769" type="line"/>
      <point x="10" y="622" type="line"/>
      <point x="441" y="622" type="line"/>
      <point x="441" y="769" type="line"/>
    </contour>
  </outline>
</glyph>
<glyph name="dotaccentcomb" format="2">
  <advance width="192"/>
  <unicode hex="0307"/>
  <anchor x="97" y="564" name="_top"/>
  <outline>
    <contour>
      <point x="47" y="620"/>
      <point x="95" y="620" type="curve" smooth="yes"/>
      <point x="145" y="620"/>
      <point x="182" y="657"/>
      <point x="182" y="705" type="curve" smooth="yes"/>
      <point x="182" y="755"/>
      <point x="145" y="792"/>
      <point x="95" y="792" type="curve" smooth="yes"/>
      <point x="47" y="792"/>
      <point x="10" y="755"/>
      <point x="10" y="705" type="curve" smooth="yes"/>
      <point x="10" y="657"/>
    </contour>
  </outline>
</glyph>
<glyph name="dieresiscomb" format="2">
  <unicode hex="0308"/>
  <anchor x="209" y="564" name="_top"/>
  <outline>
    <contour>
      <point x="47" y="620"/>
      <point x="95" y="620" type="curve" smooth="yes"/>
      <point x="145" y="620"/>
      <point x="182" y="657"/>
      <point x="182" y="705" type="curve" smooth="yes"/>
      <point x="182" y="755"/>
      <point x="145" y="792"/>
      <point x="95" y="792" type="curve" smooth="yes"/>
      <point x="47" y="792"/>
      <point x="10" y="755"/>
      <point x="10" y="705" type="curve" smooth="yes"/>
      <point x="10" y="657"/>
    </contour>
    <contour>
      <point x="272" y="620"/>
      <point x="320" y="620" type="curve" smooth="yes"/>
      <point x="370" y="620"/>
      <point x="407" y="657"/>
      <point x="407" y="705" type="curve" smooth="yes"/>
      <point x="407" y="755"/>
      <point x="370" y="792"/>
      <point x="320" y="792" type="curve" smooth="yes"/>
      <point x="272" y="792"/>
      <point x="235" y="755"/>
      <point x="235" y="705" type="curve" smooth="yes"/>
      <point x="235" y="657"/>
    </contour>
  </outline>
</glyph>
<glyph name="ringcomb" format="2">
  <unicode hex="030A"/>
  <anchor x="142" y="564" name="_top"/>
  <outline>
    <contour>
      <point x="274" y="725" type="curve" smooth="yes"/>
      <point x="274" y="807"/>
      <point x="215" y="857"/>
      <point x="142" y="857" type="curve" smooth="yes"/>
      <point x="69" y="857"/>
      <point x="10" y="807"/>
      <point x="10" y="725" type="curve" smooth="yes"/>
      <point x="10" y="643"/>
      <point x="69" y="593"/>
      <point x="142" y="593" type="curve" smooth="yes"/>
      <point x="215" y="593"/>
      <point x="274" y="643"/>
    </contour>
    <contour>
      <point x="188" y="725" type="curve" smooth="yes"/>
      <point x="188" y="696.604"/>
      <point x="168" y="678"/>
      <point x="142" y="678" type="curve" smooth="yes"/>
      <point x="116" y="678"/>
      <point x="96" y="696.604"/>
      <point x="96" y="725" type="curve" smooth="yes"/>
      <point x="96" y="753.609"/>
      <point x="116" y="772"/>
      <point x="142" y="772" type="curve" smooth="yes"/>
      <point x="168" y="772"/>
      <point x="188" y="753.609"/>
    </contour>
  </outline>
</glyph>
<glyph name="cedillacomb" format="2">
  <advance width="343"/>
  <unicode hex="0327"/>
  <anchor x="129" y="7" name="_bottom"/>
  <outline>
    <contour>
      <point x="203" y="-27" type="curve"/>
      <point x="203" y="7" type="line"/>
      <point x="75" y="7" type="line"/>
      <point x="75" y="-127" type="line"/>
      <point x="160" y="-127" type="line" smooth="yes"/>
      <point x="176" y="-127"/>
      <point x="186" y="-132"/>
      <point x="186" y="-142" type="curve" smooth="yes"/>
      <point x="186" y="-152"/>
      <point x="176" y="-158"/>
      <point x="160" y="-158" type="curve" smooth="yes"/>
      <point x="10" y="-158" type="line"/>
      <point x="10" y="-271" type="line"/>
      <point x="183" y="-271" type="line"/>
      <point x="249.923" y="-271"/>
      <point x="333" y="-244"/>
      <point x="333" y="-149" type="curve"/>
      <point x="333" y="-54"/>
      <point x="251" y="-27"/>
    </contour>
  </outline>
</glyph>
<glyph name="ogonekcomb" format="2">
  <advance width="302"/>
  <unicode hex="0328"/>
  <anchor x="292" y="0" name="_ogonek"/>
  <outline>
    <contour>
      <point x="250" y="94" type="line"/>
      <point x="213" y="79" type="line" smooth="yes"/>
      <point x="57" y="16"/>
      <point x="18" y="-37"/>
      <point x="18" y="-103" type="curve" smooth="yes"/>
      <point x="18" y="-177"/>
      <point x="78" y="-223"/>
      <point x="179" y="-223" type="curve" smooth="yes"/>
      <point x="221" y="-223"/>
      <point x="259" y="-217"/>
      <point x="292" y="-207" type="curve"/>
      <point x="292" y="-91" type="line"/>
      <point x="259" y="-102"/>
      <point x="230" y="-107"/>
      <point x="207" y="-107" type="curve" smooth="yes"/>
      <point x="185" y="-107"/>
      <point x="173" y="-98"/>
      <point x="173" y="-86" type="curve" smooth="yes"/>
      <point x="173" y="-66"/>
      <point x="194" y="-48"/>
      <point x="249" y="-21" type="curve" smooth="yes"/>
      <point x="292" y="0" type="line"/>
    </contour>
  </outline>
</glyph>
<glyph name="pi" format="2">
  <advance width="708"/>
  <unicode hex="03C0"/>
  <outline>
    <contour>
      <point x="10" y="564" type="line"/>
      <point x="10" y="398" type="line"/>
      <point x="75" y="398" type="line"/>
      <point x="75" y="0" type="line"/>
      <point x="297" y="0" type="line"/>
      <point x="297" y="398" type="line"/>
      <point x="416" y="398" type="line"/>
      <point x="416" y="0" type="line"/>
      <point x="638" y="0" type="line"/>
      <point x="638" y="398" type="line"/>
      <point x="703" y="398" type="line"/>
      <point x="703" y="564" type="line"/>
    </contour>
  </outline>
</glyph>
<glyph name="dvCandrabindu" format="2">
  <unicode hex="0901"/>
  <anchor x="-66" y="740" name="_abvm.e"/>
  <outline>
    <contour>
      <point x="-178" y="807" type="curve" smooth="yes"/>
      <point x="-10" y="807"/>
      <point x="84" y="887"/>
      <point x="84" y="1040" type="curve"/>
      <point x="-79" y="1040" type="line"/>
      <point x="-79" y="988"/>
      <point x="-116" y="950"/>
      <point x="-178" y="950" type="curve" smooth="yes"/>
      <point x="-241" y="950"/>
      <point x="-279" y="988"/>
      <point x="-279" y="1040" type="curve"/>
      <point x="-440" y="1040" type="line"/>
      <point x="-440" y="887"/>
      <point x="-346" y="807"/>
    </contour>
    <contour>
      <point x="-180" y="989" type="curve" smooth="yes"/>
      <point x="-137" y="989"/>
      <point x="-106" y="1021"/>
      <point x="-106" y="1062" type="curve" smooth="yes"/>
      <point x="-106" y="1102"/>
      <point x="-137" y="1135"/>
      <point x="-180" y="1135" type="curve" smooth="yes"/>
      <point x="-219" y="1135"/>
      <point x="-252" y="1102"/>
      <point x="-252" y="1062" type="curve" smooth="yes"/>
      <point x="-252" y="1021"/>
      <point x="-219" y="989"/>
    </contour>
  </outline>
</glyph>
<glyph name="dvAnusvara" format="2">
  <unicode hex="0902"/>
  <anchor x="-66" y="740" name="_abvm.e"/>
  <outline>
    <contour>
      <point x="-170" y="799" type="curve" smooth="yes"/>
      <point x="-106" y="799"/>
      <point x="-55" y="850"/>
      <point x="-55" y="912" type="curve" smooth="yes"/>
      <point x="-55" y="976"/>
      <point x="-106" y="1026"/>
      <point x="-170" y="1026" type="curve" smooth="yes"/>
      <point x="-233" y="1026"/>
      <point x="-283" y="976"/>
      <point x="-283" y="912" type="curve" smooth="yes"/>
      <point x="-283" y="850"/>
      <point x="-233" y="799"/>
    </contour>
  </outline>
</glyph>
<glyph name="dvVisarga" format="2">
  <advance width="310"/>
  <unicode hex="0903"/>
  <outline>
    <contour>
      <point x="155" y="340" type="curve" smooth="yes"/>
      <point x="218" y="340"/>
      <point x="269" y="391"/>
      <point x="269" y="453" type="curve" smooth="yes"/>
      <point x="269" y="516"/>
      <point x="218" y="567"/>
      <point x="155" y="567" type="curve" smooth="yes"/>
      <point x="92" y="567"/>
      <point x="41" y="516"/>
      <point x="41" y="453" type="curve" smooth="yes"/>
      <point x="41" y="391"/>
      <point x="92" y="340"/>
    </contour>
    <contour>
      <point x="155" y="59" type="curve" smooth="yes"/>
      <point x="218" y="59"/>
      <point x="269" y="109"/>
      <point x="269" y="171" type="curve" smooth="yes"/>
      <point x="269" y="235"/>
      <point x="218" y="285"/>
      <point x="155" y="285" type="curve" smooth="yes"/>
      <point x="92" y="285"/>
      <point x="41" y="235"/>
      <point x="41" y="171" type="curve" smooth="yes"/>
      <point x="41" y="109"/>
      <point x="92" y="59"/>
    </contour>
  </outline>
</glyph>
<glyph name="dvA" format="2">
  <advance width="847"/>
  <unicode hex="0905"/>
  <outline>
    <contour>
      <point x="577" y="222" type="line"/>
      <point x="577" y="0" type="line"/>
      <point x="780" y="0" type="line"/>
      <point x="780" y="571" type="line"/>
      <point x="857" y="571" type="line"/>
      <point x="857" y="740" type="line"/>
      <point x="577" y="740" type="line"/>
      <point x="577" y="389" type="line"/>
      <point x="380" y="389" type="line"/>
      <point x="369" y="222" type="line"/>
    </contour>
    <contour>
      <point x="259" y="493" type="curve" smooth="yes"/>
      <point x="210" y="493" type="line"/>
      <point x="210" y="330" type="line"/>
      <point x="259" y="330" type="line" smooth="yes"/>
      <point x="301" y="330"/>
      <point x="322" y="309"/>
      <point x="322" y="280" type="curve" smooth="yes"/>
      <point x="322" y="255"/>
      <point x="308" y="237"/>
      <point x="282" y="237" type="curve" smooth="yes"/>
      <point x="254" y="237"/>
      <point x="241" y="258"/>
      <point x="241" y="279" type="curve"/>
      <point x="51" y="279" type="line"/>
      <point x="51" y="150"/>
      <point x="146" y="63"/>
      <point x="295" y="63" type="curve" smooth="yes"/>
      <point x="421" y="63"/>
      <point x="506" y="138"/>
      <point x="506" y="259" type="curve" smooth="yes"/>
      <point x="506" y="319"/>
      <point x="480" y="390"/>
      <point x="402" y="414" type="curve"/>
      <point x="402" y="418" type="line"/>
      <point x="461" y="443"/>
      <point x="497" y="494"/>
      <point x="497" y="564" type="curve" smooth="yes"/>
      <point x="497" y="676"/>
      <point x="415" y="749"/>
      <point x="281" y="749" type="curve" smooth="yes"/>
      <point x="143" y="749"/>
      <point x="57" y="662"/>
      <point x="57" y="539" type="curve"/>
      <point x="244" y="539" type="line"/>
      <point x="244" y="560"/>
      <point x="258" y="577"/>
      <point x="281" y="577" type="curve" smooth="yes"/>
      <point x="303" y="577"/>
      <point x="317" y="561"/>
      <point x="317" y="537" type="curve" smooth="yes"/>
      <point x="317" y="506"/>
      <point x="290" y="493"/>
    </contour>
  </outline>
</glyph>
<glyph name="dvI" format="2">
  <advance width="577"/>
  <unicode hex="0907"/>
  <anchor x="377" y="740" name="abvm.e"/>
  <outline>
    <contour>
      <point x="72" y="-89" type="line"/>
      <point x="265" y="-89" type="line"/>
      <point x="265" y="5" type="line"/>
      <point x="285" y="-8"/>
      <point x="320" y="-21"/>
      <point x="362" y="-21" type="curve" smooth="yes"/>
      <point x="468" y="-21"/>
      <point x="532" y="52"/>
      <point x="532" y="155" type="curve" smooth="yes"/>
      <point x="532" y="296"/>
      <point x="428" y="339"/>
      <point x="325" y="339" type="curve" smooth="yes"/>
      <point x="308" y="339"/>
      <point x="292" y="339"/>
      <point x="282" y="339" type="curve" smooth="yes"/>
      <point x="261" y="339"/>
      <point x="251" y="347"/>
      <point x="251" y="361" type="curve" smooth="yes"/>
      <point x="251" y="376"/>
      <point x="263" y="384"/>
      <point x="281" y="384" type="curve" smooth="yes"/>
      <point x="472" y="384" type="line"/>
      <point x="472" y="528" type="line"/>
      <point x="230" y="528" type="line" smooth="yes"/>
      <point x="125" y="528"/>
      <point x="46" y="475"/>
      <point x="46" y="363" type="curve" smooth="yes"/>
      <point x="46" y="247"/>
      <point x="140" y="204"/>
      <point x="216" y="199" type="curve" smooth="yes"/>
      <point x="244" y="197"/>
      <point x="264" y="197"/>
      <point x="285" y="197" type="curve" smooth="yes"/>
      <point x="323" y="197"/>
      <point x="339" y="184"/>
      <point x="339" y="161" type="curve" smooth="yes"/>
      <point x="339" y="141"/>
      <point x="325" y="128"/>
      <point x="300" y="128" type="curve" smooth="yes"/>
      <point x="275" y="128"/>
      <point x="256" y="140"/>
      <point x="255" y="169" type="curve"/>
      <point x="72" y="169" type="line"/>
    </contour>
    <contour>
      <point x="-12" y="571" type="line"/>
      <point x="589" y="571" type="line"/>
      <point x="589" y="740" type="line"/>
      <point x="-12" y="740" type="line"/>
    </contour>
    <contour>
      <point x="275" y="490" type="line"/>
      <point x="472" y="490" type="line"/>
      <point x="472" y="719" type="line"/>
      <point x="275" y="719" type="line"/>
    </contour>
  </outline>
</glyph>
<glyph name="dvU" format="2">
  <advance width="559"/>
  <unicode hex="0909"/>
  <anchor x="397" y="740" name="abvm.e"/>
  <outline>
    <contour>
      <point x="292" y="5" type="curve" smooth="yes"/>
      <point x="440" y="5"/>
      <point x="526" y="93"/>
      <point x="526" y="223" type="curve" smooth="yes"/>
      <point x="526" y="307"/>
      <point x="482" y="369"/>
      <point x="424" y="390" type="curve"/>
      <point x="424" y="393" type="line"/>
      <point x="470" y="406"/>
      <point x="504" y="456"/>
      <point x="504" y="538" type="curve" smooth="yes"/>
      <point x="504" y="706" type="line"/>
      <point x="308" y="706" type="line"/>
      <point x="308" y="547" type="line" smooth="yes"/>
      <point x="308" y="490"/>
      <point x="275" y="475"/>
      <point x="244" y="475" type="curve" smooth="yes"/>
      <point x="205" y="475" type="line"/>
      <point x="205" y="298" type="line"/>
      <point x="274" y="298" type="line" smooth="yes"/>
      <point x="315" y="298"/>
      <point x="334" y="272"/>
      <point x="334" y="240" type="curve" smooth="yes"/>
      <point x="334" y="207"/>
      <point x="314" y="186"/>
      <point x="282" y="186" type="curve" smooth="yes"/>
      <point x="248" y="186"/>
      <point x="227" y="210"/>
      <point x="227" y="245" type="curve"/>
      <point x="33" y="245" type="line"/>
      <point x="33" y="91"/>
      <point x="139" y="5"/>
    </contour>
    <contour>
      <point x="-11" y="570" type="line"/>
      <point x="570" y="570" type="line"/>
      <point x="570" y="740" type="line"/>
      <point x="-11" y="740" type="line"/>
    </contour>
  </outline>
</glyph>
<glyph name="dvUU" format="2">
  <advance width="845"/>
  <unicode hex="090A"/>
  <anchor x="505" y="740" name="abvm.e"/>
  <outline>
    <contour>
      <point x="292" y="5" type="curve" smooth="yes"/>
      <point x="438" y="5"/>
      <point x="523" y="94"/>
      <point x="523" y="211" type="curve" smooth="yes"/>
      <point x="523" y="296"/>
      <point x="480" y="357"/>
      <point x="424" y="379" type="curve"/>
      <point x="424" y="393" type="line"/>
      <point x="470" y="406"/>
      <point x="504" y="456"/>
      <point x="504" y="538" type="curve" smooth="yes"/>
      <point x="504" y="700" type="line"/>
      <point x="308" y="700" type="line"/>
      <point x="308" y="547" type="line" smooth="yes"/>
      <point x="308" y="490"/>
      <point x="275" y="475"/>
      <point x="244" y="475" type="curve" smooth="yes"/>
      <point x="205" y="475" type="line"/>
      <point x="205" y="298" type="line"/>
      <point x="274" y="298" type="line" smooth="yes"/>
      <point x="315" y="298"/>
      <point x="334" y="272"/>
      <point x="334" y="240" type="curve" smooth="yes"/>
      <point x="334" y="207"/>
      <point x="314" y="186"/>
      <point x="282" y="186" type="curve" smooth="yes"/>
      <point x="248" y="186"/>
      <point x="227" y="210"/>
      <point x="227" y="245" type="curve"/>
      <point x="33" y="245" type="line"/>
      <point x="33" y="91"/>
      <point x="139" y="5"/>
    </contour>
    <contour>
      <point x="630" y="14" type="curve" smooth="yes"/>
      <point x="757" y="14"/>
      <point x="819" y="95"/>
      <point x="819" y="194" type="curve" smooth="yes"/>
      <point x="819" y="326"/>
      <point x="728" y="390"/>
      <point x="584" y="390" type="curve" smooth="yes"/>
      <point x="418" y="390" type="line"/>
      <point x="447" y="230" type="line"/>
      <point x="587" y="230" type="line" smooth="yes"/>
      <point x="613" y="230"/>
      <point x="624" y="217"/>
      <point x="624" y="201" type="curve" smooth="yes"/>
      <point x="624" y="185"/>
      <point x="614" y="173"/>
      <point x="593" y="173" type="curve" smooth="yes"/>
      <point x="583" y="173"/>
      <point x="573" y="173"/>
      <point x="564" y="173" type="curve"/>
      <point x="564" y="21" type="line"/>
      <point x="588" y="16"/>
      <point x="609" y="14"/>
    </contour>
    <contour>
      <point x="-11" y="571" type="line"/>
      <point x="854" y="571" type="line"/>
      <point x="854" y="740" type="line"/>
      <point x="-11" y="740" type="line"/>
    </contour>
  </outline>
</glyph>
<glyph name="dvvR" format="2">
  <advance width="1071"/>
  <unicode hex="090B"/>
  <anchor x="650" y="740" name="abvm.e"/>
  <outline>
    <contour>
      <point x="463" y="0" type="line"/>
      <point x="650" y="0" type="line"/>
      <point x="650" y="571" type="line"/>
      <point x="1082" y="571" type="line"/>
      <point x="1082" y="740" type="line"/>
      <point x="-11" y="740" type="line"/>
      <point x="-11" y="571" type="line"/>
      <point x="463" y="571" type="line"/>
    </contour>
    <contour>
      <point x="70" y="0" type="line"/>
      <point x="331" y="0" type="line"/>
      <point x="575" y="204" type="line"/>
      <point x="498" y="327" type="line"/>
      <point x="70" y="8" type="line"/>
    </contour>
    <contour>
      <point x="548" y="172" type="line"/>
      <point x="549" y="356"/>
      <point x="494" y="510"/>
      <point x="308" y="510" type="curve" smooth="yes"/>
      <point x="145" y="510"/>
      <point x="57" y="391"/>
      <point x="57" y="227" type="curve"/>
      <point x="261" y="227" type="line"/>
      <point x="261" y="291"/>
      <point x="297" y="339"/>
      <point x="370" y="339" type="curve" smooth="yes"/>
      <point x="433" y="339"/>
      <point x="471" y="295"/>
      <point x="471" y="238" type="curve"/>
    </contour>
    <contour>
      <point x="950" y="-81" type="curve" smooth="yes"/>
      <point x="976" y="-81"/>
      <point x="1010" y="-78"/>
      <point x="1035" y="-74" type="curve"/>
      <point x="1035" y="87" type="line"/>
      <point x="1017" y="83"/>
      <point x="996" y="80"/>
      <point x="978" y="80" type="curve" smooth="yes"/>
      <point x="936" y="80"/>
      <point x="904" y="93"/>
      <point x="904" y="127" type="curve" smooth="yes"/>
      <point x="904" y="155"/>
      <point x="922" y="176"/>
      <point x="967" y="176" type="curve" smooth="yes"/>
      <point x="988" y="176" type="line"/>
      <point x="988" y="298" type="line"/>
      <point x="944" y="298" type="line" smooth="yes"/>
      <point x="812" y="298"/>
      <point x="709" y="236"/>
      <point x="709" y="108" type="curve" smooth="yes"/>
      <point x="709" y="-11"/>
      <point x="808" y="-81"/>
    </contour>
    <contour>
      <point x="610" y="299" type="line"/>
      <point x="743" y="299" type="line" smooth="yes"/>
      <point x="847" y="299"/>
      <point x="970" y="352"/>
      <point x="970" y="505" type="curve" smooth="yes"/>
      <point x="970" y="522" type="line"/>
      <point x="824" y="522" type="line"/>
      <point x="824" y="500" type="line" smooth="yes"/>
      <point x="824" y="471"/>
      <point x="803" y="459"/>
      <point x="774" y="459" type="curve" smooth="yes"/>
      <point x="610" y="459" type="line"/>
    </contour>
    <contour>
      <point x="824" y="176" type="line"/>
      <point x="998" y="176" type="line"/>
      <point x="998" y="523" type="line"/>
      <point x="824" y="523" type="line"/>
    </contour>
  </outline>
</glyph>
<glyph name="dvvL" format="2">
  <advance width="909"/>
  <unicode hex="090C"/>
  <anchor x="744" y="740" name="abvm.e"/>
  <outline>
    <contour>
      <point x="808" y="-85" type="curve" smooth="yes"/>
      <point x="835" y="-85"/>
      <point x="862" y="-83"/>
      <point x="893" y="-79" type="curve"/>
      <point x="893" y="82" type="line"/>
      <point x="873" y="77"/>
      <point x="853" y="76"/>
      <point x="835" y="76" type="curve" smooth="yes"/>
      <point x="790" y="76"/>
      <point x="756" y="91"/>
      <point x="756" y="120" type="curve" smooth="yes"/>
      <point x="756" y="151"/>
      <point x="774" y="171"/>
      <point x="846" y="171" type="curve" smooth="yes"/>
      <point x="848" y="171"/>
      <point x="850" y="171"/>
      <point x="852" y="171" type="curve"/>
      <point x="862" y="201"/>
      <point x="868" y="234"/>
      <point x="868" y="271" type="curve" smooth="yes"/>
      <point x="868" y="447"/>
      <point x="752" y="519"/>
      <point x="639" y="519" type="curve" smooth="yes"/>
      <point x="550" y="519"/>
      <point x="489" y="481"/>
      <point x="459" y="424" type="curve"/>
      <point x="455" y="424" type="line"/>
      <point x="425" y="481"/>
      <point x="370" y="519"/>
      <point x="282" y="519" type="curve" smooth="yes"/>
      <point x="163" y="519"/>
      <point x="42" y="447"/>
      <point x="42" y="271" type="curve" smooth="yes"/>
      <point x="42" y="112"/>
      <point x="139" y="12"/>
      <point x="314" y="12" type="curve" smooth="yes"/>
      <point x="321" y="12"/>
      <point x="333" y="12"/>
      <point x="349" y="13" type="curve"/>
      <point x="349" y="189" type="line"/>
      <point x="339" y="188"/>
      <point x="328" y="188"/>
      <point x="323" y="188" type="curve" smooth="yes"/>
      <point x="283" y="188"/>
      <point x="249" y="205"/>
      <point x="249" y="268" type="curve" smooth="yes"/>
      <point x="249" y="312"/>
      <point x="272" y="340"/>
      <point x="313" y="340" type="curve" smooth="yes"/>
      <point x="362" y="340"/>
      <point x="376" y="297"/>
      <point x="376" y="263" type="curve" smooth="yes"/>
      <point x="376" y="227" type="line"/>
      <point x="544" y="227" type="line"/>
      <point x="544" y="263" type="line" smooth="yes"/>
      <point x="544" y="297"/>
      <point x="558" y="340"/>
      <point x="607" y="340" type="curve" smooth="yes"/>
      <point x="643" y="340"/>
      <point x="665" y="314"/>
      <point x="665" y="272" type="curve" smooth="yes"/>
      <point x="665" y="256"/>
      <point x="665" y="241"/>
      <point x="658" y="226" type="curve"/>
      <point x="721" y="281" type="line"/>
      <point x="644" y="271"/>
      <point x="562" y="207"/>
      <point x="562" y="110" type="curve" smooth="yes"/>
      <point x="562" y="-16"/>
      <point x="662" y="-85"/>
    </contour>
    <contour>
      <point x="547" y="431" type="line"/>
      <point x="744" y="467" type="line"/>
      <point x="744" y="605" type="line"/>
      <point x="547" y="605" type="line"/>
    </contour>
    <contour>
      <point x="-11" y="571" type="line"/>
      <point x="920" y="571" type="line"/>
      <point x="920" y="740" type="line"/>
      <point x="-11" y="740" type="line"/>
    </contour>
  </outline>
</glyph>
<glyph name="dvE" format="2">
  <advance width="653"/>
  <unicode hex="090F"/>
  <anchor x="443" y="740" name="abvm.e"/>
  <outline>
    <contour>
      <point x="332" y="19" type="curve" smooth="yes"/>
      <point x="479" y="19"/>
      <point x="581" y="99"/>
      <point x="581" y="243" type="curve"/>
      <point x="382" y="243" type="line"/>
      <point x="382" y="211"/>
      <point x="359" y="192"/>
      <point x="329" y="192" type="curve" smooth="yes"/>
      <point x="302" y="192"/>
      <point x="273" y="210"/>
      <point x="273" y="258" type="curve" smooth="yes"/>
      <point x="273" y="668" type="line"/>
      <point x="69" y="668" type="line"/>
      <point x="70" y="266" type="line" smooth="yes"/>
      <point x="70" y="121"/>
      <point x="159" y="19"/>
    </contour>
    <contour>
      <point x="337" y="298" type="line"/>
      <point x="528" y="270"/>
      <point x="593" y="362"/>
      <point x="593" y="515" type="curve" smooth="yes"/>
      <point x="593" y="668" type="line"/>
      <point x="395" y="668" type="line"/>
      <point x="395" y="520" type="line" smooth="yes"/>
      <point x="395" y="489"/>
      <point x="376" y="472"/>
      <point x="337" y="480" type="curve"/>
    </contour>
    <contour>
      <point x="-11" y="571" type="line"/>
      <point x="664" y="571" type="line"/>
      <point x="664" y="740" type="line"/>
      <point x="-11" y="740" type="line"/>
    </contour>
  </outline>
</glyph>
<glyph name="dvNGA" format="2">
  <advance width="728"/>
  <unicode hex="0919"/>
  <anchor x="477" y="740" name="abvm.e"/>
  <anchor x="409" y="-123" name="blwm.u"/>
  <anchor x="394" y="-23" name="blwm.virama"/>
  <outline>
    <contour>
      <point x="303" y="-24" type="curve" smooth="yes"/>
      <point x="453" y="-24"/>
      <point x="538" y="46"/>
      <point x="538" y="160" type="curve" smooth="yes"/>
      <point x="538" y="294"/>
      <point x="434" y="339"/>
      <point x="330" y="339" type="curve" smooth="yes"/>
      <point x="313" y="339"/>
      <point x="297" y="339"/>
      <point x="286" y="339" type="curve" smooth="yes"/>
      <point x="268" y="339"/>
      <point x="256" y="346"/>
      <point x="256" y="362" type="curve" smooth="yes"/>
      <point x="256" y="376"/>
      <point x="269" y="384"/>
      <point x="287" y="384" type="curve" smooth="yes"/>
      <point x="477" y="384" type="line"/>
      <point x="477" y="526" type="line"/>
      <point x="236" y="526" type="line" smooth="yes"/>
      <point x="131" y="526"/>
      <point x="52" y="473"/>
      <point x="52" y="369" type="curve" smooth="yes"/>
      <point x="52" y="216"/>
      <point x="189" y="197"/>
      <point x="260" y="197" type="curve" smooth="yes"/>
      <point x="272" y="197"/>
      <point x="283" y="197"/>
      <point x="292" y="197" type="curve" smooth="yes"/>
      <point x="331" y="197"/>
      <point x="345" y="182"/>
      <point x="345" y="162" type="curve" smooth="yes"/>
      <point x="345" y="139"/>
      <point x="324" y="128"/>
      <point x="297" y="128" type="curve" smooth="yes"/>
      <point x="277" y="128"/>
      <point x="244" y="135"/>
      <point x="241" y="169" type="curve"/>
      <point x="38" y="169" type="line"/>
      <point x="46" y="40"/>
      <point x="162" y="-24"/>
    </contour>
    <contour>
      <point x="622" y="253" type="curve" smooth="yes"/>
      <point x="679" y="253"/>
      <point x="724" y="298"/>
      <point x="724" y="353" type="curve" smooth="yes"/>
      <point x="724" y="410"/>
      <point x="679" y="455"/>
      <point x="622" y="455" type="curve" smooth="yes"/>
      <point x="566" y="455"/>
      <point x="521" y="410"/>
      <point x="521" y="353" type="curve" smooth="yes"/>
      <point x="521" y="298"/>
      <point x="566" y="253"/>
    </contour>
    <contour>
      <point x="281" y="490" type="line"/>
      <point x="477" y="490" type="line"/>
      <point x="477" y="719" type="line"/>
      <point x="281" y="719" type="line"/>
    </contour>
    <contour>
      <point x="-11" y="571" type="line"/>
      <point x="739" y="571" type="line"/>
      <point x="739" y="740" type="line"/>
      <point x="-11" y="740" type="line"/>
    </contour>
  </outline>
</glyph>
<glyph name="dvCA" format="2">
  <advance width="765"/>
  <unicode hex="091A"/>
  <outline>
    <contour>
      <point x="-11" y="571" type="line"/>
      <point x="776" y="571" type="line"/>
      <point x="776" y="740" type="line"/>
      <point x="-11" y="740" type="line"/>
    </contour>
    <contour>
      <point x="332" y="72" type="curve" smooth="yes"/>
      <point x="458" y="72"/>
      <point x="547" y="143"/>
      <point x="547" y="286" type="curve"/>
      <point x="495" y="379" type="line"/>
      <point x="495" y="293"/>
      <point x="464" y="242"/>
      <point x="396" y="240" type="curve" smooth="yes"/>
      <point x="354" y="239"/>
      <point x="323" y="257"/>
      <point x="323" y="293" type="curve" smooth="yes"/>
      <point x="323" y="328"/>
      <point x="351" y="344"/>
      <point x="379" y="344" type="curve"/>
      <point x="310" y="404" type="line"/>
      <point x="200" y="404"/>
      <point x="132" y="344"/>
      <point x="132" y="255" type="curve" smooth="yes"/>
      <point x="132" y="140"/>
      <point x="218" y="72"/>
    </contour>
    <contour>
      <point x="51" y="344" type="line"/>
      <point x="425" y="344" type="line"/>
      <point x="425" y="503" type="line"/>
      <point x="51" y="503" type="line"/>
    </contour>
    <contour>
      <point x="495" y="0" type="line"/>
      <point x="699" y="0" type="line"/>
      <point x="699" y="601" type="line"/>
      <point x="495" y="601" type="line"/>
    </contour>
  </outline>
</glyph>
<glyph name="dvTTA" format="2">
  <advance width="643"/>
  <unicode hex="091F"/>
  <anchor x="505" y="740" name="abvm.e"/>
  <anchor x="453" y="-94" name="blwm.u"/>
  <anchor x="439" y="5" name="blwm.virama"/>
  <outline>
    <contour>
      <point x="341" y="5" type="curve" smooth="yes"/>
      <point x="515" y="5"/>
      <point x="624" y="109"/>
      <point x="624" y="270" type="curve"/>
      <point x="430" y="270" type="line"/>
      <point x="430" y="217"/>
      <point x="395" y="181"/>
      <point x="336" y="181" type="curve" smooth="yes"/>
      <point x="279" y="181"/>
      <point x="246" y="215"/>
      <point x="246" y="263" type="curve" smooth="yes"/>
      <point x="246" y="319"/>
      <point x="292" y="349"/>
      <point x="346" y="349" type="curve" smooth="yes"/>
      <point x="506" y="349" type="line"/>
      <point x="506" y="600" type="line"/>
      <point x="306" y="600" type="line"/>
      <point x="306" y="423" type="line"/>
      <point x="423" y="519" type="line"/>
      <point x="333" y="519" type="line" smooth="yes"/>
      <point x="147" y="519"/>
      <point x="42" y="412"/>
      <point x="42" y="265" type="curve" smooth="yes"/>
      <point x="42" y="107"/>
      <point x="164" y="5"/>
    </contour>
    <contour>
      <point x="-11" y="571" type="line"/>
      <point x="654" y="571" type="line"/>
      <point x="654" y="740" type="line"/>
      <point x="-11" y="740" type="line"/>
    </contour>
  </outline>
</glyph>
<glyph name="dvTTHA" format="2">
  <advance width="668"/>
  <unicode hex="0920"/>
  <anchor x="437" y="740" name="abvm.e"/>
  <anchor x="445" y="-81" name="blwm.u"/>
  <anchor x="431" y="19" name="blwm.virama"/>
  <outline>
    <contour>
      <point x="334" y="19" type="curve" smooth="yes"/>
      <point x="498" y="19"/>
      <point x="627" y="113"/>
      <point x="627" y="276" type="curve" smooth="yes"/>
      <point x="627" y="453"/>
      <point x="481" y="534"/>
      <point x="334" y="534" type="curve" smooth="yes"/>
      <point x="187" y="534"/>
      <point x="42" y="453"/>
      <point x="42" y="276" type="curve" smooth="yes"/>
      <point x="42" y="113"/>
      <point x="170" y="19"/>
    </contour>
    <contour>
      <point x="334" y="188" type="curve" smooth="yes"/>
      <point x="278" y="188"/>
      <point x="245" y="225"/>
      <point x="245" y="276" type="curve" smooth="yes"/>
      <point x="245" y="327"/>
      <point x="278" y="363"/>
      <point x="334" y="363" type="curve" smooth="yes"/>
      <point x="392" y="363"/>
      <point x="424" y="327"/>
      <point x="424" y="276" type="curve" smooth="yes"/>
      <point x="424" y="225"/>
      <point x="392" y="188"/>
    </contour>
    <contour>
      <point x="232" y="506" type="line"/>
      <point x="433" y="506" type="line"/>
      <point x="433" y="571" type="line"/>
      <point x="679" y="571" type="line"/>
      <point x="679" y="740" type="line"/>
      <point x="-11" y="740" type="line"/>
      <point x="-11" y="571" type="line"/>
      <point x="232" y="571" type="line"/>
    </contour>
  </outline>
</glyph>
<glyph name="dvDDA" format="2">
  <advance width="560"/>
  <unicode hex="0921"/>
  <anchor x="477" y="740" name="abvm.e"/>
  <anchor x="414" y="-124" name="blwm.u"/>
  <anchor x="400" y="-24" name="blwm.virama"/>
  <outline>
    <contour>
      <point x="303" y="-24" type="curve" smooth="yes"/>
      <point x="453" y="-24"/>
      <point x="538" y="46"/>
      <point x="538" y="160" type="curve" smooth="yes"/>
      <point x="538" y="294"/>
      <point x="434" y="339"/>
      <point x="330" y="339" type="curve" smooth="yes"/>
      <point x="313" y="339"/>
      <point x="297" y="339"/>
      <point x="286" y="339" type="curve" smooth="yes"/>
      <point x="268" y="339"/>
      <point x="256" y="346"/>
      <point x="256" y="362" type="curve" smooth="yes"/>
      <point x="256" y="376"/>
      <point x="269" y="384"/>
      <point x="287" y="384" type="curve" smooth="yes"/>
      <point x="477" y="384" type="line"/>
      <point x="477" y="526" type="line"/>
      <point x="236" y="526" type="line" smooth="yes"/>
      <point x="131" y="526"/>
      <point x="52" y="473"/>
      <point x="52" y="369" type="curve" smooth="yes"/>
      <point x="52" y="216"/>
      <point x="189" y="197"/>
      <point x="260" y="197" type="curve" smooth="yes"/>
      <point x="272" y="197"/>
      <point x="283" y="197"/>
      <point x="292" y="197" type="curve" smooth="yes"/>
      <point x="331" y="197"/>
      <point x="345" y="182"/>
      <point x="345" y="162" type="curve" smooth="yes"/>
      <point x="345" y="139"/>
      <point x="324" y="128"/>
      <point x="297" y="128" type="curve" smooth="yes"/>
      <point x="277" y="128"/>
      <point x="244" y="135"/>
      <point x="241" y="169" type="curve"/>
      <point x="38" y="169" type="line"/>
      <point x="46" y="40"/>
      <point x="162" y="-24"/>
    </contour>
    <contour>
      <point x="-11" y="571" type="line"/>
      <point x="571" y="571" type="line"/>
      <point x="571" y="740" type="line"/>
      <point x="-11" y="740" type="line"/>
    </contour>
    <contour>
      <point x="280" y="490" type="line"/>
      <point x="477" y="490" type="line"/>
      <point x="477" y="719" type="line"/>
      <point x="280" y="719" type="line"/>
    </contour>
  </outline>
</glyph>
<glyph name="dvDDHA" format="2">
  <advance width="664"/>
  <unicode hex="0922"/>
  <anchor x="523" y="740" name="abvm.e"/>
  <anchor x="483" y="-119" name="blwm.u"/>
  <anchor x="469" y="-19" name="blwm.virama"/>
  <outline>
    <contour>
      <point x="377" y="-19" type="curve" smooth="yes"/>
      <point x="561" y="-19"/>
      <point x="658" y="57"/>
      <point x="658" y="189" type="curve" smooth="yes"/>
      <point x="658" y="291"/>
      <point x="590" y="360"/>
      <point x="468" y="360" type="curve" smooth="yes"/>
      <point x="361" y="360"/>
      <point x="289" y="312"/>
      <point x="289" y="222" type="curve" smooth="yes"/>
      <point x="289" y="210"/>
      <point x="291" y="194"/>
      <point x="294" y="179" type="curve"/>
      <point x="437" y="179" type="line"/>
      <point x="435" y="183"/>
      <point x="434" y="188"/>
      <point x="434" y="193" type="curve" smooth="yes"/>
      <point x="434" y="205"/>
      <point x="443" y="217"/>
      <point x="459" y="217" type="curve" smooth="yes"/>
      <point x="475" y="217"/>
      <point x="485" y="206"/>
      <point x="485" y="189" type="curve" smooth="yes"/>
      <point x="485" y="144"/>
      <point x="439" y="126"/>
      <point x="381" y="126" type="curve" smooth="yes"/>
      <point x="276" y="126"/>
      <point x="239" y="186"/>
      <point x="239" y="256" type="curve" smooth="yes"/>
      <point x="239" y="344"/>
      <point x="308" y="392"/>
      <point x="397" y="392" type="curve" smooth="yes"/>
      <point x="527" y="392" type="line"/>
      <point x="527" y="601" type="line"/>
      <point x="336" y="601" type="line"/>
      <point x="336" y="433" type="line"/>
      <point x="462" y="530" type="line"/>
      <point x="330" y="530" type="line" smooth="yes"/>
      <point x="164" y="530"/>
      <point x="42" y="432"/>
      <point x="42" y="265" type="curve" smooth="yes"/>
      <point x="42" y="80"/>
      <point x="189" y="-19"/>
    </contour>
    <contour>
      <point x="-11" y="571" type="line"/>
      <point x="675" y="571" type="line"/>
      <point x="675" y="740" type="line"/>
      <point x="-11" y="740" type="line"/>
    </contour>
  </outline>
</glyph>
<glyph name="dvTA" format="2">
  <advance width="717"/>
  <unicode hex="0924"/>
  <outline>
    <contour>
      <point x="475" y="314" type="line"/>
      <point x="475" y="488" type="line"/>
      <point x="326" y="488" type="line" smooth="yes"/>
      <point x="176" y="488"/>
      <point x="42" y="415"/>
      <point x="42" y="243" type="curve" smooth="yes"/>
      <point x="42" y="67"/>
      <point x="166" y="1"/>
      <point x="302" y="1" type="curve" smooth="yes"/>
      <point x="351" y="1" type="line"/>
      <point x="351" y="160" type="line"/>
      <point x="335" y="160" type="line"/>
      <point x="274" y="160"/>
      <point x="248" y="194"/>
      <point x="248" y="238" type="curve" smooth="yes"/>
      <point x="248" y="284"/>
      <point x="284" y="314"/>
      <point x="336" y="314" type="curve" smooth="yes"/>
    </contour>
    <contour>
      <point x="-11" y="571" type="line"/>
      <point x="728" y="571" type="line"/>
      <point x="728" y="740" type="line"/>
      <point x="-11" y="740" type="line"/>
    </contour>
    <contour>
      <point x="651" y="611" type="line"/>
      <point x="447" y="611" type="line"/>
      <point x="447" y="0" type="line"/>
      <point x="651" y="0" type="line"/>
    </contour>
  </outline>
</glyph>
<glyph name="dvTHA" format="2">
  <advance width="812"/>
  <unicode hex="0925"/>
  <outline>
    <contour>
      <point x="542" y="0" type="line"/>
      <point x="746" y="0" type="line"/>
      <point x="746" y="571" type="line"/>
      <point x="823" y="571" type="line"/>
      <point x="823" y="740" type="line"/>
      <point x="542" y="740" type="line"/>
      <point x="542" y="444" type="line" smooth="yes"/>
      <point x="542" y="305"/>
      <point x="462" y="240"/>
      <point x="363" y="240" type="curve" smooth="yes"/>
      <point x="268" y="240"/>
      <point x="241" y="291"/>
      <point x="237" y="321" type="curve"/>
      <point x="144" y="307" type="line"/>
      <point x="166" y="305"/>
      <point x="189" y="304"/>
      <point x="210" y="304" type="curve" smooth="yes"/>
      <point x="409" y="304"/>
      <point x="489" y="408"/>
      <point x="489" y="533" type="curve" smooth="yes"/>
      <point x="489" y="668"/>
      <point x="398" y="749"/>
      <point x="270" y="749" type="curve" smooth="yes"/>
      <point x="156" y="749"/>
      <point x="52" y="683"/>
      <point x="52" y="541" type="curve" smooth="yes"/>
      <point x="52" y="532"/>
      <point x="54" y="519"/>
      <point x="56" y="506" type="curve"/>
      <point x="239" y="506" type="line"/>
      <point x="237" y="515"/>
      <point x="235" y="524"/>
      <point x="235" y="536" type="curve" smooth="yes"/>
      <point x="235" y="563"/>
      <point x="249" y="576"/>
      <point x="268" y="576" type="curve" smooth="yes"/>
      <point x="286" y="576"/>
      <point x="298" y="560"/>
      <point x="298" y="539" type="curve" smooth="yes"/>
      <point x="298" y="471"/>
      <point x="232" y="448"/>
      <point x="126" y="448" type="curve" smooth="yes"/>
      <point x="46" y="448" type="line"/>
      <point x="41" y="419"/>
      <point x="40" y="391"/>
      <point x="40" y="364" type="curve" smooth="yes"/>
      <point x="40" y="181"/>
      <point x="160" y="72"/>
      <point x="332" y="72" type="curve" smooth="yes"/>
      <point x="436" y="72"/>
      <point x="510" y="115"/>
      <point x="542" y="165" type="curve"/>
    </contour>
  </outline>
</glyph>
<glyph name="dvDA" format="2">
  <advance width="613"/>
  <unicode hex="0926"/>
  <anchor x="529" y="740" name="abvm.e"/>
  <anchor x="558" y="-44" name="blwm.u"/>
  <anchor x="558" y="-44" name="blwm.virama"/>
  <outline>
    <contour>
      <point x="359" y="-44" type="line"/>
      <point x="558" y="-44" type="line"/>
      <point x="558" y="267" type="line"/>
      <point x="369" y="267" type="line"/>
      <point x="369" y="232"/>
      <point x="350" y="204"/>
      <point x="311" y="204" type="curve" smooth="yes"/>
      <point x="274" y="204"/>
      <point x="251" y="228"/>
      <point x="251" y="266" type="curve" smooth="yes"/>
      <point x="251" y="307"/>
      <point x="279" y="336"/>
      <point x="331" y="336" type="curve" smooth="yes"/>
      <point x="529" y="336" type="line"/>
      <point x="529" y="601" type="line"/>
      <point x="324" y="601" type="line"/>
      <point x="324" y="510" type="line"/>
      <point x="309" y="510" type="line" smooth="yes"/>
      <point x="152" y="510"/>
      <point x="42" y="423"/>
      <point x="42" y="271" type="curve" smooth="yes"/>
      <point x="42" y="111"/>
      <point x="148" y="44"/>
      <point x="251" y="44" type="curve" smooth="yes"/>
      <point x="328" y="44"/>
      <point x="381" y="78"/>
      <point x="394" y="142" type="curve"/>
      <point x="359" y="155" type="line"/>
    </contour>
    <contour>
      <point x="-11" y="571" type="line"/>
      <point x="623" y="571" type="line"/>
      <point x="624" y="740" type="line"/>
      <point x="-11" y="740" type="line"/>
    </contour>
  </outline>
</glyph>
<glyph name="dvPA" format="2">
  <advance width="691"/>
  <unicode hex="092A"/>
  <outline>
    <contour>
      <point x="286" y="136" type="curve" smooth="yes"/>
      <point x="418" y="136"/>
      <point x="477" y="218"/>
      <point x="484" y="327" type="curve"/>
      <point x="422" y="400" type="line"/>
      <point x="422" y="349"/>
      <point x="396" y="307"/>
      <point x="340" y="307" type="curve" smooth="yes"/>
      <point x="285" y="307"/>
      <point x="261" y="349"/>
      <point x="261" y="401" type="curve" smooth="yes"/>
      <point x="261" y="592" type="line"/>
      <point x="57" y="592" type="line"/>
      <point x="57" y="401" type="line" smooth="yes"/>
      <point x="57" y="253"/>
      <point x="135" y="136"/>
    </contour>
    <contour>
      <point x="422" y="0" type="line"/>
      <point x="626" y="0" type="line"/>
      <point x="626" y="582" type="line"/>
      <point x="422" y="582" type="line"/>
    </contour>
    <contour>
      <point x="-11" y="571" type="line"/>
      <point x="702" y="571" type="line"/>
      <point x="702" y="740" type="line"/>
      <point x="-11" y="740" type="line"/>
    </contour>
  </outline>
</glyph>
<glyph name="dvPHA" format="2">
  <advance width="984"/>
  <unicode hex="092B"/>
  <anchor x="610" y="740" name="abvm.e"/>
  <anchor x="610" y="0" name="blwm.u"/>
  <anchor x="610" y="0" name="blwm.virama"/>
  <outline>
    <contour>
      <point x="278" y="136" type="curve" smooth="yes"/>
      <point x="403" y="136"/>
      <point x="461" y="218"/>
      <point x="468" y="327" type="curve"/>
      <point x="406" y="390" type="line"/>
      <point x="406" y="345"/>
      <point x="382" y="307"/>
      <point x="332" y="307" type="curve" smooth="yes"/>
      <point x="283" y="307"/>
      <point x="261" y="344"/>
      <point x="261" y="390" type="curve" smooth="yes"/>
      <point x="261" y="592" type="line"/>
      <point x="57" y="592" type="line"/>
      <point x="57" y="390" type="line" smooth="yes"/>
      <point x="57" y="248"/>
      <point x="133" y="136"/>
    </contour>
    <contour>
      <point x="406" y="0" type="line"/>
      <point x="610" y="0" type="line"/>
      <point x="610" y="582" type="line"/>
      <point x="406" y="582" type="line"/>
    </contour>
    <contour>
      <point x="739" y="56" type="curve" smooth="yes"/>
      <point x="859" y="56"/>
      <point x="944" y="141"/>
      <point x="944" y="288" type="curve" smooth="yes"/>
      <point x="944" y="409"/>
      <point x="876" y="513"/>
      <point x="746" y="513" type="curve" smooth="yes"/>
      <point x="638" y="513"/>
      <point x="570" y="449"/>
      <point x="570" y="353" type="curve"/>
      <point x="610" y="245" type="line"/>
      <point x="610" y="307"/>
      <point x="635" y="340"/>
      <point x="679" y="340" type="curve" smooth="yes"/>
      <point x="720" y="340"/>
      <point x="737" y="309"/>
      <point x="737" y="278" type="curve" smooth="yes"/>
      <point x="737" y="247"/>
      <point x="719" y="220"/>
      <point x="683" y="220" type="curve" smooth="yes"/>
      <point x="676" y="220"/>
      <point x="668" y="221"/>
      <point x="660" y="223" type="curve"/>
      <point x="660" y="68" type="line"/>
      <point x="687" y="59"/>
      <point x="713" y="56"/>
    </contour>
    <contour>
      <point x="-11" y="571" type="line"/>
      <point x="995" y="571" type="line"/>
      <point x="995" y="740" type="line"/>
      <point x="-11" y="740" type="line"/>
    </contour>
  </outline>
</glyph>
<glyph name="dvBA" format="2">
  <advance width="687"/>
  <unicode hex="092C"/>
  <outline>
    <contour>
      <point x="426" y="0" type="line"/>
      <point x="622" y="0" type="line"/>
      <point x="622" y="571" type="line"/>
      <point x="698" y="571" type="line"/>
      <point x="698" y="740" type="line"/>
      <point x="-11" y="740" type="line"/>
      <point x="-11" y="571" type="line"/>
      <point x="426" y="571" type="line"/>
      <point x="426" y="450" type="line"/>
      <point x="473" y="448" type="line"/>
      <point x="430" y="501"/>
      <point x="363" y="524"/>
      <point x="286" y="524" type="curve" smooth="yes"/>
      <point x="144" y="524"/>
      <point x="42" y="426"/>
      <point x="42" y="288" type="curve" smooth="yes"/>
      <point x="42" y="143"/>
      <point x="144" y="39"/>
      <point x="286" y="39" type="curve" smooth="yes"/>
      <point x="370" y="39"/>
      <point x="439" y="71"/>
      <point x="457" y="138" type="curve"/>
      <point x="426" y="138" type="line"/>
    </contour>
    <contour>
      <point x="330" y="182" type="curve" smooth="yes"/>
      <point x="270" y="182"/>
      <point x="219" y="223"/>
      <point x="219" y="288" type="curve" smooth="yes"/>
      <point x="219" y="348"/>
      <point x="267" y="395"/>
      <point x="330" y="395" type="curve" smooth="yes"/>
      <point x="393" y="395"/>
      <point x="438" y="350"/>
      <point x="438" y="288" type="curve" smooth="yes"/>
      <point x="438" y="227"/>
      <point x="395" y="182"/>
    </contour>
    <contour>
      <point x="450" y="157" type="line"/>
      <point x="500" y="221" type="line"/>
      <point x="204" y="423" type="line"/>
      <point x="146" y="363" type="line"/>
    </contour>
  </outline>
</glyph>
